if (_typeface_js && _typeface_js.loadFace) _typeface_js.loadFace({"glyphs":{"0":{"ha":486,"x_min":118,"x_max":635,"o":"m 635 469 q 608 338 635 411 q 474 107 563 210 q 247 -15 368 -15 l 239 -15 q 229 -14 232 -14 q 118 99 118 -4 q 283 429 118 242 q 394 511 332 485 q 554 581 440 531 q 571 585 564 585 q 613 554 594 585 q 632 503 628 531 q 635 469 635 486 m 581 438 q 519 544 581 544 q 485 538 504 544 q 339 442 399 507 q 194 181 232 325 q 186 113 186 149 q 274 6 186 6 q 379 44 321 6 q 524 218 465 101 q 581 438 581 331 z "},"1":{"ha":386,"x_min":201,"x_max":574,"o":"m 574 583 q 569 574 572 578 q 269 81 389 319 q 246 7 246 33 q 261 -36 246 -17 q 263 -42 263 -37 q 258 -47 263 -47 q 253 -44 256 -47 q 201 46 201 17 q 215 99 201 69 q 475 511 285 246 l 478 517 l 478 518 q 476 519 478 519 q 472 517 475 519 q 236 314 349 415 q 226 310 231 310 l 224 310 l 224 313 q 253 353 224 324 q 285 378 257 356 q 489 544 408 475 q 517 564 507 560 q 561 583 536 572 l 569 586 q 574 583 574 586 z "},"2":{"ha":567,"x_min":8,"x_max":603,"o":"m 603 54 q 601 46 603 49 q 586 -7 590 -7 q 579 -4 583 -7 q 249 89 506 68 q 79 -8 132 -8 q 33 6 54 -8 q 8 43 8 21 q 29 81 8 63 q 203 135 90 135 l 228 135 q 256 135 256 135 q 282 133 292 133 q 515 399 456 274 q 528 450 528 425 q 502 506 528 486 q 440 525 476 525 l 431 525 q 288 453 342 519 q 271 431 281 446 q 260 414 271 431 q 254 411 258 411 q 249 417 249 411 q 258 431 249 419 q 268 444 267 442 q 478 581 371 581 q 585 499 585 581 q 569 438 585 469 q 379 203 522 336 q 301 133 342 168 q 586 75 494 124 q 603 54 603 67 m 224 90 q 182 92 208 92 q 49 76 107 92 q 24 49 24 69 q 49 26 24 31 l 57 26 q 65 25 63 25 q 224 90 125 25 z "},"3":{"ha":508,"x_min":71,"x_max":624,"o":"m 539 401 q 497 377 539 401 q 454 325 454 353 q 469 290 454 311 q 496 260 483 275 q 529 185 529 217 q 515 133 529 158 q 426 35 482 74 q 200 -42 318 -42 q 71 50 71 -42 q 79 92 71 69 q 86 99 82 100 q 89 89 90 99 q 143 11 82 39 q 246 -11 188 -8 q 411 44 339 -15 q 472 157 472 94 q 451 219 472 190 q 399 281 431 240 q 392 303 392 293 q 413 336 392 322 q 532 411 425 344 q 576 468 576 439 q 557 506 576 486 q 428 550 510 553 q 300 482 344 547 q 290 475 296 475 q 285 481 286 475 q 288 490 283 486 q 419 579 335 538 q 511 590 458 599 q 624 508 624 572 q 539 401 624 449 z "},"4":{"ha":656,"x_min":140,"x_max":761,"o":"m 756 234 q 754 230 756 234 q 744 217 751 226 q 726 208 738 208 q 446 178 633 196 q 378 14 369 36 q 379 3 381 6 q 375 0 378 0 q 372 1 374 0 q 346 3 367 6 q 286 -32 321 0 q 249 -74 276 -43 q 239 -75 243 -79 q 240 -64 236 -69 q 403 174 310 22 q 272 169 336 169 q 163 189 203 169 q 140 222 140 200 q 158 267 140 242 q 310 419 207 335 q 489 544 407 500 q 626 582 563 585 q 656 557 656 581 q 651 542 656 551 q 532 322 608 439 q 454 192 489 257 q 751 247 618 200 q 761 246 760 250 q 756 234 761 242 m 532 549 q 368 449 475 538 q 229 308 269 367 q 207 258 207 276 q 296 199 207 217 q 413 190 350 189 q 547 424 499 331 q 576 513 576 481 q 532 549 576 557 z "},"5":{"ha":433,"x_min":19,"x_max":700,"o":"m 700 672 q 693 639 700 656 q 581 531 663 564 q 468 508 525 508 q 388 518 428 508 l 385 518 q 331 451 374 518 q 317 408 317 425 q 383 336 317 376 q 424 310 394 329 q 457 239 457 285 q 433 160 457 201 q 292 8 388 79 q 101 -68 186 -68 l 96 -68 q 42 -49 65 -68 q 19 0 19 -31 q 25 19 19 19 q 29 14 29 18 l 29 6 q 28 0 28 1 q 94 -53 28 -53 l 100 -53 q 351 99 246 -53 q 394 206 394 161 q 363 276 394 246 q 307 318 346 290 q 274 357 274 342 q 275 361 274 358 l 275 364 q 399 569 292 435 q 414 578 403 578 l 417 578 q 419 576 418 576 q 499 567 453 567 q 681 644 639 567 q 689 676 689 660 q 682 701 689 688 q 681 707 681 703 q 685 710 681 710 q 692 707 689 710 q 700 672 700 693 z "},"6":{"ha":468,"x_min":132,"x_max":804,"o":"m 804 564 q 794 536 804 536 q 792 540 792 538 l 792 542 q 793 546 792 543 l 793 549 q 704 599 793 599 l 692 599 q 488 519 601 599 q 318 354 394 454 q 235 217 261 278 q 399 299 321 299 q 482 225 482 299 q 467 165 482 197 q 315 8 417 58 q 221 -15 268 -15 q 132 72 132 -15 q 143 138 132 104 q 483 531 213 347 q 724 626 625 626 q 804 564 804 626 m 449 240 q 400 286 449 286 q 228 189 303 286 q 192 68 192 142 q 243 -1 192 -1 q 380 85 311 -1 q 449 240 449 171 z "},"7":{"ha":463,"x_min":169,"x_max":689,"o":"m 689 569 q 686 563 689 564 q 613 517 654 532 q 356 251 475 371 q 225 43 225 121 q 244 3 225 15 q 251 -7 251 -3 q 218 -22 251 -8 q 194 -31 199 -31 q 169 21 169 -31 q 204 107 169 65 q 361 278 272 189 q 583 507 583 497 l 583 508 q 579 510 582 510 l 578 510 q 575 508 576 508 q 504 500 544 500 q 428 506 475 500 q 353 514 369 513 l 339 514 q 254 474 281 514 q 201 360 219 419 q 194 354 200 354 q 190 360 190 354 l 190 361 q 274 522 218 457 q 372 569 314 569 l 381 569 q 388 568 385 568 q 563 535 467 551 q 592 532 579 532 q 596 533 593 532 l 600 533 q 625 549 614 536 q 675 579 654 579 l 679 579 q 689 569 689 576 z "},"8":{"ha":460,"x_min":129,"x_max":608,"o":"m 608 532 q 504 392 608 464 q 432 346 472 369 l 438 336 q 458 311 449 325 q 490 225 490 265 q 475 165 490 196 q 285 -7 413 39 q 228 -18 254 -18 q 157 7 185 -18 q 129 75 129 32 q 342 307 129 186 l 371 324 q 350 390 350 360 q 416 519 350 457 q 549 581 482 581 l 556 581 q 608 532 608 576 m 563 518 q 521 558 563 558 q 492 553 506 558 q 406 481 438 532 q 390 432 390 457 q 424 356 390 400 q 553 482 522 414 q 563 518 563 504 m 443 176 q 376 314 443 226 q 249 231 281 258 q 178 104 178 171 q 204 39 178 64 q 271 14 231 14 q 356 46 310 14 q 421 110 394 74 q 443 176 443 140 z "},"9":{"ha":438,"x_min":-33,"x_max":550,"o":"m 550 503 q 422 215 550 376 q 79 -19 253 3 q 61 -21 74 -21 q 6 -8 36 -21 q -33 26 -33 7 q -29 31 -33 31 l -26 29 q 57 -1 4 -1 l 64 -1 q 367 207 224 -1 q 451 361 418 282 q 283 274 369 274 q 200 344 200 274 q 218 407 200 372 q 371 556 269 507 q 467 582 426 582 q 550 503 550 582 m 499 514 q 451 565 499 565 q 353 526 410 565 q 235 361 264 467 q 231 338 231 346 q 288 289 231 289 q 435 367 365 289 q 465 411 453 386 q 499 514 499 475 z "}," ":{"ha":694,"x_min":0,"x_max":0,"o":""},"!":{"ha":306,"x_min":111,"x_max":449,"o":"m 449 551 q 443 546 449 546 l 443 546 l 440 546 q 411 535 425 546 q 179 136 324 463 q 174 132 178 132 q 168 138 168 132 l 168 139 q 326 522 251 378 q 393 565 349 565 q 444 557 424 565 q 449 551 449 556 m 183 40 q 170 6 183 21 q 138 -8 157 -8 q 111 18 111 -8 q 153 74 111 74 q 183 40 183 74 z "},"\"":{"ha":454,"x_min":229,"x_max":592,"o":"m 592 639 q 588 629 592 633 q 453 447 561 588 q 350 306 389 363 q 342 301 347 301 q 335 307 335 301 q 338 313 335 310 q 544 643 411 439 q 568 654 551 654 q 592 639 592 654 m 490 646 q 486 636 490 640 q 244 310 411 539 q 238 306 243 306 q 229 314 229 306 q 232 321 229 318 q 336 488 264 368 q 443 653 401 596 q 465 665 453 665 q 490 646 490 665 z "},"#":{"ha":457,"x_min":85,"x_max":551,"o":"m 551 539 q 546 524 551 532 q 453 386 519 486 q 515 389 475 388 l 515 389 q 521 385 521 389 q 518 381 521 383 q 478 349 499 365 q 422 339 463 339 q 382 276 404 313 q 333 196 369 256 l 360 196 q 408 175 408 196 q 390 139 408 174 q 379 132 386 132 q 342 138 368 132 q 303 144 317 144 q 215 -18 253 57 q 204 -28 213 -28 q 193 -15 193 -28 q 199 0 193 -8 q 288 144 233 54 q 201 139 242 144 q 114 -28 139 32 q 99 -44 107 -44 q 85 -28 85 -44 q 89 -15 85 -22 q 183 136 113 22 l 132 128 q 124 133 124 128 q 139 151 124 133 q 215 188 153 181 q 304 331 246 235 q 277 327 294 331 q 250 324 260 324 l 247 324 q 240 329 240 324 l 243 335 q 265 371 250 349 q 308 381 271 379 q 335 381 308 381 q 403 492 365 432 q 424 510 414 508 q 425 511 425 510 l 425 511 q 432 504 432 511 q 429 496 432 499 q 350 381 394 447 l 436 385 l 529 531 q 546 544 538 544 q 551 539 551 544 m 407 340 l 319 332 l 232 190 q 318 196 260 193 q 407 340 347 244 z "},"$":{"ha":503,"x_min":46,"x_max":600,"o":"m 600 696 q 599 689 600 692 q 524 567 579 657 q 536 521 536 544 l 536 513 q 514 467 536 506 q 508 463 513 463 q 501 471 501 463 q 493 515 501 494 l 392 347 q 450 325 411 342 q 519 228 519 294 q 407 43 519 131 q 188 -47 290 -47 l 171 -47 q 81 -268 131 -131 q 75 -275 78 -275 q 67 -256 67 -275 q 69 -235 67 -243 q 153 -44 100 -143 q 49 46 49 -26 q 46 90 49 60 l 46 92 q 51 99 46 99 q 56 93 56 97 q 174 -7 64 18 q 356 313 235 106 q 292 331 311 324 q 238 359 249 346 q 228 389 228 372 q 233 417 228 401 q 344 575 271 515 q 443 614 393 614 q 514 582 489 614 l 565 669 q 589 697 575 686 q 596 700 592 700 q 600 696 600 700 m 483 532 q 404 579 454 579 q 340 556 369 579 q 276 442 276 506 q 374 353 276 385 l 378 351 l 483 532 m 457 199 q 368 308 457 279 q 204 17 282 161 q 190 -10 193 -3 q 231 -12 204 -12 q 378 36 318 -12 q 457 199 457 101 z "},"%":{"ha":879,"x_min":81,"x_max":925,"o":"m 925 278 q 915 274 924 275 q 826 264 913 274 q 814 251 814 263 q 815 238 814 247 q 817 224 817 229 q 801 151 817 193 q 732 39 778 88 q 617 -21 675 -21 q 554 46 554 -21 q 650 228 554 132 q 99 -161 322 22 q 86 -167 93 -167 l 85 -167 q 81 -162 81 -167 q 83 -156 81 -161 q 85 -147 85 -151 q 83 -140 85 -143 l 83 -136 q 93 -118 83 -128 q 651 465 500 261 q 724 603 724 563 q 642 657 724 657 q 599 653 625 657 q 465 624 556 642 l 453 624 q 428 631 435 624 q 365 574 394 614 q 301 419 310 494 l 301 408 q 335 364 301 364 q 371 376 350 364 q 451 463 419 406 q 482 578 482 521 l 482 581 q 476 603 482 592 q 469 615 469 615 q 474 621 469 621 l 475 621 q 476 619 475 619 q 513 606 494 613 q 526 568 526 597 q 457 422 526 497 q 318 347 388 347 q 250 406 250 347 l 250 418 q 332 579 261 500 q 422 636 365 617 q 418 654 418 643 q 429 690 418 690 q 439 680 431 690 q 465 669 447 669 q 547 677 493 669 q 628 685 600 685 q 701 667 671 685 q 738 606 738 646 q 207 -51 738 497 l 207 -51 q 443 113 425 100 q 689 261 581 203 q 714 275 714 275 q 718 271 718 275 l 718 269 q 694 244 718 267 q 665 217 667 218 q 622 138 643 190 q 601 50 601 85 q 639 -1 601 -1 q 697 31 665 -1 q 769 210 769 104 l 769 221 q 729 282 768 244 q 765 306 729 279 q 771 307 767 307 q 782 303 776 307 q 857 282 800 288 l 915 282 q 925 278 925 282 z "},"&":{"ha":1226,"x_min":126,"x_max":1233,"o":"m 1233 199 q 1214 108 1233 154 q 1049 -44 1165 -7 q 960 -58 1006 -58 q 847 -29 896 -58 q 633 -82 749 -82 q 492 -44 547 -82 q 428 81 428 -1 q 529 265 428 174 q 708 394 575 307 q 744 421 715 400 q 804 572 756 478 q 792 574 800 572 l 779 574 q 661 564 725 574 q 350 408 486 538 q 178 31 178 244 q 249 -162 178 -89 q 567 -271 353 -271 q 933 -147 783 -271 l 942 -142 q 944 -143 943 -142 l 943 -144 q 901 -191 943 -164 q 825 -232 858 -218 q 561 -281 697 -282 q 268 -206 385 -278 q 126 46 126 -119 q 169 215 126 126 q 269 361 208 299 q 789 583 486 583 l 810 583 q 838 625 825 611 q 894 656 865 656 q 918 633 918 656 q 899 575 918 611 q 1107 356 1107 533 q 1078 222 1107 292 q 894 0 1024 92 q 1001 -32 946 -32 q 1074 -19 1038 -32 q 1186 115 1165 13 q 1190 154 1190 136 q 1143 272 1190 233 q 1122 281 1135 279 q 1115 286 1117 282 q 1122 290 1115 290 l 1128 290 q 1148 293 1135 290 q 1168 296 1161 296 q 1209 276 1192 296 q 1231 231 1226 256 q 1233 199 1233 211 m 897 619 q 881 639 897 639 q 822 583 857 639 q 883 578 861 581 q 897 619 897 606 m 876 565 q 815 572 857 569 q 763 435 782 514 q 876 565 843 501 m 1079 340 q 956 539 1079 478 q 892 561 931 551 q 804 443 864 514 q 754 393 789 425 q 749 313 749 358 q 885 7 749 108 q 968 79 926 38 q 1079 340 1079 193 m 836 -22 q 724 257 724 57 q 735 376 724 314 q 708 353 728 369 l 704 349 q 579 231 614 268 q 475 40 475 119 q 633 -68 475 -68 q 836 -22 750 -68 z "},"'":{"ha":303,"x_min":250,"x_max":456,"o":"m 456 642 q 453 635 456 639 q 363 503 447 624 q 264 354 332 456 q 258 351 261 351 q 250 358 250 351 q 251 365 250 363 l 329 510 q 410 646 372 589 q 432 658 418 658 q 456 642 456 658 z "},"(":{"ha":508,"x_min":139,"x_max":638,"o":"m 638 704 q 633 699 638 700 q 497 603 558 665 q 222 189 317 421 q 181 28 181 88 q 224 -67 181 -32 q 226 -72 226 -68 q 222 -76 226 -76 q 218 -75 221 -76 q 139 67 139 -25 q 154 150 139 103 q 342 476 208 318 q 629 708 475 633 l 632 708 q 638 706 635 708 l 638 704 z "},")":{"ha":564,"x_min":168,"x_max":658,"o":"m 658 553 q 610 381 658 485 q 436 111 540 231 q 178 -74 308 -36 l 174 -74 q 168 -69 168 -74 q 174 -64 168 -65 q 342 57 261 -35 q 596 479 517 257 q 625 613 625 561 q 594 693 625 664 q 592 699 592 696 q 593 700 592 700 l 593 701 q 596 703 594 703 q 643 639 624 703 q 658 553 658 588 z "},"*":{"ha":353,"x_min":203,"x_max":515,"o":"m 515 507 q 496 489 515 494 q 368 458 460 482 q 478 381 413 429 q 483 369 483 376 q 464 353 483 353 q 358 446 460 353 q 350 313 353 388 q 326 300 350 303 l 322 300 q 310 310 310 300 l 310 314 q 347 451 322 353 l 221 399 q 219 397 221 397 q 203 413 206 397 l 203 415 q 219 435 203 432 q 343 461 261 442 q 233 542 314 483 q 225 557 225 547 q 246 575 225 575 q 256 571 251 575 l 351 471 q 372 615 358 539 q 393 622 376 622 l 396 622 q 407 611 407 622 q 364 469 407 618 q 486 521 432 493 q 496 524 492 524 q 514 511 510 524 q 515 510 514 510 l 515 507 z "},"+":{"ha":556,"x_min":181,"x_max":567,"o":"m 353 214 l 353 386 l 394 386 l 394 214 l 567 214 l 567 172 l 394 172 l 394 0 l 353 0 l 353 172 l 181 172 l 181 214 l 353 214 z "},",":{"ha":292,"x_min":-43,"x_max":221,"o":"m 221 96 q 210 71 221 83 q -29 -179 90 -60 q -36 -181 -33 -181 q -43 -172 -43 -181 q -39 -161 -43 -168 q 192 129 53 -57 q 207 139 197 139 q 221 96 221 139 z "},"-":{"ha":321,"x_min":147,"x_max":392,"o":"m 392 189 q 374 178 392 178 l 308 178 q 249 178 249 178 q 161 176 174 176 q 147 185 147 176 q 164 197 147 197 l 165 197 q 200 197 200 197 q 218 196 207 197 q 228 196 226 196 q 302 197 253 196 q 376 199 351 199 q 392 189 392 199 z "},".":{"ha":306,"x_min":114,"x_max":201,"o":"m 201 61 q 199 50 201 58 q 149 -6 185 10 q 139 -7 146 -7 q 114 14 114 -7 l 114 18 q 133 63 114 42 q 175 85 151 85 q 183 83 181 85 q 201 61 201 78 z "},"/":{"ha":511,"x_min":133,"x_max":611,"o":"m 611 761 q 161 -217 611 757 q 144 -228 154 -228 q 133 -218 133 -228 q 358 276 133 -207 l 583 757 q 600 771 593 771 q 611 761 611 771 z "},":":{"ha":332,"x_min":81,"x_max":290,"o":"m 290 290 q 288 279 290 288 q 238 224 274 239 q 228 222 235 222 q 203 243 203 222 l 203 247 q 222 292 203 271 q 264 314 240 314 q 272 313 269 314 q 290 290 290 307 m 168 61 q 165 50 168 58 q 115 -6 151 10 q 106 -7 113 -7 q 81 14 81 -7 l 81 18 q 99 63 81 42 q 142 85 118 85 q 150 83 147 85 q 168 61 168 78 z "},";":{"ha":321,"x_min":-74,"x_max":288,"o":"m 288 292 q 286 281 288 285 q 236 225 272 240 q 226 224 233 224 q 201 244 201 224 l 201 249 q 219 294 201 272 q 261 315 238 315 q 271 314 268 315 q 288 292 288 310 m 189 94 q 179 71 189 82 q -60 -179 61 -58 q -67 -181 -64 -181 q -74 -172 -74 -181 q -69 -161 -74 -168 q 161 129 22 -57 q 176 139 167 139 q 189 94 189 139 z "},"<":{"ha":349,"x_min":142,"x_max":385,"o":"m 385 317 q 363 297 378 311 q 194 168 313 261 q 182 149 182 158 q 185 135 182 146 q 239 -22 203 82 q 229 -26 239 -26 q 197 -35 188 -35 q 188 -24 190 -35 q 142 133 165 61 l 142 136 q 151 149 142 142 q 204 190 153 150 q 379 326 376 326 q 385 319 385 326 l 385 317 z "},"=":{"ha":1574,"x_min":22,"x_max":1546,"o":"m 1546 436 q 1539 433 1544 433 l 1494 433 q 1472 321 1493 371 q 1474 283 1474 304 q 1422 102 1474 193 q 1292 -43 1369 11 q 774 -174 1106 -174 q 589 -160 676 -174 q 514 -235 553 -203 q 292 -336 392 -336 q 164 -285 208 -336 q 143 -228 147 -265 q 151 -256 146 -244 q 283 -319 182 -319 q 508 -226 400 -319 q 579 -157 556 -186 q 206 -4 357 -119 q 26 339 22 135 q 286 747 32 621 q 794 839 483 844 q 1215 756 1047 835 q 1283 786 1257 786 q 1308 776 1294 786 l 1310 742 l 1306 740 l 1303 754 q 1268 767 1285 767 q 1224 753 1243 767 q 1407 635 1336 707 q 1494 440 1494 546 l 1539 440 q 1546 436 1546 440 m 1489 433 q 1465 433 1465 433 q 1440 432 1433 432 q 1472 340 1464 390 q 1483 388 1475 353 q 1489 433 1485 394 m 1489 440 q 1396 629 1482 542 q 1217 747 1322 704 q 1057 563 1150 693 q 981 444 1028 521 l 1003 444 q 1011 446 1006 444 l 1021 446 q 1054 450 1031 447 q 1033 422 1050 444 q 983 336 983 356 q 992 326 983 326 q 1022 346 1003 326 q 1050 374 1032 351 q 1089 436 1053 376 q 1103 447 1096 447 q 1108 442 1108 447 q 1078 388 1108 444 l 1101 410 q 1131 431 1111 419 q 1151 443 1151 443 l 1158 438 q 1106 331 1106 351 q 1118 318 1106 318 q 1165 346 1132 318 q 1242 429 1206 429 q 1251 426 1246 429 q 1253 443 1253 433 l 1263 450 q 1318 438 1281 438 l 1344 438 q 1386 439 1331 438 q 1428 439 1386 439 q 1411 457 1421 447 l 1414 461 q 1436 439 1426 450 q 1463 440 1428 439 q 1489 440 1463 440 m 1249 418 q 1244 425 1249 425 q 1205 386 1231 425 q 1179 331 1179 347 q 1189 318 1179 318 q 1232 367 1207 318 q 1249 418 1249 399 m 1465 332 q 1453 389 1463 354 q 1432 432 1450 401 q 1358 430 1407 432 q 1285 428 1310 428 l 1264 428 q 1169 301 1228 301 q 1158 313 1158 301 q 1161 329 1158 318 l 1163 335 q 1104 306 1121 306 q 1082 321 1082 306 q 1103 375 1082 336 q 1132 422 1111 390 q 1107 406 1122 422 q 1063 356 1082 389 l 1047 329 l 1036 313 l 1031 322 l 1043 346 l 1053 365 q 976 314 1001 314 q 957 332 957 314 q 986 386 957 343 l 1006 415 q 1017 435 1015 429 q 1008 439 1017 439 l 976 439 q 965 419 975 436 q 799 142 878 271 q 1006 106 903 106 q 1240 143 1131 106 q 1435 275 1371 189 q 1465 332 1453 300 m 1465 310 q 1308 136 1411 196 q 1082 76 1204 76 q 897 99 979 76 q 792 132 868 107 q 646 -87 729 29 q 594 -153 618 -126 q 746 -164 675 -164 q 1265 -12 1071 -164 q 1447 228 1404 96 q 1465 310 1465 283 m 756 449 q 731 439 751 450 q 667 388 699 422 q 647 357 647 367 q 651 350 647 351 q 747 436 669 350 q 756 449 756 444 m 913 381 q 824 325 854 325 q 808 340 808 325 q 844 408 808 358 q 864 440 864 435 q 861 444 863 444 q 764 343 831 444 q 675 189 721 276 q 781 146 732 163 q 913 381 846 258 m 1210 750 q 764 821 1040 824 q 306 710 497 818 q 53 314 65 574 q 301 -54 42 88 q 585 -150 431 -125 q 631 -89 600 -131 q 775 138 658 -51 q 671 182 740 151 q 649 139 664 171 q 621 75 621 82 q 643 54 621 63 l 642 50 q 629 54 638 51 q 594 79 594 63 q 607 111 594 89 l 628 147 q 653 188 629 151 q 576 222 642 194 q 474 269 549 235 q 365 317 439 286 q 276 342 339 328 q 176 322 229 322 q 156 332 156 322 q 232 353 156 351 q 278 347 253 353 q 289 351 283 350 q 332 369 308 358 l 408 404 q 504 456 436 417 q 425 451 485 456 q 317 436 389 449 l 314 449 q 425 460 354 457 l 497 463 l 518 463 q 592 517 538 476 q 697 615 697 599 q 671 617 694 618 q 542 594 607 615 q 504 563 504 583 q 514 546 504 556 l 511 544 q 496 574 496 560 q 507 607 496 599 q 653 639 533 628 l 725 646 l 726 635 q 651 557 721 617 q 528 464 592 506 l 549 464 l 626 467 l 751 469 q 765 457 751 464 q 778 471 768 458 q 793 479 785 479 l 797 479 l 794 476 q 783 464 790 471 q 747 414 774 450 l 744 410 q 717 361 717 369 q 725 354 717 354 q 740 360 733 354 q 854 478 782 385 q 882 521 864 490 l 883 508 q 858 463 881 492 q 842 442 853 457 q 888 460 871 451 l 889 447 l 878 428 l 858 400 q 835 350 835 367 q 843 342 835 342 q 949 436 886 342 q 906 432 933 436 l 903 435 q 953 443 907 436 l 963 457 q 1008 521 976 476 q 1146 692 1090 636 q 1210 750 1169 715 m 779 379 q 706 336 725 336 q 693 349 693 336 q 711 388 693 360 l 701 381 q 633 335 650 335 q 618 349 618 335 q 654 397 618 371 q 699 428 671 410 q 753 458 708 433 q 708 460 732 460 q 667 460 667 460 q 624 458 610 458 q 579 458 579 458 q 553 457 578 458 l 538 457 q 515 456 525 456 q 410 397 488 438 l 292 346 q 476 281 360 333 q 582 231 479 279 q 658 196 625 210 l 668 211 q 758 349 717 288 l 779 379 m 267 344 q 239 347 256 347 q 163 333 163 347 q 179 328 163 328 q 267 344 221 328 m 1093 535 q 1090 528 1090 531 q 1092 526 1090 526 l 1092 522 q 1076 510 1092 510 q 1063 519 1063 510 q 1083 539 1072 539 q 1093 535 1089 539 z "},">":{"ha":313,"x_min":83,"x_max":321,"o":"m 321 158 q 315 146 321 150 q 117 -31 211 68 q 94 -42 106 -42 q 83 -35 83 -42 q 92 -24 83 -31 q 268 125 172 39 q 278 140 278 133 q 272 153 278 143 q 185 296 229 224 q 182 304 182 301 q 210 315 182 307 q 218 317 213 317 q 275 236 228 317 q 318 167 289 213 q 321 158 321 161 z "},"?":{"ha":381,"x_min":128,"x_max":557,"o":"m 557 519 q 428 338 557 431 q 303 246 392 313 q 279 199 279 224 q 328 144 279 156 q 333 139 333 143 q 326 132 333 132 l 325 132 q 313 133 321 132 l 288 133 q 275 132 279 132 l 272 132 q 233 157 249 132 q 218 207 218 182 q 219 214 218 210 l 219 219 q 264 254 222 233 q 321 282 283 264 q 483 438 451 365 q 499 500 499 472 q 477 560 499 538 q 418 583 456 583 q 271 483 331 583 q 263 481 269 481 q 257 485 257 481 q 258 489 257 486 q 357 583 292 544 q 451 613 404 613 q 497 604 474 613 q 557 519 557 583 m 210 33 q 169 1 210 15 q 157 -1 161 -1 q 128 28 128 -1 q 129 32 128 29 l 129 35 q 151 71 133 57 q 178 86 157 75 q 182 88 179 88 q 192 78 189 88 q 206 43 194 54 q 210 33 210 39 z "},"@":{"ha":808,"x_min":121,"x_max":914,"o":"m 914 465 q 868 318 914 396 q 608 144 767 144 q 533 206 533 144 q 574 335 533 249 q 369 156 429 156 q 346 186 346 156 q 364 251 346 211 q 450 379 394 319 q 575 464 513 446 q 636 472 604 472 q 685 465 661 472 q 689 460 689 465 q 683 449 689 453 q 653 410 668 439 q 589 269 614 336 q 581 225 581 247 q 643 163 581 163 q 721 186 679 163 q 867 424 836 251 q 871 463 871 447 q 813 588 871 543 q 678 628 761 628 q 654 626 674 628 q 394 525 521 618 q 190 246 238 410 q 176 151 176 197 q 234 1 176 57 q 386 -54 292 -54 q 539 -21 456 -54 q 639 42 583 -3 q 711 131 704 94 q 715 136 711 136 l 717 136 q 719 131 719 133 l 719 128 q 678 60 711 92 q 365 -78 533 -78 q 268 -62 314 -78 q 121 135 121 -14 q 149 254 121 194 q 367 524 224 417 q 690 640 521 640 q 729 639 715 640 q 860 589 810 631 q 914 465 914 543 m 639 458 q 622 460 633 460 q 560 438 586 460 q 401 221 457 351 q 396 199 396 208 q 406 186 396 186 q 429 199 415 186 q 597 390 514 276 q 639 458 613 411 z "},"A":{"ha":856,"x_min":31,"x_max":996,"o":"m 996 601 q 964 590 996 600 q 944 572 951 585 q 704 103 797 315 q 689 46 689 68 q 739 1 689 1 q 850 46 782 1 q 858 49 856 49 q 864 44 864 49 q 857 38 864 42 q 678 -28 754 -28 q 611 26 611 -28 q 669 165 611 56 q 744 303 707 233 l 718 303 q 418 289 554 303 q 233 161 283 199 q 71 10 131 83 q 43 -39 50 -15 q 38 -46 42 -46 q 31 -36 31 -46 q 33 -10 31 -28 q 36 17 36 8 q 89 75 36 35 q 394 292 218 174 q 390 299 393 293 q 383 336 383 319 q 388 344 383 344 q 413 332 400 338 q 447 325 421 328 q 647 453 582 414 q 838 574 732 503 q 860 593 839 574 q 882 606 874 606 q 902 604 889 606 q 922 603 915 603 q 956 604 944 603 l 989 608 q 996 601 996 608 m 863 556 q 858 561 863 561 q 850 558 856 561 q 646 438 772 517 q 469 324 539 369 q 750 314 600 314 q 863 556 863 531 z "},"B":{"ha":651,"x_min":92,"x_max":729,"o":"m 729 489 q 717 440 729 468 q 535 307 671 339 q 532 303 532 307 q 535 300 532 300 q 672 193 672 276 q 633 89 672 142 q 550 14 600 43 q 371 -29 478 -29 q 204 7 265 -29 q 172 18 185 18 q 158 15 167 18 q 108 -11 125 0 q 99 -15 103 -15 q 92 -10 92 -15 q 96 -1 92 -6 q 121 32 110 13 q 290 333 217 199 q 418 585 418 571 q 410 590 418 590 q 328 581 382 590 q 249 572 275 572 q 235 574 239 572 q 226 588 226 575 q 229 604 226 593 q 233 610 232 610 q 239 606 238 608 q 294 599 246 599 q 376 600 346 599 q 476 603 438 603 q 710 543 663 603 q 729 489 729 518 m 663 501 q 538 589 663 589 q 486 569 501 589 q 344 332 432 503 q 221 83 283 208 q 213 58 214 69 q 219 38 213 47 q 346 -15 260 -18 q 596 149 525 -11 q 611 210 611 183 q 571 276 611 253 q 490 296 538 294 q 453 291 478 296 q 417 286 429 286 q 397 301 396 286 q 413 317 397 317 q 442 313 422 317 q 471 308 461 308 q 596 361 535 308 q 663 501 663 418 z "},"C":{"ha":707,"x_min":124,"x_max":808,"o":"m 808 549 q 803 531 808 539 q 760 444 786 506 q 750 435 756 435 q 746 440 746 435 q 750 458 746 444 q 754 481 754 472 q 585 607 754 607 q 308 410 450 607 q 186 103 186 239 q 335 -12 186 -12 q 738 233 561 -12 q 743 238 742 238 q 749 218 749 238 q 738 185 749 201 q 563 30 669 85 q 332 -25 456 -25 q 124 140 124 -25 q 196 358 124 242 q 351 533 261 464 q 594 619 461 618 q 796 571 713 621 q 808 549 808 564 z "},"D":{"ha":740,"x_min":90,"x_max":843,"o":"m 843 414 q 766 190 843 300 q 583 32 689 79 q 363 -11 486 -11 q 190 24 256 -11 q 167 31 178 31 q 126 15 154 31 q 94 0 99 0 q 90 4 90 0 q 116 42 90 7 q 144 82 142 76 q 296 344 194 169 q 424 582 424 567 q 413 589 424 589 q 326 580 383 589 q 240 571 269 571 q 215 593 215 571 q 222 611 215 611 q 240 603 208 611 q 281 596 271 596 q 344 599 294 596 q 414 601 372 600 l 547 606 q 843 414 843 606 m 776 422 q 697 558 776 514 q 536 593 635 593 q 493 576 504 593 q 214 82 335 326 q 208 65 208 71 q 217 49 208 57 q 361 0 264 0 q 685 161 571 0 q 776 422 776 290 z "},"E":{"ha":669,"x_min":128,"x_max":751,"o":"m 751 601 q 750 590 751 592 q 728 560 728 560 q 719 567 724 560 q 710 575 715 574 q 517 588 640 588 q 483 574 494 588 q 338 339 419 490 q 346 326 331 326 q 424 325 393 325 q 538 328 501 325 q 625 346 592 332 l 631 346 q 636 342 636 346 l 633 336 q 619 308 629 324 q 610 306 615 306 q 447 308 499 308 q 331 307 382 308 q 315 299 319 307 q 225 122 254 190 q 211 67 211 90 q 310 1 211 1 q 558 39 419 1 q 688 93 639 61 q 694 96 693 96 q 699 92 699 96 q 665 51 686 79 q 625 26 656 33 q 297 -14 444 -14 q 197 -10 222 -14 q 128 43 128 1 q 143 96 128 68 q 207 208 146 101 q 261 306 261 303 q 243 311 261 311 q 231 318 231 311 q 247 328 231 325 q 294 361 279 332 q 408 581 408 571 q 400 586 408 586 q 267 578 313 586 q 251 572 258 576 l 244 567 q 240 572 240 567 q 247 597 240 571 q 261 606 250 606 q 433 600 400 600 q 642 607 447 600 q 719 608 681 608 l 743 608 q 751 601 751 608 z "},"F":{"ha":513,"x_min":88,"x_max":715,"o":"m 715 632 q 708 617 715 629 q 699 601 700 606 q 682 588 694 588 q 468 581 585 586 q 444 564 454 581 q 317 328 399 489 q 314 318 314 319 q 397 296 314 296 q 569 317 490 296 q 576 318 572 318 q 583 311 583 318 q 557 286 583 288 q 393 283 500 283 q 351 285 379 283 q 308 288 322 288 q 290 276 296 288 q 232 168 242 188 q 183 56 200 106 q 179 35 179 43 q 215 8 179 14 q 250 0 250 1 q 240 -7 250 -7 l 142 -7 q 88 17 88 -4 q 93 36 88 26 q 219 256 129 97 q 306 413 282 368 q 376 575 354 507 q 367 582 376 579 q 315 585 342 585 q 306 592 306 585 q 318 597 306 597 q 375 597 375 597 q 414 596 388 597 q 442 596 433 596 q 605 616 501 596 q 710 636 708 636 q 715 632 715 636 z "},"G":{"ha":743,"x_min":128,"x_max":858,"o":"m 858 546 q 843 508 857 542 q 836 488 840 501 q 814 447 828 468 q 807 443 810 443 q 803 449 803 443 q 804 456 803 451 q 813 481 813 467 q 746 572 813 538 q 629 600 690 600 q 257 314 417 600 q 188 107 188 189 q 333 -6 188 -10 q 515 49 436 -3 q 708 256 669 149 q 713 271 713 264 q 697 281 713 281 q 649 278 681 281 q 601 275 618 275 q 589 283 589 275 q 601 290 589 290 l 621 290 q 708 296 657 290 q 815 311 783 304 l 819 311 q 828 307 828 311 q 818 299 828 300 q 775 260 788 289 q 681 50 728 154 q 558 -144 624 -69 q 268 -299 425 -299 q 196 -287 225 -299 q 189 -281 189 -285 q 194 -276 189 -276 q 199 -278 196 -276 q 268 -289 228 -289 q 453 -214 364 -289 q 579 -54 528 -151 q 653 118 618 21 q 647 129 657 129 q 640 125 644 129 q 333 -19 499 -17 q 192 14 247 -21 q 128 138 128 56 q 149 240 128 183 q 321 493 203 389 q 669 615 460 615 q 850 564 799 615 q 858 546 858 556 z "},"H":{"ha":807,"x_min":82,"x_max":1090,"o":"m 1090 703 q 1076 697 1090 697 q 910 590 986 697 q 760 336 825 471 q 667 71 667 142 q 725 17 667 17 q 814 44 772 17 q 821 47 819 47 q 828 42 828 47 q 746 6 828 28 q 643 -11 690 -10 q 593 39 593 -12 q 601 89 593 64 q 640 186 607 106 q 671 274 671 260 q 668 286 671 281 q 610 307 654 307 q 326 288 456 307 q 301 267 313 285 q 178 22 235 147 q 161 8 172 11 q 96 -12 122 0 l 88 -15 q 82 -10 82 -15 q 86 3 82 -4 q 249 269 174 138 q 254 285 254 279 q 245 302 254 290 q 236 319 236 314 q 249 329 236 329 l 272 329 q 286 340 281 329 q 385 564 385 544 q 339 589 385 589 q 308 587 329 589 q 278 585 288 585 q 269 593 269 585 q 281 601 269 601 q 356 603 340 601 q 475 613 389 606 q 483 604 483 613 q 481 594 483 600 q 425 501 451 550 q 340 336 379 417 l 338 328 q 344 321 338 321 l 433 318 q 688 331 582 318 q 708 346 701 332 q 860 621 754 433 q 878 636 867 631 q 1064 708 976 688 q 1069 710 1065 708 l 1074 710 q 1090 703 1090 710 z "},"I":{"ha":303,"x_min":68,"x_max":500,"o":"m 500 599 q 492 592 500 594 q 463 556 476 588 q 396 413 425 471 q 183 15 275 169 q 135 -19 165 -15 q 75 -24 139 -19 q 68 -19 68 -24 q 75 -12 68 -14 q 104 8 90 -11 q 324 390 193 132 q 394 563 394 531 q 369 581 394 578 l 354 581 q 288 576 313 581 q 275 582 275 572 q 288 592 275 592 q 392 599 336 593 q 489 607 469 607 q 500 599 500 607 z "},"J":{"ha":451,"x_min":-175,"x_max":676,"o":"m 676 607 q 667 601 671 601 q 658 603 664 601 l 640 603 q 633 601 635 601 q 617 590 624 599 q 499 369 596 561 q 399 178 419 213 q 274 4 335 65 q -53 -154 115 -154 q -161 -136 -118 -154 q -175 -117 -175 -131 q -174 -58 -175 -89 q -169 -50 -174 -51 q -165 -56 -165 -51 q -89 -132 -156 -115 q -28 -139 -61 -139 q 49 -129 15 -139 q 365 238 188 -89 q 535 586 476 442 q 536 593 536 589 q 528 600 536 600 q 278 547 369 600 q 218 469 218 513 q 224 442 218 453 l 224 439 q 221 435 224 435 q 217 439 219 435 q 204 483 204 460 q 299 583 204 553 q 517 611 363 604 q 668 614 578 614 q 676 607 674 614 z "},"K":{"ha":692,"x_min":85,"x_max":1211,"o":"m 1211 -154 q 1206 -161 1210 -157 q 978 -218 1118 -218 q 565 6 765 -218 q 339 281 464 119 q 336 286 336 283 q 342 294 336 292 q 618 467 461 363 l 831 608 q 849 614 839 614 q 865 610 854 614 q 880 606 875 607 q 885 600 885 606 q 853 583 883 600 q 586 428 738 522 q 410 311 469 354 q 404 303 404 307 q 500 179 404 293 q 614 47 575 90 q 729 -68 664 -7 q 906 -189 832 -162 q 1004 -204 949 -204 q 1200 -151 1124 -204 q 1206 -150 1201 -150 q 1211 -154 1211 -150 m 565 603 q 558 597 565 597 q 508 593 540 596 q 492 582 497 593 q 196 32 324 285 q 188 10 192 21 q 179 -7 182 -7 q 170 -3 178 -7 q 154 0 163 0 q 113 -14 138 0 q 89 -28 89 -28 q 85 -24 85 -28 q 128 38 85 -26 q 192 140 164 90 q 314 371 231 210 q 415 586 415 568 q 408 590 415 590 q 335 586 383 590 q 263 582 288 582 l 261 582 q 247 594 247 582 q 249 600 247 596 l 260 622 q 267 628 263 626 q 269 622 268 628 q 276 613 269 615 q 354 604 307 606 l 390 603 q 556 610 393 603 q 565 603 565 610 z "},"L":{"ha":631,"x_min":42,"x_max":626,"o":"m 625 7 q 607 -42 621 -42 q 603 -35 603 -42 q 592 -14 603 -18 q 400 8 531 8 q 68 -18 188 8 q 57 -19 64 -19 q 42 -8 42 -19 q 76 8 42 8 q 164 47 132 8 q 311 300 224 119 l 444 574 q 465 590 450 585 q 610 615 531 615 q 624 606 624 615 q 613 596 624 596 q 592 598 606 596 q 572 600 579 600 q 440 436 528 600 q 299 165 401 361 q 247 85 269 110 q 169 29 221 57 q 158 17 158 24 q 165 14 158 14 q 449 35 224 17 q 550 38 482 38 q 603 35 592 38 q 625 7 626 29 z "},"M":{"ha":1099,"x_min":44,"x_max":1301,"o":"m 1301 604 q 1246 590 1301 600 q 1135 456 1213 585 q 963 115 1013 254 q 953 67 953 89 q 1011 13 953 13 q 1129 50 1054 13 q 1133 51 1131 51 q 1138 46 1138 51 q 1058 4 1138 32 q 949 -24 979 -24 q 875 33 875 -24 q 883 76 875 53 q 1024 368 929 204 q 1110 538 1074 453 q 1108 543 1113 543 q 1103 540 1106 543 q 968 425 1049 499 l 808 281 q 665 151 738 215 q 540 14 572 65 q 493 -12 536 7 q 464 -25 467 -25 q 456 -15 456 -25 q 535 218 456 -1 q 629 521 610 426 q 626 528 629 528 l 621 525 q 192 110 367 319 q 101 -40 114 17 q 100 -50 100 -44 q 103 -62 100 -56 q 107 -69 107 -69 q 100 -76 107 -76 q 72 -61 92 -76 q 53 -49 68 -57 q 44 -40 44 -47 q 86 25 44 -25 q 608 542 276 253 q 647 574 626 557 q 685 596 657 582 q 767 614 714 604 q 774 608 774 614 q 768 603 774 606 q 722 568 736 597 q 556 101 615 353 l 556 94 q 561 85 556 85 q 572 90 565 86 q 799 292 633 144 q 1114 575 885 371 q 1149 588 1125 585 q 1292 611 1196 599 q 1301 604 1301 611 z "},"N":{"ha":776,"x_min":13,"x_max":1094,"o":"m 1094 693 q 1090 690 1094 690 l 1078 690 q 939 586 1013 690 q 690 135 808 400 q 628 -7 672 94 q 619 -17 624 -17 q 607 -7 614 -17 q 382 482 472 225 q 367 500 375 500 q 349 483 360 500 q 71 -25 156 185 q 42 -154 42 -97 q 39 -162 42 -162 q 22 -133 32 -161 q 13 -96 13 -106 q 31 -33 13 -69 q 244 342 69 47 q 353 558 353 525 q 319 588 353 588 q 284 585 307 588 q 249 583 261 583 q 232 603 232 583 q 240 610 232 610 l 244 610 q 311 601 272 601 q 362 608 329 601 q 410 615 394 615 q 422 603 422 615 q 433 533 426 560 q 625 126 493 306 q 644 111 636 111 q 661 125 654 111 q 949 636 838 468 q 1051 722 1006 722 q 1079 713 1064 722 q 1094 693 1094 704 z "},"O":{"ha":794,"x_min":143,"x_max":890,"o":"m 889 442 q 740 110 886 256 q 408 -36 594 -36 q 143 154 143 -36 q 201 351 143 240 q 326 519 257 456 q 626 628 444 628 q 803 589 733 628 q 889 442 890 540 m 817 453 q 628 617 817 617 q 379 500 483 617 q 267 331 315 428 q 213 139 213 219 q 397 -24 213 -24 q 692 135 561 -24 q 817 453 817 285 z "},"P":{"ha":626,"x_min":139,"x_max":788,"o":"m 788 490 q 729 360 788 422 q 607 281 676 304 q 475 257 538 257 q 415 268 443 257 q 411 274 411 269 q 417 276 413 276 q 444 273 425 276 q 474 269 464 269 q 700 415 625 269 q 721 504 721 456 q 601 603 721 603 q 511 572 529 603 q 243 101 319 251 q 228 51 228 71 q 304 4 228 4 l 325 4 q 332 0 332 4 q 325 -6 332 -4 q 207 -15 272 -15 q 139 18 139 -15 q 146 43 139 28 q 258 243 165 88 q 404 501 319 346 q 438 581 438 563 q 431 586 438 586 l 431 586 q 344 580 401 586 q 257 574 286 574 q 231 589 231 574 q 239 610 231 596 q 244 615 242 615 q 249 610 247 614 q 331 596 253 596 q 460 601 393 596 q 538 610 471 603 q 611 615 588 615 q 788 490 788 615 z "},"Q":{"ha":775,"x_min":97,"x_max":915,"o":"m 915 -65 q 914 -72 915 -69 q 876 -126 910 -81 q 717 -229 803 -229 q 560 -99 626 -229 l 508 1 q 379 -21 442 -21 q 204 35 264 -21 q 192 25 197 28 q 110 -58 149 -10 q 101 -64 104 -64 q 97 -60 97 -64 q 101 -50 97 -56 q 197 42 139 -6 q 151 164 151 92 q 214 354 151 247 q 339 514 265 443 q 586 615 443 615 q 597 608 597 615 q 589 603 597 603 q 581 604 586 603 l 572 604 q 489 579 528 604 q 240 249 310 464 q 221 140 221 188 q 235 69 221 99 q 400 122 319 122 q 528 69 479 122 q 554 35 540 56 q 572 46 558 38 q 724 209 664 106 q 785 418 785 313 q 688 600 785 579 q 681 604 681 603 q 688 607 682 607 q 715 607 715 607 q 743 606 754 606 q 782 594 768 606 q 842 450 842 544 q 676 108 842 269 q 561 25 622 56 q 614 -62 588 -19 q 672 -144 646 -115 q 757 -190 714 -190 q 903 -65 840 -190 q 910 -60 907 -60 q 915 -65 915 -60 m 503 11 q 472 56 482 43 q 432 89 454 78 q 371 103 406 103 q 240 60 311 103 q 394 -8 279 -8 q 503 11 449 -8 z "},"R":{"ha":725,"x_min":96,"x_max":1197,"o":"m 1192 -125 q 1186 -132 1192 -131 q 988 -183 1088 -182 q 732 -112 835 -185 q 556 93 644 -51 q 440 290 522 150 q 436 301 436 297 q 469 314 436 310 q 510 315 489 314 q 653 364 596 324 q 719 493 719 414 q 675 572 719 544 q 583 596 638 596 q 535 578 550 596 q 371 321 483 517 q 210 26 283 167 q 158 2 199 6 q 107 -22 117 -1 q 101 -26 106 -26 q 96 -21 96 -26 q 128 32 96 -14 q 190 126 167 88 l 328 350 q 453 572 413 488 q 456 583 456 581 q 446 589 456 589 q 288 539 371 585 q 211 461 233 508 q 204 454 208 454 q 199 460 199 454 q 206 481 199 461 q 214 508 213 500 q 231 532 214 522 q 569 611 371 611 q 797 500 797 611 q 742 394 797 444 q 636 331 697 353 q 521 304 583 311 q 514 299 514 304 q 515 293 514 297 q 672 49 582 171 q 1019 -165 831 -165 q 1126 -143 1056 -165 q 1188 -121 1197 -121 q 1192 -125 1192 -121 z "},"S":{"ha":465,"x_min":33,"x_max":621,"o":"m 621 578 q 615 556 621 569 q 606 535 607 538 q 589 500 596 500 q 583 506 583 500 q 585 515 583 508 q 588 526 588 522 q 551 583 588 564 q 481 600 521 600 q 386 566 422 600 q 350 474 350 532 q 376 382 350 432 q 454 271 410 338 q 479 193 479 233 q 429 78 479 135 q 326 1 386 29 q 179 -28 263 -28 q 51 -3 103 -28 q 33 25 33 6 q 36 42 33 32 q 58 122 40 71 q 64 125 60 125 q 68 118 68 125 l 68 115 q 64 94 64 107 q 108 13 64 40 q 201 -12 144 -12 q 304 8 260 -12 q 411 154 411 58 q 371 253 411 200 q 328 311 358 269 q 294 408 294 360 q 354 551 294 482 q 528 632 424 632 q 613 599 583 632 q 621 578 621 589 z "},"T":{"ha":576,"x_min":104,"x_max":940,"o":"m 940 694 q 935 675 940 685 q 751 600 894 604 q 657 599 724 600 q 628 585 636 597 q 379 138 504 388 q 354 57 354 88 q 449 0 354 0 q 463 1 454 0 l 476 1 q 483 -3 483 1 q 472 -11 483 -11 q 379 -14 397 -14 q 324 -12 339 -14 q 264 35 264 -7 q 283 89 264 56 q 549 592 385 263 q 539 599 549 599 l 496 599 q 354 590 413 599 q 163 471 228 572 q 121 392 136 429 q 110 381 117 381 q 104 388 104 381 q 150 474 108 396 q 196 547 175 519 q 311 606 231 592 q 444 613 353 613 l 526 613 l 608 611 l 668 611 q 813 635 744 611 q 906 731 906 668 q 904 739 906 735 q 903 744 903 743 q 907 750 903 750 q 911 747 910 750 q 936 711 926 729 q 940 694 940 706 z "},"U":{"ha":856,"x_min":128,"x_max":1008,"o":"m 1008 614 q 1003 608 1008 608 q 974 592 985 606 q 763 260 857 449 q 694 64 694 124 q 754 0 694 0 q 831 18 788 0 q 872 38 831 18 q 881 31 881 38 q 875 24 881 25 q 706 -21 775 -21 q 614 50 614 -21 q 669 189 614 101 l 669 192 q 668 194 669 193 q 596 147 633 194 q 531 74 547 85 q 276 -15 396 -15 q 175 11 215 -15 q 128 100 128 42 q 183 243 128 150 q 272 372 192 256 q 390 557 358 499 q 396 574 396 567 q 375 586 396 586 q 347 586 347 586 q 311 585 301 585 q 293 586 304 585 l 278 586 q 267 594 267 586 q 276 603 267 603 l 388 599 q 460 601 415 599 q 526 610 482 606 q 533 604 533 610 q 525 597 533 599 q 242 229 443 581 q 207 115 207 168 q 318 18 207 18 q 524 86 421 18 q 715 283 646 167 q 868 558 761 365 q 917 601 886 592 q 1000 622 978 622 q 1008 614 1008 622 z "},"V":{"ha":721,"x_min":142,"x_max":1028,"o":"m 1028 679 q 1022 657 1028 667 q 914 535 1003 624 q 588 219 729 351 q 475 113 550 185 q 375 -1 400 42 q 349 -19 368 -14 q 313 -29 329 -24 q 281 -36 288 -36 q 275 -31 275 -36 q 283 -8 275 -25 q 292 13 290 10 q 371 406 351 206 q 374 443 374 435 q 368 499 374 476 q 267 581 347 581 q 157 540 197 581 q 149 535 151 535 q 142 542 142 535 q 222 590 142 558 q 347 615 286 615 q 442 511 442 615 q 426 363 442 450 q 382 69 400 210 q 388 61 382 61 q 394 64 392 61 q 579 232 447 111 q 964 651 851 488 q 989 708 989 688 q 986 718 989 713 l 986 725 q 990 731 986 731 q 1001 726 996 731 q 1028 679 1028 707 z "},"W":{"ha":1069,"x_min":117,"x_max":1465,"o":"m 1465 675 q 1460 671 1465 671 q 1451 672 1457 671 l 1442 672 q 1275 581 1383 672 q 1019 331 1150 475 q 768 10 844 136 q 735 -12 761 -3 q 696 -28 700 -24 q 686 -32 688 -32 q 678 -24 678 -32 q 689 18 683 -11 q 704 458 704 219 q 694 478 704 478 q 681 471 690 478 q 206 -1 363 178 q 181 -15 194 -14 q 156 -21 158 -19 q 122 -31 132 -31 q 117 -25 117 -31 q 118 -18 117 -21 q 168 94 138 18 q 251 329 192 151 q 319 553 317 524 q 299 574 321 574 q 261 568 286 574 q 226 563 236 563 q 219 568 219 563 q 226 575 219 574 q 386 607 306 590 q 413 614 390 608 q 418 615 415 615 q 425 610 425 615 q 421 601 425 606 q 374 499 407 589 q 238 81 303 306 l 238 78 q 240 74 238 74 q 247 76 243 74 q 781 585 424 246 q 790 589 785 589 q 801 581 801 589 q 794 572 801 575 q 781 549 783 567 q 763 282 763 406 l 763 214 q 764 71 763 125 q 769 61 764 61 q 775 67 771 61 q 1010 339 896 208 q 1294 632 1169 521 q 1414 697 1368 697 q 1463 681 1444 697 q 1465 675 1465 679 z "},"X":{"ha":744,"x_min":7,"x_max":943,"o":"m 943 608 q 933 592 943 597 q 538 343 740 475 q 567 151 563 167 q 667 17 599 17 q 783 71 714 17 q 789 72 785 72 q 793 68 793 72 q 789 61 792 63 q 601 -22 682 -22 q 503 119 521 -22 q 478 301 490 219 q 310 185 390 243 q 161 74 206 111 q 39 -60 71 -1 q 32 -83 32 -72 l 32 -89 q 28 -93 32 -93 q 7 -62 7 -93 q 10 -44 7 -51 q 163 101 28 4 q 475 317 328 221 q 447 482 450 472 q 344 588 415 588 q 218 549 276 588 q 211 546 213 546 q 207 550 207 546 q 213 558 207 554 q 422 615 317 615 q 519 493 507 615 q 536 357 524 450 q 910 628 732 490 q 914 636 914 632 q 912 640 914 638 q 910 646 910 643 q 915 650 910 650 q 933 634 924 650 q 943 608 943 618 z "},"Y":{"ha":635,"x_min":114,"x_max":1054,"o":"m 1054 675 q 1051 671 1054 671 q 1040 673 1049 671 q 1025 675 1031 675 q 901 626 982 675 q 515 288 714 514 q 471 218 492 261 q 411 76 436 147 q 399 32 404 54 q 378 -1 388 -4 q 357 1 367 1 q 292 -26 313 1 q 285 -29 290 -29 q 276 -21 276 -29 q 306 17 276 -26 q 433 365 433 206 q 265 569 433 569 q 163 529 204 569 q 124 481 146 507 q 118 479 121 479 q 114 483 114 479 q 117 492 114 488 q 318 610 194 610 q 447 559 403 610 q 492 424 492 508 q 482 308 492 354 q 488 299 481 299 q 494 301 492 299 l 554 357 l 654 451 q 817 601 781 571 q 996 711 946 711 q 1033 701 1013 711 q 1054 675 1054 690 z "},"Z":{"ha":642,"x_min":29,"x_max":954,"o":"m 954 83 q 886 -64 935 -8 q 742 -129 828 -129 q 403 -75 660 -129 q 217 -37 285 -50 q 39 -12 115 -18 q 29 -4 29 -11 q 39 1 29 1 q 103 25 75 1 q 411 294 208 113 q 678 558 590 454 q 689 578 689 571 q 661 589 689 589 q 379 575 504 589 q 263 536 293 565 q 253 531 257 531 q 250 539 250 531 q 272 579 257 564 q 296 590 276 585 q 533 600 368 596 l 819 606 q 832 599 832 606 q 813 584 832 597 q 792 569 793 571 q 494 301 700 490 q 206 17 339 158 q 199 3 199 7 q 211 -10 199 -6 q 622 -100 376 -61 q 696 -106 657 -106 q 943 86 901 -106 q 950 94 944 94 q 954 88 954 94 l 954 83 z "},"[":{"ha":469,"x_min":14,"x_max":631,"o":"m 631 692 q 622 686 631 686 l 574 686 q 529 686 519 686 q 490 671 499 685 q 108 -40 311 363 q 104 -54 104 -49 q 124 -68 104 -68 l 168 -68 q 254 -67 207 -68 q 265 -75 265 -67 q 254 -82 265 -82 q 200 -82 200 -82 q 168 -81 189 -82 q 144 -81 151 -81 q 119 -81 138 -81 q 85 -82 97 -82 q 24 -82 85 -82 q 14 -75 14 -82 q 40 -35 14 -61 q 422 668 281 385 q 426 688 424 671 q 436 697 428 697 q 476 696 450 697 q 515 694 501 694 q 568 696 533 694 q 621 697 603 697 l 622 697 q 631 692 631 697 z "},"\\":{"ha":511,"x_min":250,"x_max":575,"o":"m 575 -218 q 565 -228 575 -228 q 549 -217 556 -228 l 250 761 q 261 771 250 771 q 278 757 268 771 q 426 276 279 754 q 575 -218 575 -206 z "},"]":{"ha":489,"x_min":111,"x_max":732,"o":"m 732 690 q 706 650 724 678 q 338 -53 507 294 q 333 -71 338 -53 q 324 -82 332 -82 q 281 -81 310 -82 q 238 -79 251 -79 q 178 -81 218 -79 q 119 -82 139 -82 l 119 -82 q 111 -75 111 -82 q 119 -67 111 -67 l 174 -67 q 222 -68 240 -67 q 265 -51 257 -65 q 646 657 444 257 q 650 671 650 665 q 631 685 650 685 l 614 685 q 565 683 597 685 q 518 681 533 681 q 507 688 507 681 q 518 694 507 694 l 557 694 q 639 696 585 694 q 721 697 693 697 q 732 690 732 697 z "},"^":{"ha":556,"x_min":231,"x_max":547,"o":"m 272 368 l 231 368 l 371 647 l 406 647 l 547 368 l 504 368 l 389 597 l 272 368 z "},"_":{"ha":694,"x_min":0,"x_max":694,"o":"m 694 -69 l 0 -69 l 0 0 l 694 0 l 694 -69 z "},"`":{"ha":319,"x_min":126,"x_max":204,"o":"m 204 358 q 203 356 204 356 q 199 358 201 356 q 131 488 157 435 q 126 503 126 496 q 133 519 126 511 q 140 524 138 524 q 146 518 144 524 q 204 361 168 467 l 204 358 z "},"a":{"ha":351,"x_min":56,"x_max":501,"o":"m 501 193 q 499 186 501 190 q 393 67 457 125 q 258 -8 310 -8 q 206 54 206 -8 q 218 114 206 81 q 85 11 135 11 q 56 43 56 11 q 63 78 56 57 q 215 265 106 204 q 303 294 261 290 l 311 294 q 368 329 332 329 q 349 293 357 310 q 388 281 367 292 q 383 278 386 278 q 382 279 382 278 l 379 279 q 343 282 368 281 q 299 190 333 264 q 247 40 247 82 q 275 8 247 8 q 296 13 286 8 q 490 192 400 54 q 497 197 493 197 q 501 193 501 197 m 304 283 l 303 283 q 229 254 264 283 q 107 63 147 185 q 104 47 104 49 q 113 35 104 35 q 128 42 118 35 q 258 204 190 88 l 304 283 z "},"b":{"ha":369,"x_min":89,"x_max":815,"o":"m 815 882 q 810 853 815 861 q 804 850 807 850 q 799 856 799 850 q 800 858 799 857 l 800 861 q 776 882 800 875 q 747 886 763 886 l 735 886 q 575 813 657 886 q 372 539 493 740 q 146 72 182 221 q 142 46 142 54 q 167 8 142 8 q 222 47 192 8 q 282 219 282 124 l 282 221 q 275 257 282 243 q 274 263 274 258 q 283 282 274 272 q 315 313 314 313 q 322 303 322 313 l 322 292 q 353 228 322 251 q 425 204 383 204 q 499 222 457 204 l 539 239 q 543 236 543 239 q 538 229 543 231 q 381 179 444 179 q 307 217 326 179 q 263 71 306 140 q 140 -10 213 -10 q 89 47 89 -10 q 178 276 89 115 q 564 819 386 654 q 763 938 690 938 q 813 904 803 938 q 815 882 815 897 z "},"c":{"ha":283,"x_min":68,"x_max":435,"o":"m 435 194 q 431 186 433 189 q 217 6 315 44 q 142 -12 171 -12 q 68 54 68 -12 q 81 108 68 78 q 265 303 138 249 q 292 310 282 310 q 340 272 325 310 q 343 263 343 265 q 331 244 343 256 q 311 226 313 228 q 301 221 306 221 q 297 226 297 221 l 297 229 q 299 240 299 233 q 254 276 299 276 q 157 185 204 276 q 126 85 126 125 l 126 69 q 178 11 126 11 q 314 81 232 11 q 424 193 374 131 q 431 197 428 197 q 435 194 435 197 z "},"d":{"ha":385,"x_min":54,"x_max":915,"o":"m 915 888 q 907 869 915 885 q 897 850 899 854 q 888 840 894 840 q 879 843 885 840 q 832 854 858 854 q 747 831 783 854 q 603 672 683 789 q 260 57 379 351 q 244 -10 244 19 q 272 -44 244 -44 q 332 -22 294 -44 q 515 183 425 33 q 521 188 518 188 q 525 183 525 188 q 524 178 525 182 q 339 -32 432 29 q 258 -62 293 -62 q 207 1 207 -62 q 263 174 207 51 q 150 50 217 118 q 85 17 118 17 q 54 49 54 17 q 76 111 54 75 q 332 303 176 275 q 804 881 599 782 q 881 901 847 901 q 915 888 915 901 m 322 285 q 203 221 251 281 q 115 60 115 114 q 122 50 115 50 q 135 56 129 50 q 272 206 190 101 q 322 285 307 250 z "},"e":{"ha":285,"x_min":61,"x_max":415,"o":"m 415 164 q 413 158 415 161 q 285 42 360 92 q 126 -15 199 -15 q 61 43 61 -15 q 64 74 61 61 q 140 218 79 146 q 276 301 210 301 q 318 276 318 301 q 149 181 318 219 q 117 67 117 121 q 168 10 117 10 q 300 63 228 10 q 404 164 360 106 q 411 168 406 168 q 415 164 415 168 m 267 268 q 254 285 267 283 q 253 286 253 285 l 250 286 q 215 269 235 286 q 154 190 181 239 q 265 261 253 210 q 267 265 265 263 l 267 268 z "},"f":{"ha":265,"x_min":-975,"x_max":869,"o":"m 869 999 q 857 888 860 949 q 851 882 857 882 q 847 886 847 882 l 847 886 l 847 888 q 849 908 847 894 q 851 928 851 921 q 843 956 851 950 q 772 979 811 979 l 763 979 q 497 763 642 979 q 301 394 450 690 q 247 290 293 378 l 308 290 q 374 290 374 290 q 411 289 388 290 q 439 289 431 289 q 444 285 444 289 l 443 281 q 325 275 440 278 q 243 274 264 274 l 240 274 q -150 -358 25 -135 q -825 -835 -522 -835 q -975 -725 -954 -835 l -975 -721 q -972 -715 -975 -715 q -967 -724 -968 -717 q -826 -821 -953 -821 q -456 -661 -650 -821 q -179 -354 -311 -542 q 67 60 -74 -203 q 182 272 124 168 q 68 267 90 272 l 67 267 q 65 265 67 265 q 61 269 61 265 q 136 289 61 289 l 153 289 q 168 288 164 288 l 190 288 q 463 740 329 538 q 801 1035 657 1035 l 807 1035 q 869 1004 869 1035 l 869 999 z "},"g":{"ha":340,"x_min":-756,"x_max":414,"o":"m 414 371 q 407 346 414 358 q 219 13 315 176 q -18 -387 151 -101 q -203 -632 -118 -557 q -462 -732 -317 -732 q -682 -665 -600 -732 q -756 -514 -756 -604 q -746 -458 -756 -485 q -739 -451 -743 -451 q -736 -456 -736 -453 l -736 -460 q -744 -511 -744 -485 q -671 -653 -744 -594 q -503 -706 -606 -706 q -42 -382 -256 -706 q 182 21 46 -249 q 250 150 221 99 q 142 21 203 89 q 79 -15 110 -15 q 50 19 50 -15 q 58 60 50 36 q 158 219 88 143 q 318 310 240 310 q 333 308 328 310 q 381 389 363 356 q 399 407 390 407 q 414 371 414 407 m 322 289 q 315 290 319 289 l 308 290 q 240 272 263 290 q 110 44 147 196 q 107 31 107 33 q 114 19 107 19 q 139 38 122 19 q 322 289 231 138 z "},"h":{"ha":378,"x_min":35,"x_max":979,"o":"m 979 915 q 975 867 979 897 q 971 861 974 861 q 967 865 967 863 q 921 940 965 913 q 833 964 883 964 q 517 751 683 964 q 190 208 361 553 q 267 269 228 242 q 353 310 325 310 q 365 300 365 310 q 353 275 365 292 q 254 86 293 192 q 246 46 246 64 q 288 1 246 1 q 413 74 335 1 q 511 185 475 132 q 517 188 513 188 q 519 185 519 188 q 517 178 519 182 q 346 10 435 64 q 240 -29 282 -29 q 192 21 192 -29 q 222 115 192 60 q 286 244 261 185 q 292 260 292 257 q 288 264 292 264 q 271 256 285 264 q 161 150 213 219 q 117 60 133 92 q 60 -11 81 -11 l 60 -11 q 39 -4 49 -11 q 35 6 35 0 q 39 21 35 13 q 508 763 272 453 q 857 1015 700 1015 q 943 990 908 1015 q 979 915 978 965 z "},"i":{"ha":251,"x_min":64,"x_max":393,"o":"m 328 492 q 313 458 328 475 q 281 442 297 442 q 264 458 264 442 q 278 493 264 476 q 310 510 292 510 q 328 492 328 510 m 393 183 q 390 176 393 181 q 235 32 324 90 q 125 -6 178 -6 q 64 42 64 -6 q 79 97 64 63 q 178 271 118 185 q 215 296 192 292 q 218 297 217 296 l 219 297 q 229 289 229 297 q 225 276 229 283 q 125 69 150 158 q 121 46 121 54 q 154 14 121 14 q 217 33 182 14 q 385 183 315 88 q 390 188 389 188 q 393 183 393 186 z "},"j":{"ha":272,"x_min":-254,"x_max":372,"o":"m 317 492 q 301 458 317 475 q 269 442 286 442 q 253 458 253 442 q 267 493 253 476 q 299 510 281 510 q 317 492 317 510 m 372 181 q 290 33 372 111 q -74 -303 161 -90 q -151 -394 -101 -328 q -232 -483 -199 -456 q -240 -486 -235 -486 q -254 -453 -254 -486 q -249 -432 -254 -443 q -167 -349 -228 -403 q -87 -254 -114 -301 q 163 246 22 -58 q 168 265 168 258 q 157 278 168 278 q 133 274 150 278 q 108 268 115 269 q 103 274 103 268 q 110 281 103 278 q 217 311 172 292 q 229 314 221 314 q 243 299 243 314 q 238 279 243 290 q 68 -43 174 150 q -86 -293 68 -43 q 132 -103 83 -147 q 322 110 261 18 q 356 200 356 160 q 347 231 356 221 l 344 236 q 347 239 344 239 q 372 181 372 239 z "},"k":{"ha":421,"x_min":26,"x_max":822,"o":"m 822 814 q 814 781 822 803 q 805 750 806 758 q 799 742 804 742 q 794 747 794 742 q 796 755 794 750 q 797 763 797 760 q 770 810 797 794 q 710 826 743 826 q 526 736 613 826 q 332 474 429 633 q 111 90 215 281 q 110 82 108 82 q 115 86 111 82 q 224 186 146 117 q 222 203 222 192 l 222 206 q 232 219 222 215 q 267 236 268 235 q 275 231 274 236 q 426 351 350 294 q 440 358 436 358 q 456 340 456 358 q 442 328 456 332 q 274 214 382 310 q 272 197 272 208 q 279 149 272 185 q 361 10 306 10 q 553 185 435 10 q 558 189 554 189 q 564 183 564 189 q 563 179 564 182 q 322 -21 414 -21 q 254 47 279 -21 q 226 172 243 78 q 139 75 188 136 q 60 -19 85 8 q 51 -24 57 -24 q 43 -21 46 -24 q 26 6 26 -4 q 32 21 26 10 q 136 194 72 82 q 238 371 207 322 q 474 698 357 563 q 694 858 592 833 q 747 867 729 867 q 796 854 775 867 q 822 814 822 839 z "},"l":{"ha":285,"x_min":61,"x_max":718,"o":"m 718 893 q 657 747 718 847 q 308 371 511 508 q 249 336 288 360 q 117 47 117 117 q 157 3 117 3 q 251 35 193 3 q 415 185 340 83 q 422 190 421 190 q 426 186 426 190 q 422 179 425 182 q 293 51 361 104 q 128 -18 201 -18 q 61 44 61 -18 q 89 133 61 85 q 233 378 129 199 l 250 407 q 424 694 342 567 q 536 826 475 775 q 674 914 608 888 q 693 918 683 918 q 718 893 718 918 m 654 857 q 638 879 654 879 q 607 863 624 879 q 436 629 546 801 q 279 386 392 561 q 260 354 269 368 q 306 383 283 368 q 610 726 504 526 q 653 844 640 785 q 654 857 654 849 z "},"m":{"ha":494,"x_min":46,"x_max":611,"o":"m 611 144 q 607 135 611 142 q 379 -31 464 -31 q 328 19 328 -31 q 336 60 328 39 q 407 206 360 103 q 410 219 410 211 q 403 228 410 228 q 386 221 399 228 q 304 153 344 197 q 254 89 286 133 q 219 29 244 68 q 207 21 213 21 q 195 28 201 21 q 189 42 189 36 q 194 61 189 53 q 261 201 247 142 q 263 208 261 199 q 257 217 263 217 q 249 213 253 217 q 103 56 167 156 q 69 4 93 42 q 60 -1 64 -1 q 46 28 46 -1 q 50 46 46 39 q 186 282 108 143 q 201 294 193 294 q 219 274 219 294 q 215 260 219 269 q 167 160 199 221 l 165 156 l 168 158 q 285 258 238 228 q 306 265 296 265 q 324 246 324 265 q 303 196 324 240 q 282 150 283 151 q 283 149 282 149 q 288 151 285 149 q 401 251 333 201 q 450 274 432 274 q 472 253 472 274 q 414 132 472 250 q 379 39 396 96 q 375 14 375 25 q 399 -14 375 -14 q 425 -7 410 -14 q 599 142 513 32 q 608 149 604 149 q 611 144 611 149 z "},"n":{"ha":368,"x_min":32,"x_max":511,"o":"m 511 186 q 508 179 511 183 q 322 6 426 67 q 225 -28 265 -28 q 182 13 182 -28 q 211 93 182 43 q 283 238 265 186 l 283 242 q 281 246 283 246 q 275 244 279 246 q 147 133 201 196 q 58 -12 121 83 q 49 -19 51 -19 q 38 -6 43 -19 q 32 15 32 8 q 39 38 32 25 q 111 149 64 74 q 186 294 140 210 q 197 301 190 301 q 211 294 203 301 q 219 282 219 288 q 167 171 219 292 q 340 304 258 253 q 349 307 346 307 q 365 292 365 307 q 358 275 365 285 q 244 63 278 156 q 239 36 239 47 q 272 1 239 1 q 311 13 289 1 q 501 188 425 71 q 507 190 503 190 q 511 186 511 190 z "},"o":{"ha":356,"x_min":60,"x_max":525,"o":"m 525 235 q 524 231 525 233 q 389 146 461 146 q 306 193 333 146 q 143 -4 225 35 q 101 -15 119 -15 q 61 39 63 -15 q 143 215 60 115 q 290 296 201 286 q 318 339 294 335 q 344 346 329 340 q 349 347 346 347 q 356 340 356 347 q 338 286 347 319 q 335 249 335 267 q 400 160 335 160 q 517 235 464 160 q 522 239 518 239 q 525 235 525 238 m 294 221 q 289 269 289 239 l 289 282 q 282 283 286 283 q 154 165 222 282 q 108 32 107 85 q 128 6 108 6 q 139 8 132 6 q 232 101 185 31 q 294 221 271 160 z "},"p":{"ha":306,"x_min":-494,"x_max":472,"o":"m 472 210 q 469 206 472 208 q 136 1 340 40 q 35 -18 135 0 q -115 -287 -10 -94 q -304 -647 -167 -389 q -401 -700 -321 -678 q -487 -724 -444 -712 l -489 -724 q -494 -719 -494 -724 q -487 -711 -494 -714 q -379 -644 -422 -683 q -301 -543 -344 -611 q 13 -18 -244 -454 q 4 -3 4 -14 q 28 10 4 6 l 92 114 q 175 263 114 156 q 272 403 214 331 q 333 419 286 419 q 342 414 342 419 q 338 407 340 410 q 176 218 242 317 q 300 306 260 306 q 332 269 332 306 q 328 247 332 260 q 86 14 279 106 q 106 17 89 14 q 461 211 335 49 q 468 214 463 214 q 472 210 472 214 m 275 242 q 258 263 275 263 q 192 221 235 263 q 139 160 157 188 q 51 11 132 149 q 256 183 200 79 q 275 242 275 219 z "},"q":{"ha":363,"x_min":-253,"x_max":517,"o":"m 517 206 q 514 199 517 203 q 233 -194 443 104 l 83 -408 q -224 -714 -131 -714 q -253 -682 -253 -714 q -217 -586 -253 -647 q 188 67 -112 -410 q 76 -4 129 -4 q 42 33 42 -4 q 53 79 42 56 q 150 213 86 150 q 292 292 224 282 q 328 294 310 294 q 415 438 381 383 q 447 471 436 471 q 460 458 460 471 q 457 451 460 456 q 358 290 415 374 q 408 242 408 279 q 406 235 408 235 q 393 247 399 235 q 350 279 383 269 q 328 247 346 272 q 128 -57 224 101 q -21 -307 13 -247 q -165 -587 -111 -467 q -183 -651 -183 -628 q -168 -672 -183 -672 q -99 -621 -143 -672 q 225 -186 14 -492 q 507 208 308 -65 q 511 211 510 211 q 517 206 517 211 m 319 283 q 178 192 251 283 q 96 61 124 124 q 86 28 86 40 q 96 15 86 15 q 129 29 106 15 q 288 224 201 72 q 319 283 289 226 z "},"r":{"ha":294,"x_min":33,"x_max":379,"o":"m 379 283 q 365 260 379 282 q 350 235 351 239 q 343 232 349 232 q 339 235 342 232 q 293 258 326 258 q 154 144 232 258 q 56 -3 121 96 q 47 -7 54 -7 q 33 14 33 -7 q 43 39 33 22 q 111 160 63 74 q 186 292 144 218 q 199 303 192 303 q 221 278 221 303 q 185 210 221 272 q 183 203 182 203 q 190 207 188 204 q 264 267 219 238 q 349 303 318 303 q 379 283 379 303 z "},"s":{"ha":261,"x_min":-3,"x_max":360,"o":"m 360 321 q 356 310 360 317 q 339 297 350 297 q 326 300 335 297 q 311 303 317 303 q 271 249 279 303 q 267 171 269 239 q 211 10 263 56 q 94 -40 154 -40 q 35 -23 65 -40 q -1 21 4 -6 q -3 25 -1 22 l -3 28 q 28 68 -3 43 q 36 71 31 71 q 38 68 38 71 q 35 61 38 68 q 32 47 32 54 q 44 10 32 35 q 107 -26 63 -26 q 214 107 197 -26 q 221 222 214 115 q 265 295 222 254 q 339 336 308 336 q 360 321 360 336 z "},"t":{"ha":276,"x_min":86,"x_max":397,"o":"m 397 511 q 393 506 397 508 q 347 476 361 496 q 228 288 281 383 q 388 290 276 288 q 394 285 392 289 q 388 276 392 276 q 218 268 306 275 q 154 125 181 197 q 143 67 143 94 q 189 18 143 18 q 300 60 228 18 q 306 61 301 61 q 310 57 310 61 q 306 51 308 53 q 153 -7 215 -7 q 86 57 86 -7 q 172 265 86 110 l 107 261 q 94 268 94 261 q 128 288 94 288 l 185 288 q 290 458 226 361 q 325 492 306 482 q 393 517 374 517 q 397 511 397 517 z "},"u":{"ha":356,"x_min":76,"x_max":510,"o":"m 510 171 l 507 165 q 250 -39 360 -39 q 203 13 203 -39 q 217 75 203 39 q 113 1 160 1 q 76 42 76 1 q 85 82 76 60 q 190 288 121 179 q 211 300 199 300 q 235 282 235 300 q 171 165 235 276 q 115 40 115 69 q 132 19 115 19 q 171 42 149 19 q 264 178 218 89 q 315 269 290 229 q 326 279 321 279 q 338 272 332 279 q 350 240 350 256 q 324 188 350 222 q 285 138 310 171 q 239 6 239 74 q 264 -25 239 -25 q 410 65 317 -25 q 500 172 464 118 q 506 176 501 176 q 510 171 510 176 z "},"v":{"ha":375,"x_min":81,"x_max":401,"o":"m 401 289 q 383 221 401 260 q 128 -53 300 43 q 115 -57 121 -57 q 94 -47 108 -57 q 81 -29 81 -36 l 118 -11 q 156 50 156 8 q 133 150 156 64 q 129 183 129 167 q 196 265 129 235 q 200 267 197 267 q 204 263 204 267 q 200 257 203 258 q 176 203 176 238 q 190 108 176 219 q 169 25 192 63 q 165 15 165 18 q 168 11 165 11 q 176 17 171 11 q 340 176 290 78 q 361 258 361 218 q 303 350 361 346 q 294 356 294 350 q 301 361 296 360 q 329 367 319 367 q 381 344 361 367 q 401 289 401 321 z "},"w":{"ha":485,"x_min":67,"x_max":682,"o":"m 682 254 q 679 249 682 251 q 543 169 613 169 q 460 213 494 169 q 340 21 422 72 q 276 -1 306 -1 q 225 60 225 -1 q 232 106 225 85 q 99 3 153 3 q 67 42 67 3 q 146 226 67 79 q 232 300 176 283 l 236 300 q 240 297 240 300 q 238 290 239 293 q 125 82 154 194 q 121 56 121 65 q 133 36 121 36 q 260 168 181 36 q 325 265 301 265 q 335 263 332 265 q 346 243 346 256 q 338 219 346 232 q 267 74 288 142 q 263 49 263 60 q 292 17 263 17 q 399 113 351 17 q 439 249 432 179 q 425 306 425 283 q 458 339 425 339 q 468 331 468 339 q 558 182 476 182 q 672 256 611 182 q 678 258 674 258 q 682 254 682 258 z "},"x":{"ha":381,"x_min":-149,"x_max":497,"o":"m 497 129 l 494 124 q 374 -4 446 53 q 217 -75 285 -75 q 131 24 142 -75 q -82 -257 -6 -124 q -118 -346 -107 -301 q -124 -354 -119 -354 q -132 -344 -129 -354 q -149 -303 -149 -297 q -139 -281 -149 -296 q 0 -104 -90 -206 q 129 40 57 -40 l 129 54 q 132 106 129 83 q 174 263 142 185 q 231 311 182 283 q 233 313 232 313 q 238 308 238 313 q 236 303 238 307 q 181 94 185 210 q 393 306 313 232 q 401 310 397 310 q 406 303 406 310 l 406 297 q 392 271 401 279 q 179 76 268 169 l 179 68 q 257 -44 179 -44 q 333 -19 290 -44 q 488 129 424 32 q 493 133 492 133 q 497 129 497 132 z "},"y":{"ha":322,"x_min":-536,"x_max":365,"o":"m 365 286 q 361 271 365 278 q 269 140 322 203 q 178 7 235 99 q -282 -568 -121 -478 q -414 -606 -349 -606 q -536 -497 -536 -606 q -532 -458 -536 -492 q -528 -453 -531 -453 q -525 -457 -525 -453 q -479 -532 -524 -504 q -390 -556 -440 -556 q -74 -342 -240 -556 q 74 -133 17 -226 l 190 56 q 192 58 192 57 l 190 58 q 186 57 189 58 q 103 21 142 21 q 64 53 64 21 q 71 82 64 65 q 135 193 86 118 q 171 249 136 196 q 188 263 179 261 q 205 267 196 265 q 217 269 214 269 q 222 265 222 269 q 219 258 222 263 q 153 149 192 215 q 114 54 114 83 q 128 39 114 39 q 189 69 154 39 q 219 111 204 83 q 294 247 240 151 q 350 319 335 319 q 353 312 351 319 q 360 299 356 304 q 365 286 365 294 z "},"z":{"ha":361,"x_min":-19,"x_max":785,"o":"m 785 -51 q 767 -94 781 -74 q 549 -203 696 -203 q 461 -192 507 -203 q 149 -47 313 -156 q 56 19 103 -17 q 47 24 51 24 q -6 -8 43 24 q -11 -10 -7 -10 q -19 0 -19 -10 q -14 8 -19 7 q 296 215 128 76 q 299 219 299 218 q 294 224 297 224 l 293 224 q 292 222 293 222 q 213 206 242 206 q 156 249 156 206 q 172 291 156 265 q 204 317 189 317 q 211 310 211 317 l 211 308 q 210 307 210 308 q 203 276 203 289 q 260 226 203 226 q 336 254 294 226 q 390 299 354 267 q 399 301 393 301 q 407 294 407 301 q 400 282 407 288 q 107 56 306 206 q 100 47 100 51 q 107 40 100 44 q 308 -79 232 -35 q 579 -187 496 -187 q 775 -49 703 -187 q 782 -44 776 -44 q 785 -49 785 -46 l 785 -51 z "},"{":{"ha":368,"x_min":72,"x_max":626,"o":"m 626 683 q 618 679 625 679 q 608 681 615 679 q 596 683 600 683 q 499 622 553 683 q 378 460 438 542 q 232 335 299 358 q 226 329 226 333 q 229 325 226 328 q 261 272 261 310 q 214 147 261 238 q 157 42 194 113 q 124 -69 124 -24 q 174 -129 124 -129 q 182 -135 182 -129 q 172 -140 182 -140 q 102 -116 132 -140 q 72 -51 72 -92 q 110 49 72 -12 q 171 142 131 79 q 244 283 244 254 q 200 322 244 314 l 193 322 q 169 318 186 322 q 143 314 151 314 q 126 325 126 314 l 133 333 q 149 342 139 342 q 167 339 154 342 q 186 336 179 336 q 246 356 219 336 q 328 449 289 389 q 392 557 360 503 q 457 644 431 621 q 557 689 497 682 q 606 693 592 693 l 617 693 q 626 686 626 693 l 626 683 z "},"|":{"ha":308,"x_min":206,"x_max":247,"o":"m 206 -347 l 206 1042 l 247 1042 l 247 -347 l 206 -347 z "},"}":{"ha":368,"x_min":-57,"x_max":476,"o":"m 476 596 q 411 453 476 551 q 351 356 382 408 q 346 333 346 346 q 360 319 346 319 q 390 324 368 319 q 419 329 411 328 q 429 318 429 329 q 411 297 429 297 q 354 285 372 297 q 274 186 304 250 q 151 -25 197 29 q 61 -103 113 -71 q -50 -142 0 -142 q -57 -137 -57 -142 q -49 -132 -57 -133 q 154 58 57 -112 q 210 154 169 86 q 350 296 265 246 q 356 303 356 299 q 349 310 356 307 q 319 358 319 322 q 332 408 319 382 q 394 514 354 446 q 446 636 446 601 q 410 678 446 671 q 400 685 400 679 q 408 692 400 692 q 450 669 432 692 q 474 619 468 646 q 476 596 476 607 z "},"~":{"ha":556,"x_min":203,"x_max":556,"o":"m 528 242 l 556 214 q 460 149 507 149 q 378 175 431 149 q 294 201 326 201 q 231 144 253 201 l 203 172 q 299 238 238 238 q 383 214 329 238 q 461 186 447 186 q 528 242 492 186 z "},"":{"ha":306,"x_min":-10,"x_max":326,"o":"m 326 310 q 285 254 326 254 q 256 288 256 254 q 300 335 256 335 q 326 310 326 335 m 271 190 l 269 189 q 111 -196 183 -56 q 44 -239 89 -239 q -7 -229 15 -239 q -10 -224 -10 -228 q -6 -218 -10 -218 l -1 -218 q 28 -207 14 -218 q 258 192 114 -136 q 264 196 260 196 q 271 190 271 196 z "},"":{"ha":472,"x_min":54,"x_max":574,"o":"m 574 638 l 574 635 q 572 632 572 633 q 528 558 567 610 q 472 488 500 522 q 531 432 524 472 q 522 415 533 419 q 494 386 517 413 q 489 383 492 383 q 485 393 486 383 q 454 436 481 413 q 442 444 450 440 q 217 78 333 290 q 488 238 317 67 q 494 242 492 242 q 497 238 497 240 q 494 231 497 235 q 296 82 438 150 q 203 51 250 60 q 124 -104 179 8 q 76 -235 89 -175 l 76 -239 q 75 -243 75 -242 q 78 -260 75 -251 q 75 -267 78 -267 q 69 -262 71 -265 q 56 -237 63 -253 q 54 -226 54 -235 q 56 -215 54 -219 q 90 -135 72 -172 q 188 49 139 -37 l 171 49 q 90 114 90 49 q 136 246 90 164 q 319 450 211 378 q 444 490 381 490 l 457 490 q 540 611 465 503 q 564 639 550 625 l 569 642 q 574 638 574 640 m 429 450 q 389 457 408 457 q 325 439 353 457 q 219 325 268 401 q 154 142 154 222 q 204 79 154 89 q 429 450 310 268 z "},"":{"ha":640,"x_min":3,"x_max":664,"o":"m 664 557 q 649 506 664 553 q 643 499 646 499 q 639 506 640 499 q 549 550 624 550 q 375 415 451 550 q 310 303 346 363 q 402 307 340 303 q 494 311 464 311 l 497 311 q 519 294 519 311 q 510 286 519 286 l 499 286 q 423 290 474 286 q 347 293 372 293 l 325 293 q 303 292 311 292 q 211 194 283 258 q 164 115 164 153 q 167 114 164 114 l 168 114 q 221 119 192 119 q 311 103 267 119 q 428 29 326 97 q 529 -10 486 -10 q 625 38 578 -10 q 651 75 646 58 q 657 81 653 81 q 661 76 661 81 l 661 72 q 546 -40 639 19 q 494 -56 522 -56 q 338 32 436 -56 q 294 69 325 43 q 185 108 247 108 q 135 92 157 108 q 25 -24 114 76 q 17 -28 21 -28 q 3 -10 3 -28 q 11 11 3 3 q 131 106 44 46 q 258 258 206 158 l 275 290 q 210 285 231 288 q 193 283 204 283 q 167 296 167 283 q 176 303 167 303 l 192 303 q 207 301 201 301 q 236 303 196 301 q 265 303 236 303 l 282 303 q 354 421 326 383 q 607 583 472 583 q 664 557 664 583 z "},"":{"ha":540,"x_min":192,"x_max":646,"o":"m 604 324 q 551 458 604 401 q 419 515 497 515 q 288 459 342 515 q 233 324 233 403 q 288 188 233 244 q 419 132 342 132 q 551 189 497 132 q 604 324 604 246 m 561 500 l 611 551 l 646 517 l 596 465 q 646 324 646 407 q 596 182 646 240 l 646 131 l 611 96 l 561 147 q 419 96 499 96 q 276 147 339 96 l 226 96 l 192 131 l 242 182 q 192 324 192 243 q 242 465 192 404 l 192 517 l 226 551 l 276 500 q 419 551 339 551 q 561 500 499 551 z "},"":{"ha":569,"x_min":114,"x_max":840,"o":"m 840 615 q 831 603 840 610 q 675 500 786 575 q 449 306 569 426 q 444 299 444 301 q 450 296 444 296 q 505 298 468 296 q 560 300 542 300 l 560 300 q 568 294 568 300 q 554 285 568 285 q 436 283 489 285 q 400 229 424 283 l 400 226 q 399 224 399 225 q 406 221 399 221 l 407 221 q 465 223 426 221 q 522 225 503 225 q 531 219 531 225 q 519 210 531 210 q 401 207 468 210 q 386 197 390 207 q 311 42 369 163 q 307 29 307 36 q 326 17 307 19 l 338 17 q 349 15 344 15 q 372 17 357 15 q 396 18 388 18 l 397 18 q 407 8 407 18 q 399 1 407 1 l 397 1 q 367 3 388 1 q 338 4 347 4 q 179 -10 289 4 q 172 -11 176 -10 l 165 -11 q 146 0 146 -11 q 161 8 146 8 l 179 8 q 197 7 190 7 q 257 43 233 7 q 336 189 290 93 l 339 197 q 329 203 339 203 l 328 203 q 207 192 293 203 l 203 192 q 194 196 194 192 q 199 203 196 201 q 339 217 208 211 q 356 229 350 217 q 372 272 367 254 l 372 275 q 365 279 372 279 l 364 279 q 257 269 332 279 l 251 269 q 243 275 243 269 q 267 290 243 290 l 288 290 q 368 293 344 290 q 385 308 381 294 q 399 393 399 357 q 386 464 399 431 q 263 547 354 547 q 125 465 169 547 q 118 460 122 461 q 114 465 114 460 q 115 471 114 468 q 319 579 186 579 q 413 542 375 579 q 451 449 451 504 q 438 375 451 424 q 424 307 424 326 q 426 303 424 303 q 436 310 431 304 q 711 558 585 464 q 803 629 763 597 q 814 635 808 635 q 829 626 818 635 q 840 615 840 618 z "},"":{"ha":308,"x_min":289,"x_max":331,"o":"m 289 -243 l 289 243 l 331 243 l 331 -243 l 289 -243 m 289 451 l 289 938 l 331 938 l 331 451 l 289 451 z "},"":{"ha":418,"x_min":-50,"x_max":476,"o":"m 476 524 q 454 472 476 514 q 449 467 451 467 q 443 474 443 467 l 443 475 q 444 485 444 478 q 422 516 444 504 q 376 528 399 528 q 302 497 335 528 q 269 425 269 467 q 317 311 269 378 q 371 183 371 235 q 313 63 371 121 q 207 -101 313 -42 q 79 -136 143 -136 l 75 -136 q -15 -103 21 -136 q -50 -15 -50 -69 l -50 -4 q -37 71 -50 44 q -32 76 -35 75 q -29 71 -29 75 l -29 68 q -36 22 -36 33 q -32 -4 -36 10 q 82 -97 -8 -82 q 125 -101 107 -101 q 272 -18 235 -101 q 281 22 281 0 q 214 149 281 68 q 147 267 147 229 q 160 317 147 292 q 242 397 188 371 q 281 493 247 451 q 368 551 315 535 q 414 560 394 560 q 476 524 476 560 m 349 157 q 332 221 349 192 q 271 307 303 260 q 242 383 247 342 q 188 314 188 363 q 233 213 188 275 l 282 146 q 311 76 306 110 q 349 157 349 110 z "},"":{"ha":319,"x_min":79,"x_max":243,"o":"m 243 483 q 228 450 243 467 q 196 433 213 433 q 179 450 179 433 q 193 485 179 468 q 225 501 207 501 q 243 483 243 501 m 143 492 q 128 458 143 475 q 96 442 113 442 q 79 458 79 442 q 93 493 79 476 q 125 510 107 510 q 143 492 143 510 z "},"":{"ha":788,"x_min":156,"x_max":853,"o":"m 853 379 q 722 84 853 204 q 414 -36 590 -36 q 231 26 301 -36 q 156 204 156 93 q 287 501 156 376 q 590 625 418 625 q 782 562 711 625 q 853 379 853 499 m 817 383 q 755 553 817 493 q 582 613 693 613 q 306 492 419 613 q 193 207 193 371 q 263 43 193 107 q 433 -21 332 -21 q 710 96 603 -21 q 817 383 817 213 m 694 419 l 657 400 q 568 490 649 490 q 411 401 475 490 q 354 224 354 321 q 383 133 354 168 q 468 99 413 99 q 543 122 511 99 q 596 179 560 135 l 604 142 q 460 82 540 82 q 353 122 392 82 q 315 232 315 163 q 387 425 315 342 q 567 508 458 508 q 694 419 681 508 z "},"":{"ha":374,"x_min":108,"x_max":478,"o":"m 478 303 q 438 265 478 294 q 385 229 399 236 q 306 204 335 204 q 268 250 268 204 q 324 428 268 313 q 171 268 238 308 q 132 256 150 256 q 108 281 108 256 q 121 322 108 299 q 272 485 169 414 q 364 522 326 522 q 407 596 388 569 q 417 601 413 601 q 425 589 422 601 q 431 572 428 576 q 433 565 433 567 q 431 558 433 563 q 321 282 321 390 q 354 239 321 239 q 468 304 407 239 q 474 307 471 307 q 478 303 478 307 m 357 508 q 269 467 315 508 q 176 332 200 404 q 172 310 172 319 q 182 296 172 296 q 207 311 190 296 q 357 508 299 396 z "},"":{"ha":432,"x_min":142,"x_max":468,"o":"m 468 304 q 466 297 468 299 q 313 174 464 296 q 304 160 304 167 q 306 151 304 154 q 365 -7 336 72 q 350 -17 365 -11 q 331 -25 340 -21 q 326 -26 329 -26 q 316 -15 319 -26 q 290 58 313 -4 l 264 132 q 263 140 263 135 q 269 154 263 149 q 371 238 336 207 q 456 310 406 269 q 461 311 457 311 q 468 304 468 311 m 385 317 q 363 297 378 311 q 194 168 313 261 q 182 149 182 158 q 185 135 182 146 q 239 -22 203 82 q 229 -26 239 -26 q 197 -35 188 -35 q 188 -24 190 -35 q 142 133 165 61 l 142 136 q 151 149 142 142 q 204 190 153 150 q 379 326 376 326 q 385 319 385 326 l 385 317 z "},"":{"ha":990,"x_min":21,"x_max":944,"o":"m 21 324 l 21 400 l 944 400 l 944 0 l 868 0 l 868 324 l 21 324 z "},"":{"ha":569,"x_min":232,"x_max":672,"o":"m 672 482 q 590 306 672 375 q 399 236 507 236 q 282 271 326 236 q 232 379 232 310 q 317 558 232 485 q 504 629 397 629 q 672 482 672 629 m 650 471 q 501 619 650 619 q 328 549 401 619 q 256 379 256 478 q 300 282 256 318 q 408 246 344 246 q 578 310 506 246 q 650 471 650 375 m 557 521 q 453 440 557 453 q 533 325 481 401 q 506 318 518 325 q 424 446 472 388 l 425 449 l 438 449 q 502 469 474 449 q 531 525 531 490 q 485 557 531 557 l 474 557 q 358 321 433 488 q 328 317 343 321 q 451 565 393 439 q 469 567 457 565 l 486 567 q 557 521 557 567 z "},"":{"ha":317,"x_min":260,"x_max":429,"o":"m 429 493 q 403 433 429 458 q 342 407 376 407 q 283 430 307 407 q 260 488 260 453 q 286 548 260 522 q 347 574 313 574 q 406 551 382 574 q 429 493 429 528 m 411 493 q 347 557 411 557 q 299 536 319 557 q 278 488 278 515 q 342 424 278 424 q 390 444 369 424 q 411 493 411 465 z "},"":{"ha":556,"x_min":186,"x_max":572,"o":"m 358 247 l 358 386 l 400 386 l 400 247 l 572 247 l 572 206 l 400 206 l 400 67 l 358 67 l 358 206 l 186 206 l 186 247 l 358 247 m 186 0 l 186 42 l 572 42 l 572 0 l 186 0 z "},"":{"ha":446,"x_min":199,"x_max":511,"o":"m 511 346 q 508 342 511 344 q 399 299 463 299 q 367 303 385 299 q 306 322 357 306 q 251 338 260 338 q 208 313 244 338 q 203 310 207 311 q 199 314 199 310 q 278 368 200 318 q 351 419 328 400 q 404 488 394 456 q 406 499 406 492 q 364 538 406 538 q 314 518 333 538 q 308 515 311 515 q 304 521 304 515 q 308 526 306 525 q 394 557 369 557 q 453 513 453 557 q 414 454 453 485 q 296 369 335 392 l 294 368 q 354 342 294 360 q 449 321 424 321 q 501 349 481 321 q 506 351 503 351 q 511 346 511 351 z "},"":{"ha":446,"x_min":232,"x_max":456,"o":"m 456 517 q 403 453 456 488 q 383 440 397 450 q 382 439 382 440 q 428 410 400 433 q 436 379 436 396 q 397 301 436 340 q 318 250 358 261 q 288 246 303 246 q 233 283 242 246 q 232 294 232 286 q 239 315 232 315 q 242 308 242 314 q 300 264 242 264 l 306 264 q 370 290 343 267 q 397 349 397 313 q 347 410 397 410 l 344 410 q 326 404 335 410 q 317 399 318 399 q 313 403 313 399 q 317 408 314 407 q 386 454 365 435 q 415 506 415 481 q 381 540 415 540 q 331 521 356 540 q 326 519 329 519 q 324 522 324 519 q 326 528 324 525 q 406 557 367 557 q 456 517 456 557 z "},"":{"ha":319,"x_min":38,"x_max":274,"o":"m 274 546 q 269 539 274 543 q 47 379 188 476 q 40 376 42 376 q 38 379 38 376 q 42 385 38 381 l 256 557 q 263 560 261 560 q 274 546 274 560 z "},"":{"ha":694,"x_min":178,"x_max":785,"o":"m 682 365 l 318 -258 q 292 -336 292 -304 q 296 -365 292 -351 q 278 -311 278 -339 q 279 -306 278 -310 l 279 -300 q 217 -325 257 -325 q 178 -311 188 -325 q 201 -315 190 -315 q 393 -101 264 -315 l 453 -3 q 426 -4 442 -4 q 372 -3 386 -4 q 244 124 244 10 q 372 326 244 257 q 660 374 460 374 l 672 374 q 710 469 699 411 q 756 504 732 481 q 753 488 753 497 q 769 447 753 472 q 785 408 785 421 q 743 368 785 376 q 703 365 729 365 l 682 365 m 667 365 q 654 360 663 363 q 586 293 618 343 q 554 243 578 281 q 517 182 543 226 q 464 247 493 188 q 400 204 453 236 l 393 200 q 432 133 418 172 q 513 175 485 174 q 476 103 499 153 q 449 22 449 40 q 456 1 449 13 l 667 365 m 686 374 l 722 374 q 746 399 746 376 q 722 444 746 418 l 706 411 q 686 374 699 397 z "},"":{"ha":319,"x_min":76,"x_max":229,"o":"m 229 -10 q 225 -14 229 -12 q 174 -53 174 -28 q 192 -69 174 -61 q 218 -99 218 -82 q 200 -128 218 -112 q 97 -197 146 -174 q 88 -200 92 -200 q 76 -192 76 -200 q 83 -186 78 -189 q 176 -125 176 -158 q 142 -93 176 -118 q 132 -76 132 -86 q 169 -35 132 -60 q 221 -7 196 -17 l 224 -7 q 229 -10 229 -7 z "},"":{"ha":446,"x_min":219,"x_max":474,"o":"m 474 549 q 458 525 474 547 q 390 404 453 514 q 356 333 376 381 q 368 328 356 328 q 381 328 371 328 q 401 329 393 329 q 433 329 401 329 q 444 322 444 329 q 419 314 444 314 q 378 317 394 317 q 249 307 307 317 l 239 307 q 219 317 219 307 q 242 324 219 324 l 282 324 q 308 336 301 326 q 413 525 368 422 q 414 531 414 526 q 388 542 414 542 q 358 540 378 542 q 329 539 339 539 q 318 547 318 539 q 325 551 318 551 q 394 553 349 551 q 464 556 440 556 q 474 549 474 556 z "},"":{"ha":329,"x_min":142,"x_max":392,"o":"m 392 496 q 288 286 392 388 q 188 235 235 235 q 142 283 142 235 q 293 499 142 379 q 364 535 339 535 q 392 496 392 535 m 342 464 l 342 475 q 329 504 342 504 q 310 496 321 504 q 194 288 194 411 q 215 253 194 253 q 246 265 228 253 q 342 464 342 332 z "},"":{"ha":432,"x_min":83,"x_max":440,"o":"m 440 161 q 436 153 440 156 q 242 -10 318 67 q 231 -15 236 -15 q 224 -8 224 -15 q 231 3 224 -3 q 393 139 294 58 q 396 144 396 142 q 393 151 396 147 q 314 299 356 221 q 347 318 314 311 l 351 318 q 364 307 360 318 q 435 176 390 240 q 440 161 440 168 m 321 158 q 315 146 321 150 q 117 -31 211 68 q 94 -42 106 -42 q 83 -35 83 -42 q 92 -24 83 -31 q 268 125 172 39 q 278 140 278 133 q 272 153 278 143 q 185 296 229 224 q 182 304 182 301 q 210 315 182 307 q 218 317 213 317 q 275 236 228 317 q 318 167 289 213 q 321 158 321 161 z "},"":{"ha":721,"x_min":117,"x_max":763,"o":"m 418 549 q 335 404 378 479 q 301 333 301 344 q 313 328 301 328 q 325 328 315 328 q 346 329 338 329 q 379 329 346 329 q 390 322 390 329 q 364 314 390 314 q 324 317 339 317 q 321 317 331 317 q 292 315 311 315 q 238 311 274 315 q 185 307 203 307 q 164 317 164 307 q 186 324 164 324 l 228 324 q 254 336 247 326 q 358 525 314 422 q 360 531 360 526 q 333 542 360 542 q 279 539 307 542 q 263 547 263 539 q 269 551 263 551 q 340 553 293 551 q 410 556 386 556 l 410 556 q 418 549 418 556 m 763 606 q 749 585 763 599 q 147 -61 442 271 q 125 -78 132 -78 q 117 -67 117 -78 q 131 -43 117 -58 q 728 597 372 213 q 751 613 742 613 q 763 606 763 613 m 681 110 q 674 87 681 103 q 663 71 668 71 q 660 75 660 72 q 661 79 660 76 q 663 85 663 82 q 657 92 663 92 q 572 97 619 97 q 542 25 557 64 q 538 6 538 15 q 539 -2 538 3 q 540 -8 540 -7 q 538 -12 540 -12 q 532 -10 535 -12 q 510 10 522 -3 q 506 22 506 15 q 536 96 506 35 q 440 90 510 93 l 411 89 q 401 97 401 89 q 407 106 401 101 q 654 281 489 169 l 660 283 q 665 276 664 283 q 583 122 628 218 l 640 122 q 674 119 654 122 q 681 110 681 119 m 611 242 q 457 128 522 186 q 453 122 453 126 q 461 119 453 119 q 506 121 476 119 q 549 122 535 122 q 611 242 592 208 z "},"":{"ha":721,"x_min":117,"x_max":763,"o":"m 417 549 q 401 525 417 547 q 333 404 396 514 q 299 333 319 381 q 311 328 299 328 q 324 328 314 328 q 344 329 336 329 q 376 329 344 329 q 388 322 388 329 q 369 314 388 314 q 345 315 361 314 q 321 317 329 317 l 304 317 q 288 315 301 317 q 182 307 257 313 q 163 317 163 306 q 185 324 163 324 l 225 324 q 251 336 244 326 q 356 525 311 422 q 357 531 357 526 q 331 542 357 542 q 302 540 321 542 q 274 539 283 539 q 261 547 261 539 q 268 551 261 551 l 296 551 q 351 553 314 551 q 407 556 389 556 l 407 556 q 417 549 417 556 m 763 606 q 749 585 763 599 q 147 -61 442 271 q 125 -78 132 -78 q 117 -67 117 -78 q 131 -43 117 -58 q 728 597 372 213 q 751 613 742 613 q 763 606 763 613 m 689 42 q 686 36 689 38 q 578 -6 642 -6 q 544 -3 558 -6 q 439 31 490 8 q 431 33 433 33 q 419 29 428 33 q 388 7 417 28 q 382 6 385 6 q 378 8 378 6 q 382 15 378 11 l 457 64 q 543 125 519 104 q 583 193 583 160 q 543 233 583 233 q 507 222 526 233 l 488 211 q 483 215 483 211 q 507 232 483 219 q 572 251 543 251 q 631 207 631 251 q 593 149 631 178 q 475 65 517 90 q 472 63 474 65 q 475 60 472 61 q 626 17 564 17 q 679 43 658 17 q 685 46 681 46 q 689 42 689 46 z "},"":{"ha":721,"x_min":125,"x_max":771,"o":"m 771 606 q 757 585 771 599 q 156 -61 450 271 q 133 -78 140 -78 q 125 -67 125 -78 q 139 -43 125 -58 q 736 597 381 213 q 760 613 750 613 l 765 613 q 771 606 771 610 m 410 517 q 357 453 410 488 q 338 440 351 450 q 336 439 336 440 q 381 410 354 433 q 389 379 389 396 q 351 301 389 340 q 272 250 313 261 q 242 246 257 246 q 188 283 196 246 q 186 294 186 286 q 193 315 186 315 q 196 308 196 314 q 253 264 196 264 q 321 288 292 264 q 350 349 350 311 q 299 410 350 410 q 281 404 289 410 q 271 399 272 399 q 267 403 267 399 q 271 408 268 407 q 368 506 368 463 q 335 540 368 540 q 285 521 310 540 q 279 519 283 519 q 276 522 276 519 q 281 528 278 526 q 360 557 321 557 q 410 517 410 557 m 689 110 q 688 104 688 103 q 676 75 686 97 q 671 71 675 71 q 665 75 665 71 l 667 78 q 668 85 668 81 q 664 92 668 92 q 581 97 626 97 q 546 6 546 19 q 549 -6 546 0 l 549 -8 q 544 -12 549 -12 q 539 -10 542 -12 q 514 22 514 11 q 544 96 514 26 q 449 90 517 94 q 422 89 429 89 q 413 96 413 89 q 418 104 413 100 q 668 282 643 282 q 672 278 672 282 l 674 276 l 672 275 q 668 268 671 269 q 592 122 633 214 l 649 122 q 682 119 663 122 q 689 110 689 119 m 613 235 q 468 125 518 175 q 465 121 465 122 q 471 117 465 117 l 472 117 l 556 121 q 613 235 585 182 z "},"":{"ha":361,"x_min":-43,"x_max":386,"o":"m 386 336 l 386 332 q 385 328 385 329 q 338 276 379 294 q 332 275 336 275 q 323 287 325 275 q 313 313 321 299 q 306 329 306 326 q 344 361 306 349 q 358 364 353 364 q 386 336 386 364 m 296 156 l 296 150 q 294 143 294 146 q 276 122 292 128 q 193 81 232 106 q 17 -137 17 -32 q 96 -221 17 -221 q 244 -121 182 -221 q 251 -117 247 -117 q 257 -122 257 -117 q 256 -125 257 -124 q 157 -221 229 -176 q 64 -250 110 -250 q 17 -242 40 -250 q -43 -157 -43 -221 q 88 25 -43 -71 q 176 85 118 44 q 235 164 235 126 q 186 218 235 207 q 181 225 181 219 q 189 231 181 231 l 189 231 l 201 231 q 214 229 210 229 q 226 231 218 229 l 242 231 q 281 206 265 231 q 296 156 296 181 z "},"":{"ha":856,"x_min":31,"x_max":996,"o":"m 922 676 q 921 674 922 674 q 917 676 919 674 q 849 806 875 753 q 843 821 843 817 q 858 842 843 842 q 864 836 863 842 q 922 679 886 785 l 922 676 m 996 601 q 964 590 996 600 q 944 572 951 585 q 704 103 797 315 q 689 46 689 68 q 739 1 689 1 q 850 46 782 1 q 858 49 856 49 q 864 44 864 49 q 857 38 864 42 q 678 -28 754 -28 q 611 26 611 -28 q 669 165 611 56 q 744 303 707 233 l 718 303 q 418 289 554 303 q 233 161 283 199 q 71 10 131 83 q 43 -39 50 -15 q 38 -46 42 -46 q 31 -36 31 -46 q 33 -10 31 -28 q 36 17 36 8 q 89 75 36 35 q 394 292 218 174 q 390 299 393 293 q 383 336 383 319 q 388 344 383 344 q 413 332 400 338 q 447 325 421 328 q 647 453 582 414 q 838 574 732 503 q 860 593 839 574 q 882 606 874 606 q 902 604 889 606 q 922 603 915 603 q 956 604 944 603 l 989 608 q 996 601 996 608 m 863 556 q 858 561 863 561 q 850 558 856 561 q 646 438 772 517 q 469 324 539 369 q 750 314 600 314 q 863 556 863 531 z "},"":{"ha":856,"x_min":31,"x_max":1129,"o":"m 1129 842 q 1125 833 1129 838 q 903 674 1043 771 q 896 671 897 671 q 893 674 893 671 q 897 679 893 675 l 1111 851 q 1118 854 1117 854 q 1129 842 1129 854 m 996 601 q 964 590 996 600 q 944 572 951 585 q 704 103 797 315 q 689 46 689 68 q 739 1 689 1 q 850 46 782 1 q 858 49 856 49 q 864 44 864 49 q 857 38 864 42 q 678 -28 754 -28 q 611 26 611 -28 q 669 165 611 56 q 744 303 707 233 l 718 303 q 418 289 554 303 q 233 161 283 199 q 71 10 131 83 q 43 -39 50 -15 q 38 -46 42 -46 q 31 -36 31 -46 q 33 -10 31 -28 q 36 17 36 8 q 89 75 36 35 q 394 292 218 174 q 390 299 393 293 q 383 336 383 319 q 388 344 383 344 q 413 332 400 338 q 447 325 421 328 q 647 453 582 414 q 838 574 732 503 q 860 593 839 574 q 882 606 874 606 q 902 604 889 606 q 922 603 915 603 q 956 604 944 603 l 989 608 q 996 601 996 608 m 863 556 q 858 561 863 561 q 850 558 856 561 q 646 438 772 517 q 469 324 539 369 q 750 314 600 314 q 863 556 863 531 z "},"":{"ha":856,"x_min":31,"x_max":1022,"o":"m 1022 688 q 1006 657 1022 674 q 994 650 999 650 q 990 660 990 650 q 986 785 990 647 q 981 793 986 793 q 974 789 978 793 q 867 681 919 740 q 849 665 853 665 q 843 672 843 665 q 856 690 843 679 q 1003 826 903 740 q 1010 829 1008 829 q 1015 822 1015 829 q 1019 755 1015 800 q 1022 688 1022 710 m 996 601 q 964 590 996 600 q 944 572 951 585 q 704 103 797 315 q 689 46 689 68 q 739 1 689 1 q 850 46 782 1 q 858 49 856 49 q 864 44 864 49 q 857 38 864 42 q 678 -28 754 -28 q 611 26 611 -28 q 669 165 611 56 q 744 303 707 233 l 718 303 q 418 289 554 303 q 233 161 283 199 q 71 10 131 83 q 43 -39 50 -15 q 38 -46 42 -46 q 31 -36 31 -46 q 33 -10 31 -28 q 36 17 36 8 q 89 75 36 35 q 394 292 218 174 q 390 299 393 293 q 383 336 383 319 q 388 344 383 344 q 413 332 400 338 q 447 325 421 328 q 647 453 582 414 q 838 574 732 503 q 860 593 839 574 q 882 606 874 606 q 902 604 889 606 q 922 603 915 603 q 956 604 944 603 l 989 608 q 996 601 996 608 m 863 556 q 858 561 863 561 q 850 558 856 561 q 646 438 772 517 q 469 324 539 369 q 750 314 600 314 q 863 556 863 531 z "},"":{"ha":856,"x_min":31,"x_max":1086,"o":"m 1083 746 q 1067 701 1078 717 q 999 660 1036 660 q 954 678 976 660 q 906 722 942 690 q 875 736 890 736 q 842 722 860 736 q 814 692 838 719 q 785 665 790 665 q 781 669 781 665 q 857 750 781 693 q 893 764 875 764 q 940 738 911 764 q 982 697 961 718 q 1017 685 1000 685 q 1055 704 1039 685 q 1071 746 1071 724 q 1078 756 1071 756 q 1083 746 1086 756 m 996 601 q 964 590 996 600 q 944 572 951 585 q 704 103 797 315 q 689 46 689 68 q 739 1 689 1 q 850 46 782 1 q 858 49 856 49 q 864 44 864 49 q 857 38 864 42 q 678 -28 754 -28 q 611 26 611 -28 q 669 165 611 56 q 744 303 707 233 l 718 303 q 418 289 554 303 q 233 161 283 199 q 71 10 131 83 q 43 -39 50 -15 q 38 -46 42 -46 q 31 -36 31 -46 q 33 -10 31 -28 q 36 17 36 8 q 89 75 36 35 q 394 292 218 174 q 390 299 393 293 q 383 336 383 319 q 388 344 383 344 q 413 332 400 338 q 447 325 421 328 q 647 453 582 414 q 838 574 732 503 q 860 593 839 574 q 882 606 874 606 q 902 604 889 606 q 922 603 915 603 q 956 604 944 603 l 989 608 q 996 601 996 608 m 863 556 q 858 561 863 561 q 850 558 856 561 q 646 438 772 517 q 469 324 539 369 q 750 314 600 314 q 863 556 863 531 z "},"":{"ha":856,"x_min":31,"x_max":1064,"o":"m 1064 753 q 1049 719 1064 736 q 1017 703 1033 703 q 1000 719 1000 703 q 1014 753 1000 738 q 1046 769 1028 769 q 1064 753 1064 769 m 922 758 q 907 725 922 742 q 875 708 892 708 q 858 725 858 708 q 872 759 858 743 q 904 775 886 775 q 922 758 922 775 m 996 601 q 964 590 996 600 q 944 572 951 585 q 704 103 797 315 q 689 46 689 68 q 739 1 689 1 q 850 46 782 1 q 858 49 856 49 q 864 44 864 49 q 857 38 864 42 q 678 -28 754 -28 q 611 26 611 -28 q 669 165 611 56 q 744 303 707 233 l 718 303 q 418 289 554 303 q 233 161 283 199 q 71 10 131 83 q 43 -39 50 -15 q 38 -46 42 -46 q 31 -36 31 -46 q 33 -10 31 -28 q 36 17 36 8 q 89 75 36 35 q 394 292 218 174 q 390 299 393 293 q 383 336 383 319 q 388 344 383 344 q 413 332 400 338 q 447 325 421 328 q 647 453 582 414 q 838 574 732 503 q 860 593 839 574 q 882 606 874 606 q 902 604 889 606 q 922 603 915 603 q 956 604 944 603 l 989 608 q 996 601 996 608 m 863 556 q 858 561 863 561 q 850 558 856 561 q 646 438 772 517 q 469 324 539 369 q 750 314 600 314 q 863 556 863 531 z "},"":{"ha":856,"x_min":31,"x_max":1028,"o":"m 1028 751 q 1003 694 1028 718 q 946 669 979 669 q 893 721 893 669 q 918 778 893 753 q 975 803 943 803 q 1028 751 1028 803 m 996 601 q 964 590 996 600 q 944 572 951 585 q 704 103 797 315 q 689 46 689 68 q 739 1 689 1 q 850 46 782 1 q 858 49 856 49 q 864 44 864 49 q 857 38 864 42 q 678 -28 754 -28 q 611 26 611 -28 q 669 165 611 56 q 744 303 707 233 l 718 303 q 418 289 554 303 q 233 161 283 199 q 71 10 131 83 q 43 -39 50 -15 q 38 -46 42 -46 q 31 -36 31 -46 q 33 -10 31 -28 q 36 17 36 8 q 89 75 36 35 q 394 292 218 174 q 390 299 393 293 q 383 336 383 319 q 388 344 383 344 q 413 332 400 338 q 447 325 421 328 q 647 453 582 414 q 838 574 732 503 q 860 593 839 574 q 882 606 874 606 q 902 604 889 606 q 922 603 915 603 q 956 604 944 603 l 989 608 q 996 601 996 608 m 1008 747 q 971 783 1008 783 q 914 736 925 783 q 913 724 913 732 q 950 689 913 689 q 1007 736 996 689 q 1008 747 1008 740 m 863 556 q 858 561 863 561 q 850 558 856 561 q 646 438 772 517 q 469 324 539 369 q 750 314 600 314 q 863 556 863 531 z "},"":{"ha":1136,"x_min":31,"x_max":1222,"o":"m 1222 599 q 1204 561 1219 596 q 1197 557 1203 557 q 1192 564 1194 557 q 1179 572 1189 571 q 986 585 1107 585 q 953 571 964 585 q 800 321 907 511 q 949 321 938 321 q 1096 343 1039 325 l 1101 343 q 1106 340 1106 343 q 1100 329 1106 339 q 1094 314 1094 319 q 1081 303 1092 303 l 1079 303 q 1009 304 1056 303 q 939 306 963 306 q 865 306 865 306 l 790 304 q 696 119 728 193 q 682 64 682 88 q 779 -1 682 -1 q 1029 36 892 -1 q 1157 90 1108 57 q 1164 93 1163 93 q 1168 89 1168 93 q 1135 49 1156 76 q 1094 24 1125 31 q 767 -17 914 -17 q 667 -12 692 -17 q 597 40 597 -1 q 614 93 597 61 q 733 303 636 135 q 422 294 618 301 q 236 165 274 194 q 71 13 132 88 q 43 -36 50 -12 q 38 -43 42 -43 q 31 -33 31 -43 q 33 -9 31 -25 q 36 15 36 7 l 36 21 q 89 78 36 36 q 397 296 199 164 q 383 336 383 303 l 383 338 q 388 346 383 346 q 394 340 392 344 q 444 326 399 332 q 831 571 468 342 q 835 576 835 572 q 826 582 835 582 q 642 572 697 582 q 631 567 638 572 q 619 561 624 561 q 615 567 615 561 q 617 568 615 568 l 617 569 q 622 592 618 579 q 638 600 625 600 l 654 600 q 776 599 694 600 q 900 597 858 597 q 1111 604 917 597 q 1189 606 1150 606 l 1213 606 q 1222 599 1222 606 m 871 565 q 867 569 871 569 q 858 567 864 569 q 646 439 843 558 q 468 325 597 408 q 693 321 532 321 l 743 321 l 764 358 q 869 558 799 419 q 871 565 871 561 z "},"":{"ha":707,"x_min":124,"x_max":808,"o":"m 808 549 q 803 531 808 539 q 760 444 772 482 q 750 435 757 435 q 746 440 746 435 q 754 481 754 472 q 703 579 754 546 q 592 607 660 607 l 585 607 q 308 410 450 607 q 186 103 186 239 q 335 -12 186 -12 q 738 233 561 -12 q 743 238 742 238 q 749 218 749 238 l 749 217 q 738 185 749 201 q 389 -21 621 8 q 351 -42 365 -29 q 340 -58 340 -49 q 357 -76 340 -68 q 383 -106 383 -89 q 365 -135 383 -119 q 263 -204 311 -181 q 253 -207 257 -207 q 242 -199 242 -207 q 249 -193 243 -196 q 342 -132 342 -165 q 328 -112 342 -122 q 296 -83 296 -94 q 367 -24 296 -57 q 332 -25 356 -25 q 124 140 124 -25 q 215 388 124 254 q 594 619 374 619 l 601 619 q 796 571 713 619 q 808 549 808 564 z "},"":{"ha":669,"x_min":128,"x_max":751,"o":"m 638 676 q 636 672 638 672 q 632 676 633 672 q 564 806 590 753 q 560 821 560 814 q 567 838 560 829 q 574 842 571 842 q 579 836 578 842 q 638 679 601 785 l 638 676 m 751 601 q 750 590 751 592 q 728 560 728 560 q 719 567 724 560 q 710 575 715 574 q 517 588 640 588 q 483 574 494 588 q 338 339 419 490 q 346 326 331 326 q 424 325 393 325 q 538 328 501 325 q 625 346 592 332 l 631 346 q 636 342 636 346 l 633 336 q 619 308 629 324 q 610 306 615 306 q 447 308 499 308 q 331 307 382 308 q 315 299 319 307 q 225 122 254 190 q 211 67 211 90 q 310 1 211 1 q 558 39 419 1 q 688 93 639 61 q 694 96 693 96 q 699 92 699 96 q 665 51 686 79 q 625 26 656 33 q 297 -14 444 -14 q 197 -10 222 -14 q 128 43 128 1 q 143 96 128 68 q 207 208 146 101 q 261 306 261 303 q 243 311 261 311 q 231 318 231 311 q 247 328 231 325 q 294 361 279 332 q 408 581 408 571 q 400 586 408 586 q 267 578 313 586 q 251 572 258 576 l 244 567 q 240 572 240 567 q 247 597 240 571 q 261 606 250 606 q 433 600 400 600 q 642 607 447 600 q 719 608 681 608 l 743 608 q 751 601 751 608 z "},"":{"ha":669,"x_min":128,"x_max":796,"o":"m 796 843 q 792 836 796 840 q 569 676 710 774 q 563 674 564 674 q 560 675 561 674 q 564 682 561 679 l 778 854 q 785 857 783 857 q 796 843 796 857 m 751 601 q 750 590 751 592 q 728 560 728 560 q 719 567 724 560 q 710 575 715 574 q 517 588 640 588 q 483 574 494 588 q 338 339 419 490 q 346 326 331 326 q 424 325 393 325 q 538 328 501 325 q 625 346 592 332 l 631 346 q 636 342 636 346 l 633 336 q 619 308 629 324 q 610 306 615 306 q 447 308 499 308 q 331 307 382 308 q 315 299 319 307 q 225 122 254 190 q 211 67 211 90 q 310 1 211 1 q 558 39 419 1 q 688 93 639 61 q 694 96 693 96 q 699 92 699 96 q 665 51 686 79 q 625 26 656 33 q 297 -14 444 -14 q 197 -10 222 -14 q 128 43 128 1 q 143 96 128 68 q 207 208 146 101 q 261 306 261 303 q 243 311 261 311 q 231 318 231 311 q 247 328 231 325 q 294 361 279 332 q 408 581 408 571 q 400 586 408 586 q 267 578 313 586 q 251 572 258 576 l 244 567 q 240 572 240 567 q 247 597 240 571 q 261 606 250 606 q 433 600 400 600 q 642 607 447 600 q 719 608 681 608 l 743 608 q 751 601 751 608 z "},"":{"ha":669,"x_min":128,"x_max":751,"o":"m 707 690 q 689 658 707 676 q 679 651 682 651 q 675 663 675 651 q 671 788 675 651 q 667 794 671 794 q 658 792 664 794 q 551 683 607 744 q 535 667 538 668 q 529 675 529 667 q 540 693 529 683 q 643 790 582 729 q 688 829 672 819 q 694 831 690 831 q 700 825 700 831 q 703 758 700 803 q 707 690 707 713 m 751 601 q 750 590 751 592 q 728 560 728 560 q 719 567 724 560 q 710 575 715 574 q 517 588 640 588 q 483 574 494 588 q 338 339 419 490 q 346 326 331 326 q 424 325 393 325 q 538 328 501 325 q 625 346 592 332 l 631 346 q 636 342 636 346 l 633 336 q 619 308 629 324 q 610 306 615 306 q 447 308 499 308 q 331 307 382 308 q 315 299 319 307 q 225 122 254 190 q 211 67 211 90 q 310 1 211 1 q 558 39 419 1 q 688 93 639 61 q 694 96 693 96 q 699 92 699 96 q 665 51 686 79 q 625 26 656 33 q 297 -14 444 -14 q 197 -10 222 -14 q 128 43 128 1 q 143 96 128 68 q 207 208 146 101 q 261 306 261 303 q 243 311 261 311 q 231 318 231 311 q 247 328 231 325 q 294 361 279 332 q 408 581 408 571 q 400 586 408 586 q 267 578 313 586 q 251 572 258 576 l 244 567 q 240 572 240 567 q 247 597 240 571 q 261 606 250 606 q 433 600 400 600 q 642 607 447 600 q 719 608 681 608 l 743 608 q 751 601 751 608 z "},"":{"ha":669,"x_min":128,"x_max":751,"o":"m 710 753 q 694 719 710 736 q 663 703 679 703 q 646 719 646 703 q 660 753 646 738 q 692 769 674 769 q 710 753 710 769 m 568 758 q 553 725 568 742 q 521 708 538 708 q 504 725 504 708 q 518 759 504 743 q 550 775 532 775 q 568 758 568 775 m 751 601 q 750 590 751 592 q 728 560 728 560 q 719 567 724 560 q 710 575 715 574 q 517 588 640 588 q 483 574 494 588 q 338 339 419 490 q 346 326 331 326 q 424 325 393 325 q 538 328 501 325 q 625 346 592 332 l 631 346 q 636 342 636 346 l 633 336 q 619 308 629 324 q 610 306 615 306 q 447 308 499 308 q 331 307 382 308 q 315 299 319 307 q 225 122 254 190 q 211 67 211 90 q 310 1 211 1 q 558 39 419 1 q 688 93 639 61 q 694 96 693 96 q 699 92 699 96 q 665 51 686 79 q 625 26 656 33 q 297 -14 444 -14 q 197 -10 222 -14 q 128 43 128 1 q 143 96 128 68 q 207 208 146 101 q 261 306 261 303 q 243 311 261 311 q 231 318 231 311 q 247 328 231 325 q 294 361 279 332 q 408 581 408 571 q 400 586 408 586 q 267 578 313 586 q 251 572 258 576 l 244 567 q 240 572 240 567 q 247 597 240 571 q 261 606 250 606 q 433 600 400 600 q 642 607 447 600 q 719 608 681 608 l 743 608 q 751 601 751 608 z "},"":{"ha":303,"x_min":68,"x_max":500,"o":"m 458 678 q 457 674 458 674 q 453 678 454 674 q 385 807 411 754 q 381 822 381 815 q 388 839 381 831 q 394 843 392 843 q 400 838 399 843 q 458 681 422 786 l 458 678 m 500 599 q 492 592 500 594 q 463 556 476 588 q 396 413 425 471 q 183 15 275 169 q 135 -19 165 -15 q 75 -24 139 -19 q 68 -19 68 -24 q 75 -12 68 -14 q 104 8 90 -11 q 324 390 193 132 q 394 563 394 531 q 369 581 394 578 l 354 581 q 288 576 313 581 q 275 582 275 572 q 288 592 275 592 q 392 599 336 593 q 489 607 469 607 q 500 599 500 607 z "},"":{"ha":303,"x_min":68,"x_max":675,"o":"m 675 840 q 671 832 675 836 q 449 672 589 769 q 442 669 443 669 q 439 672 439 669 q 443 678 439 674 l 657 850 q 664 853 663 853 q 675 840 675 853 m 500 599 q 492 592 500 594 q 463 556 476 588 q 396 413 425 471 q 183 15 275 169 q 135 -19 165 -15 q 75 -24 139 -19 q 68 -19 68 -24 q 75 -12 68 -14 q 104 8 90 -11 q 324 390 193 132 q 394 563 394 531 q 369 581 394 578 l 354 581 q 288 576 313 581 q 275 582 275 572 q 288 592 275 592 q 392 599 336 593 q 489 607 469 607 q 500 599 500 607 z "},"":{"ha":303,"x_min":68,"x_max":560,"o":"m 560 693 q 543 663 560 679 q 532 656 536 656 q 528 665 528 656 q 524 790 528 654 q 518 797 524 797 q 511 794 515 797 q 404 686 460 747 q 386 669 390 671 q 381 678 382 669 q 393 696 381 685 q 496 793 435 732 q 540 832 525 822 q 547 835 546 835 q 553 828 553 835 q 556 760 553 806 q 560 693 560 715 m 500 599 q 492 592 500 594 q 463 556 476 588 q 396 413 425 471 q 183 15 275 169 q 135 -19 165 -15 q 75 -24 139 -19 q 68 -19 68 -24 q 75 -12 68 -14 q 104 8 90 -11 q 324 390 193 132 q 394 563 394 531 q 369 581 394 578 l 354 581 q 288 576 313 581 q 275 582 275 572 q 288 592 275 592 q 392 599 336 593 q 489 607 469 607 q 500 599 500 607 z "},"":{"ha":303,"x_min":68,"x_max":568,"o":"m 568 753 q 553 719 568 736 q 521 703 538 703 q 504 719 504 703 q 518 753 504 738 q 550 769 532 769 q 568 753 568 769 m 426 758 q 411 725 426 742 q 379 708 396 708 q 363 725 363 708 q 376 759 363 743 q 408 775 390 775 q 426 758 426 775 m 500 599 q 492 592 500 594 q 463 556 476 588 q 396 413 425 471 q 183 15 275 169 q 135 -19 165 -15 q 75 -24 139 -19 q 68 -19 68 -24 q 75 -12 68 -14 q 104 8 90 -11 q 324 390 193 132 q 394 563 394 531 q 369 581 394 578 l 354 581 q 288 576 313 581 q 275 582 275 572 q 288 592 275 592 q 392 599 336 593 q 489 607 469 607 q 500 599 500 607 z "},"":{"ha":740,"x_min":90,"x_max":843,"o":"m 843 414 q 766 190 843 300 q 583 32 689 79 q 363 -11 486 -11 q 190 24 256 -11 q 167 31 178 31 q 126 15 154 31 q 94 0 99 0 q 90 4 90 0 q 116 42 90 7 q 144 82 142 76 q 268 299 194 172 q 231 296 256 299 q 193 293 206 293 q 171 317 171 293 q 174 319 171 319 l 175 319 q 200 317 175 318 q 279 317 239 315 q 421 574 379 492 q 424 582 424 579 q 413 589 424 589 l 413 589 q 326 580 383 589 q 240 571 269 571 q 215 593 215 571 q 217 597 215 594 l 217 603 q 222 611 219 611 q 231 604 225 608 q 281 596 244 596 q 344 599 294 596 q 414 601 372 600 l 547 606 q 843 414 843 606 m 776 422 q 697 558 776 514 q 536 593 635 593 q 493 576 503 593 q 340 319 399 421 q 419 322 388 322 l 449 322 q 461 310 461 322 q 456 297 461 297 q 440 300 456 297 q 414 303 424 303 q 331 300 389 303 q 214 82 250 154 q 208 65 208 71 q 217 49 208 57 q 361 0 264 0 q 711 201 590 0 q 776 422 776 311 z "},"":{"ha":776,"x_min":13,"x_max":1094,"o":"m 836 744 l 836 743 q 835 742 835 743 q 818 699 829 714 q 751 656 788 656 q 709 674 729 656 q 658 719 689 692 q 626 732 644 732 q 593 718 611 732 q 536 663 538 663 q 532 667 532 663 q 538 676 533 671 q 610 746 565 713 q 646 760 628 760 q 693 733 663 760 q 735 693 714 713 q 769 681 753 681 q 808 699 793 681 q 822 742 822 718 q 831 751 822 751 q 836 744 836 751 m 1094 693 q 1090 690 1094 690 l 1078 690 q 939 586 1013 690 q 690 135 808 400 q 628 -7 672 94 q 619 -17 624 -17 q 607 -7 614 -17 q 382 482 472 225 q 367 500 375 500 q 349 483 360 500 q 71 -25 156 185 q 42 -154 42 -97 q 39 -162 42 -162 q 22 -133 32 -161 q 13 -96 13 -106 q 31 -33 13 -69 q 244 342 69 47 q 353 558 353 525 q 319 588 353 588 q 284 585 307 588 q 249 583 261 583 q 232 603 232 583 q 240 610 232 610 l 244 610 q 311 601 272 601 q 362 608 329 601 q 410 615 394 615 q 422 603 422 615 q 433 533 426 560 q 625 126 493 306 q 644 111 636 111 q 661 125 654 111 q 949 636 838 468 q 1051 722 1006 722 q 1079 713 1064 722 q 1094 693 1094 704 z "},"":{"ha":794,"x_min":143,"x_max":890,"o":"m 664 704 q 661 701 664 701 q 657 704 660 701 q 589 833 615 781 q 585 849 585 842 q 592 865 585 857 q 599 869 596 869 q 604 864 603 869 q 663 707 626 813 q 664 706 663 706 l 664 704 m 889 442 q 740 110 886 256 q 408 -36 594 -36 q 143 154 143 -36 q 201 351 143 240 q 326 519 257 456 q 626 628 444 628 q 803 589 733 628 q 889 442 890 540 m 817 453 q 628 617 817 617 q 379 500 483 617 q 267 331 315 428 q 213 139 213 219 q 397 -24 213 -24 q 692 135 561 -24 q 817 453 817 285 z "},"":{"ha":794,"x_min":143,"x_max":890,"o":"m 890 871 q 886 864 890 868 q 664 704 804 801 q 657 701 658 701 q 654 704 654 701 q 658 710 654 706 l 878 885 q 890 871 890 885 m 889 442 q 740 110 886 256 q 408 -36 594 -36 q 143 154 143 -36 q 201 351 143 240 q 326 519 257 456 q 626 628 444 628 q 803 589 733 628 q 889 442 890 540 m 817 453 q 628 617 817 617 q 379 500 483 617 q 267 331 315 428 q 213 139 213 219 q 397 -24 213 -24 q 692 135 561 -24 q 817 453 817 285 z "},"":{"ha":794,"x_min":143,"x_max":890,"o":"m 774 722 q 757 692 774 708 q 746 685 750 685 q 742 694 742 685 q 738 819 742 682 q 732 828 738 828 q 725 824 729 828 q 618 715 671 775 q 601 700 606 701 q 594 708 594 700 q 607 725 594 714 q 710 822 649 761 q 754 861 739 851 q 761 864 760 864 q 767 857 767 864 q 770 790 767 835 q 774 722 774 744 m 889 442 q 740 110 886 256 q 408 -36 594 -36 q 143 154 143 -36 q 201 351 143 240 q 326 519 257 456 q 626 628 444 628 q 803 589 733 628 q 889 442 890 540 m 817 453 q 628 617 817 617 q 379 500 483 617 q 267 331 315 428 q 213 139 213 219 q 397 -24 213 -24 q 692 135 561 -24 q 817 453 817 285 z "},"":{"ha":794,"x_min":143,"x_max":890,"o":"m 814 772 q 797 728 808 743 q 731 686 767 686 q 685 704 707 686 q 636 749 672 717 q 606 763 621 763 q 572 749 590 763 q 544 719 568 746 q 515 692 521 692 q 511 696 511 692 q 588 776 511 719 q 624 790 606 790 q 672 764 642 790 q 714 724 693 743 q 747 711 732 711 q 785 731 769 711 q 801 772 801 750 q 808 782 801 782 q 814 775 814 782 l 814 772 m 889 442 q 740 110 886 256 q 408 -36 594 -36 q 143 154 143 -36 q 201 351 143 240 q 326 519 257 456 q 626 628 444 628 q 803 589 733 628 q 889 442 890 540 m 817 453 q 628 617 817 617 q 379 500 483 617 q 267 331 315 428 q 213 139 213 219 q 397 -24 213 -24 q 692 135 561 -24 q 817 453 817 285 z "},"":{"ha":794,"x_min":143,"x_max":890,"o":"m 767 781 q 751 747 767 764 q 719 731 736 731 q 703 747 703 731 q 717 781 703 765 q 749 797 731 797 q 767 781 767 797 m 625 786 q 610 753 625 769 q 578 736 594 736 q 561 753 561 736 q 575 787 561 771 q 607 803 589 803 q 625 786 625 803 m 889 442 q 740 110 886 256 q 408 -36 594 -36 q 143 154 143 -36 q 201 351 143 240 q 326 519 257 456 q 626 628 444 628 q 803 589 733 628 q 889 442 890 540 m 817 453 q 628 617 817 617 q 379 500 483 617 q 267 331 315 428 q 213 139 213 219 q 397 -24 213 -24 q 692 135 561 -24 q 817 453 817 285 z "},"":{"ha":556,"x_min":186,"x_max":572,"o":"m 347 193 l 186 356 l 217 386 l 379 222 l 542 386 l 572 356 l 410 193 l 572 31 l 542 0 l 379 164 l 217 0 l 186 31 l 347 193 z "},"":{"ha":794,"x_min":124,"x_max":901,"o":"m 901 643 q 890 626 901 636 l 825 567 q 881 446 881 518 l 881 438 q 773 165 881 311 q 518 -18 665 18 q 382 -36 472 -29 q 258 -19 340 -33 q 217 -1 240 -14 q 184 -33 206 -12 q 151 -65 163 -54 q 131 -76 140 -76 q 124 -69 124 -76 q 139 -43 124 -57 l 197 11 q 133 154 133 63 q 193 353 133 243 q 318 519 244 449 q 617 628 431 628 l 619 628 q 808 579 740 628 l 872 639 q 893 649 882 649 q 901 643 901 649 m 782 553 q 619 617 740 617 l 619 617 l 617 617 q 258 333 400 617 q 203 142 203 222 l 203 139 q 229 40 203 79 l 782 553 m 807 450 l 807 453 q 792 536 807 500 q 242 24 432 211 q 379 -24 285 -24 l 388 -24 q 453 -17 413 -24 q 703 158 593 7 q 807 450 807 304 z "},"":{"ha":856,"x_min":128,"x_max":1008,"o":"m 724 676 q 722 672 724 672 q 718 676 719 672 q 650 806 676 753 q 646 821 646 814 q 653 838 646 829 q 660 842 657 842 q 665 836 664 842 q 724 679 688 785 l 724 676 m 1008 614 q 1003 608 1008 608 q 974 592 985 606 q 763 260 857 449 q 694 64 694 124 q 754 0 694 0 q 831 18 788 0 q 872 38 831 18 q 881 31 881 38 q 875 24 881 25 q 706 -21 775 -21 q 614 50 614 -21 q 669 189 614 101 l 669 192 q 668 194 669 193 q 596 147 633 194 q 531 74 547 85 q 276 -15 396 -15 q 175 11 215 -15 q 128 100 128 42 q 183 243 128 150 q 272 372 192 256 q 390 557 358 499 q 396 574 396 567 q 375 586 396 586 q 347 586 347 586 q 311 585 301 585 q 293 586 304 585 l 278 586 q 267 594 267 586 q 276 603 267 603 l 388 599 q 460 601 415 599 q 526 610 482 606 q 533 604 533 610 q 525 597 533 599 q 242 229 443 581 q 207 115 207 168 q 318 18 207 18 q 524 86 421 18 q 715 283 646 167 q 868 558 761 365 q 917 601 886 592 q 1000 622 978 622 q 1008 614 1008 622 z "},"":{"ha":856,"x_min":128,"x_max":1008,"o":"m 953 842 q 949 835 953 839 q 726 675 867 772 q 719 672 721 672 q 717 675 717 672 q 721 681 717 676 l 935 853 q 942 856 940 856 q 953 842 953 856 m 1008 614 q 1003 608 1008 608 q 974 592 985 606 q 763 260 857 449 q 694 64 694 124 q 754 0 694 0 q 831 18 788 0 q 872 38 831 18 q 881 31 881 38 q 875 24 881 25 q 706 -21 775 -21 q 614 50 614 -21 q 669 189 614 101 l 669 192 q 668 194 669 193 q 596 147 633 194 q 531 74 547 85 q 276 -15 396 -15 q 175 11 215 -15 q 128 100 128 42 q 183 243 128 150 q 272 372 192 256 q 390 557 358 499 q 396 574 396 567 q 375 586 396 586 q 347 586 347 586 q 311 585 301 585 q 293 586 304 585 l 278 586 q 267 594 267 586 q 276 603 267 603 l 388 599 q 460 601 415 599 q 526 610 482 606 q 533 604 533 610 q 525 597 533 599 q 242 229 443 581 q 207 115 207 168 q 318 18 207 18 q 524 86 421 18 q 715 283 646 167 q 868 558 761 365 q 917 601 886 592 q 1000 622 978 622 q 1008 614 1008 622 z "},"":{"ha":856,"x_min":128,"x_max":1008,"o":"m 824 696 q 807 665 824 682 q 796 658 800 658 q 792 668 792 658 q 788 793 792 656 q 782 801 788 801 q 775 797 779 801 q 668 689 721 749 q 651 674 656 675 q 646 682 646 674 q 657 699 646 689 q 760 796 699 735 q 804 835 789 825 q 811 838 810 838 q 817 831 817 838 q 820 763 817 808 q 824 696 824 718 m 1008 614 q 1003 608 1008 608 q 974 592 985 606 q 763 260 857 449 q 694 64 694 124 q 754 0 694 0 q 831 18 788 0 q 872 38 831 18 q 881 31 881 38 q 875 24 881 25 q 706 -21 775 -21 q 614 50 614 -21 q 669 189 614 101 l 669 192 q 668 194 669 193 q 596 147 633 194 q 531 74 547 85 q 276 -15 396 -15 q 175 11 215 -15 q 128 100 128 42 q 183 243 128 150 q 272 372 192 256 q 390 557 358 499 q 396 574 396 567 q 375 586 396 586 q 347 586 347 586 q 311 585 301 585 q 293 586 304 585 l 278 586 q 267 594 267 586 q 276 603 267 603 l 388 599 q 460 601 415 599 q 526 610 482 606 q 533 604 533 610 q 525 597 533 599 q 242 229 443 581 q 207 115 207 168 q 318 18 207 18 q 524 86 421 18 q 715 283 646 167 q 868 558 761 365 q 917 601 886 592 q 1000 622 978 622 q 1008 614 1008 622 z "},"":{"ha":856,"x_min":128,"x_max":1008,"o":"m 818 753 q 803 719 818 736 q 771 703 788 703 q 754 719 754 703 q 768 753 754 738 q 800 769 782 769 q 818 753 818 769 m 676 758 q 661 725 676 742 q 629 708 646 708 q 613 725 613 708 q 626 759 613 743 q 658 775 640 775 q 676 758 676 775 m 1008 614 q 1003 608 1008 608 q 974 592 985 606 q 763 260 857 449 q 694 64 694 124 q 754 0 694 0 q 831 18 788 0 q 872 38 831 18 q 881 31 881 38 q 875 24 881 25 q 706 -21 775 -21 q 614 50 614 -21 q 669 189 614 101 l 669 192 q 668 194 669 193 q 596 147 633 194 q 531 74 547 85 q 276 -15 396 -15 q 175 11 215 -15 q 128 100 128 42 q 183 243 128 150 q 272 372 192 256 q 390 557 358 499 q 396 574 396 567 q 375 586 396 586 q 347 586 347 586 q 311 585 301 585 q 293 586 304 585 l 278 586 q 267 594 267 586 q 276 603 267 603 l 388 599 q 460 601 415 599 q 526 610 482 606 q 533 604 533 610 q 525 597 533 599 q 242 229 443 581 q 207 115 207 168 q 318 18 207 18 q 524 86 421 18 q 715 283 646 167 q 868 558 761 365 q 917 601 886 592 q 1000 622 978 622 q 1008 614 1008 622 z "},"":{"ha":635,"x_min":114,"x_max":1054,"o":"m 840 811 q 836 803 840 807 q 614 643 754 740 q 607 640 608 640 q 604 643 604 640 q 608 649 604 644 l 828 824 q 840 811 840 824 m 1054 675 q 1051 671 1054 671 q 1040 673 1049 671 q 1025 675 1031 675 q 901 626 982 675 q 515 288 714 514 q 471 218 492 261 q 411 76 436 147 q 399 32 404 54 q 378 -1 388 -4 q 357 1 367 1 q 292 -26 313 1 q 285 -29 290 -29 q 276 -21 276 -29 q 306 17 276 -26 q 433 365 433 206 q 265 569 433 569 q 163 529 204 569 q 124 481 146 507 q 118 479 121 479 q 114 483 114 479 q 117 492 114 488 q 318 610 194 610 q 447 559 403 610 q 492 424 492 508 q 482 308 492 354 q 488 299 481 299 q 494 301 492 299 l 554 357 l 654 451 q 817 601 781 571 q 996 711 946 711 q 1033 701 1013 711 q 1054 675 1054 690 z "},"":{"ha":449,"x_min":72,"x_max":610,"o":"m 610 347 q 557 231 610 282 q 443 163 513 186 q 318 142 382 142 l 299 142 q 260 151 274 144 q 256 157 256 153 q 261 163 256 163 l 263 163 q 264 161 263 161 q 301 153 278 156 l 314 153 q 522 272 456 153 q 543 360 543 310 q 542 382 543 374 q 454 458 531 449 q 446 460 451 458 l 438 460 q 335 418 357 460 q 190 135 265 286 q 157 56 176 107 q 154 38 154 49 q 219 4 154 4 q 225 -4 225 -1 q 219 -7 224 -7 l 124 -7 q 72 19 72 -3 q 76 36 72 26 q 229 322 89 63 q 336 544 292 438 q 340 563 340 554 q 313 582 340 582 q 272 581 299 582 q 232 579 246 579 q 222 588 222 579 q 232 594 222 594 q 324 600 265 594 q 415 608 389 607 q 426 601 426 608 q 358 465 394 536 l 358 464 q 357 463 357 464 q 361 460 357 460 l 364 460 q 438 472 399 472 q 554 446 508 472 q 610 347 610 414 z "},"":{"ha":479,"x_min":-560,"x_max":722,"o":"m 722 768 q 668 668 722 732 q 426 386 600 589 q 400 329 400 356 q 468 257 400 293 q 522 174 522 228 q 417 21 522 78 q 294 -7 365 -7 q 167 28 218 -7 q 69 -142 125 -49 q -96 -396 -17 -287 q -436 -636 -271 -636 l -437 -636 q -556 -586 -511 -636 q -560 -576 -560 -582 q -557 -574 -560 -574 q -533 -590 -556 -574 q -500 -610 -510 -607 q -446 -617 -464 -619 l -437 -615 q -342 -599 -411 -611 q -208 -511 -265 -572 q -31 -258 -125 -422 q 132 60 22 -168 q 110 114 114 83 l 110 119 q 108 125 108 124 q 114 150 108 136 q 176 260 138 208 q 189 268 183 268 q 193 264 193 268 q 188 253 193 258 q 135 143 135 200 q 147 90 135 115 l 168 133 q 542 707 350 511 q 683 803 635 803 q 722 768 722 803 m 661 725 q 660 736 661 733 q 633 757 654 757 q 624 756 628 757 q 475 594 561 742 q 289 258 353 386 q 178 50 256 192 q 308 6 222 6 q 422 40 375 6 q 475 143 475 79 l 475 149 q 408 233 475 206 q 347 297 347 258 q 379 358 347 324 q 644 672 594 589 q 661 725 661 700 z "},"":{"ha":351,"x_min":56,"x_max":501,"o":"m 296 358 q 294 356 296 356 q 290 358 293 356 q 222 488 249 435 q 218 503 218 496 q 225 519 218 511 q 232 524 229 524 q 238 518 236 524 q 296 361 260 467 l 296 358 m 501 193 q 499 186 501 190 q 393 67 457 125 q 258 -8 310 -8 q 206 54 206 -8 q 218 114 206 81 q 85 11 135 11 q 56 43 56 11 q 63 78 56 57 q 215 265 106 204 q 303 294 261 290 l 311 294 q 368 329 332 329 q 349 293 357 310 q 388 281 367 292 q 383 278 386 278 q 382 279 382 278 l 379 279 q 343 282 368 281 q 299 190 333 264 q 247 40 247 82 q 275 8 247 8 q 296 13 286 8 q 490 192 400 54 q 497 197 493 197 q 501 193 501 197 m 304 283 l 303 283 q 229 254 264 283 q 107 63 147 185 q 104 47 104 49 q 113 35 104 35 q 128 42 118 35 q 258 204 190 88 l 304 283 z "},"":{"ha":351,"x_min":56,"x_max":501,"o":"m 500 561 q 496 554 500 558 q 274 394 414 492 q 267 392 268 392 q 264 394 264 392 q 268 400 264 396 l 482 572 q 489 575 488 575 q 500 561 500 575 m 501 193 q 499 186 501 190 q 393 67 457 125 q 258 -8 310 -8 q 206 54 206 -8 q 218 114 206 81 q 85 11 135 11 q 56 43 56 11 q 63 78 56 57 q 215 265 106 204 q 303 294 261 290 l 311 294 q 368 329 332 329 q 349 293 357 310 q 388 281 367 292 q 383 278 386 278 q 382 279 382 278 l 379 279 q 343 282 368 281 q 299 190 333 264 q 247 40 247 82 q 275 8 247 8 q 296 13 286 8 q 490 192 400 54 q 497 197 493 197 q 501 193 501 197 m 304 283 l 303 283 q 229 254 264 283 q 107 63 147 185 q 104 47 104 49 q 113 35 104 35 q 128 42 118 35 q 258 204 190 88 l 304 283 z "},"":{"ha":351,"x_min":56,"x_max":501,"o":"m 415 410 q 399 379 415 396 q 388 372 392 372 q 383 382 383 372 q 379 507 383 369 q 374 515 379 515 q 367 511 371 515 q 260 403 313 463 q 242 388 246 388 q 236 394 236 388 q 249 413 236 401 q 351 510 290 449 q 396 549 381 539 q 403 551 401 551 q 408 544 408 551 q 412 477 408 522 q 415 410 415 432 m 501 193 q 499 186 501 190 q 393 67 457 125 q 258 -8 310 -8 q 206 54 206 -8 q 218 114 206 81 q 85 11 135 11 q 56 43 56 11 q 63 78 56 57 q 215 265 106 204 q 303 294 261 290 l 311 294 q 368 329 332 329 q 349 293 357 310 q 388 281 367 292 q 383 278 386 278 q 382 279 382 278 l 379 279 q 343 282 368 281 q 299 190 333 264 q 247 40 247 82 q 275 8 247 8 q 296 13 286 8 q 490 192 400 54 q 497 197 493 197 q 501 193 501 197 m 304 283 l 303 283 q 229 254 264 283 q 107 63 147 185 q 104 47 104 49 q 113 35 104 35 q 128 42 118 35 q 258 204 190 88 l 304 283 z "},"":{"ha":351,"x_min":56,"x_max":503,"o":"m 503 496 q 486 451 497 467 q 419 410 456 410 q 374 428 396 410 q 325 472 361 440 q 294 486 310 486 q 261 472 279 486 q 233 442 257 469 q 204 415 210 415 q 200 419 200 415 q 276 500 200 443 q 313 514 294 514 q 361 488 331 514 q 403 447 382 467 q 438 435 421 435 q 475 454 460 435 q 490 496 490 474 q 497 506 490 506 q 503 499 503 506 l 503 496 m 501 193 q 499 186 501 190 q 393 67 457 125 q 258 -8 310 -8 q 206 54 206 -8 q 218 114 206 81 q 85 11 135 11 q 56 43 56 11 q 63 78 56 57 q 215 265 106 204 q 303 294 261 290 l 311 294 q 368 329 332 329 q 349 293 357 310 q 388 281 367 292 q 383 278 386 278 q 382 279 382 278 l 379 279 q 343 282 368 281 q 299 190 333 264 q 247 40 247 82 q 275 8 247 8 q 296 13 286 8 q 490 192 400 54 q 497 197 493 197 q 501 193 501 197 m 304 283 l 303 283 q 229 254 264 283 q 107 63 147 185 q 104 47 104 49 q 113 35 104 35 q 128 42 118 35 q 258 204 190 88 l 304 283 z "},"":{"ha":351,"x_min":56,"x_max":501,"o":"m 461 483 q 446 450 461 467 q 414 433 431 433 q 397 450 397 433 q 411 485 397 468 q 443 501 425 501 q 461 483 461 501 m 361 492 q 346 458 361 475 q 314 442 331 442 q 297 458 297 442 q 311 493 297 476 q 343 510 325 510 q 361 492 361 510 m 501 193 q 499 186 501 190 q 393 67 457 125 q 258 -8 310 -8 q 206 54 206 -8 q 218 114 206 81 q 85 11 135 11 q 56 43 56 11 q 110 171 56 100 q 215 265 160 235 q 303 294 260 290 l 311 294 q 368 329 332 329 q 349 293 357 310 q 388 281 367 292 q 383 278 386 278 q 382 279 382 278 l 379 279 q 343 282 368 281 q 299 190 333 264 q 247 40 247 82 q 275 8 247 8 q 296 13 286 8 q 490 192 401 57 q 497 197 493 197 q 501 193 501 197 m 304 283 l 303 283 q 229 254 264 283 q 107 63 147 185 q 104 47 104 49 q 113 35 104 35 q 128 42 118 35 q 258 204 190 88 l 304 283 z "},"":{"ha":351,"x_min":56,"x_max":501,"o":"m 442 490 q 417 433 442 457 q 360 408 393 408 q 306 460 306 408 q 331 516 306 492 q 389 540 357 540 q 442 490 442 540 m 501 193 q 499 186 501 190 q 393 67 457 125 q 258 -8 310 -8 q 206 54 206 -8 q 218 114 206 81 q 85 11 135 11 q 56 43 56 11 q 110 171 56 100 q 215 265 160 235 q 303 294 260 290 l 311 294 q 368 329 332 329 q 349 293 357 310 q 388 281 367 292 q 383 278 386 278 q 382 279 382 278 l 379 279 q 343 282 368 281 q 299 190 333 264 q 247 40 247 82 q 275 8 247 8 q 296 13 286 8 q 490 192 400 54 q 497 197 493 197 q 501 193 501 197 m 421 486 q 385 522 421 522 q 328 475 339 522 q 326 463 326 471 q 364 428 326 428 q 419 475 408 428 q 421 486 421 479 m 304 283 l 303 283 q 229 254 264 283 q 107 63 147 185 q 104 47 104 49 q 113 35 104 35 q 128 42 118 35 q 258 204 190 88 l 304 283 z "},"":{"ha":433,"x_min":57,"x_max":575,"o":"m 575 181 q 572 174 575 178 q 499 78 550 131 q 404 -3 447 25 q 303 -37 349 -37 q 211 53 211 -37 q 226 132 211 89 l 226 136 l 224 133 q 165 61 167 64 q 90 8 126 21 q 79 6 82 6 q 57 33 57 6 q 61 57 57 44 q 140 208 88 139 q 279 297 208 297 q 297 293 290 297 q 303 289 303 289 q 306 290 304 289 q 343 361 324 329 q 364 375 351 374 l 401 379 q 410 375 410 379 q 403 368 408 372 q 338 285 388 360 l 335 282 l 336 282 q 342 285 338 282 q 435 315 388 315 l 438 315 q 456 300 456 315 q 453 283 456 290 q 326 154 415 183 q 275 133 303 150 q 267 74 267 97 q 269 43 267 60 q 329 -12 279 -12 q 486 76 396 -12 q 564 178 542 131 q 571 185 568 185 q 575 181 575 183 m 399 285 q 392 293 399 293 q 336 268 374 293 q 306 224 321 258 q 285 172 292 196 q 283 161 283 168 q 289 156 283 156 q 353 194 315 156 q 399 285 399 243 m 283 256 q 258 279 283 279 q 171 193 222 279 q 114 72 129 124 q 111 60 111 63 q 124 44 111 44 q 143 56 132 44 q 278 240 225 140 q 283 256 283 251 z "},"":{"ha":283,"x_min":68,"x_max":439,"o":"m 439 194 q 436 186 439 192 q 222 6 321 44 q 179 -18 208 0 q 165 -36 165 -28 q 183 -56 165 -47 q 210 -85 210 -68 q 192 -114 210 -99 q 89 -183 138 -160 q 79 -186 83 -186 q 68 -178 68 -186 q 75 -172 69 -175 q 168 -111 168 -144 q 133 -79 168 -104 q 125 -64 125 -74 q 133 -47 125 -56 q 182 -8 161 -19 q 146 -12 164 -12 q 74 54 74 -12 q 85 108 74 81 q 269 303 142 249 q 296 310 286 310 q 346 272 331 310 q 349 263 349 265 q 342 250 349 256 q 307 221 304 221 q 303 226 303 221 l 303 229 q 304 240 304 233 q 258 276 304 276 q 161 185 208 276 q 132 85 136 136 q 131 69 131 68 q 182 11 131 11 q 218 18 197 11 q 429 193 315 51 q 436 197 433 197 q 439 194 439 197 z "},"":{"ha":285,"x_min":61,"x_max":415,"o":"m 294 358 q 293 356 294 356 q 289 358 292 356 q 221 488 247 435 q 217 503 217 496 q 224 519 217 511 q 231 524 228 524 q 236 518 235 524 q 294 361 258 467 l 294 358 m 415 164 q 413 158 415 161 q 285 42 360 92 q 126 -15 199 -15 q 61 43 61 -15 q 64 74 61 61 q 140 218 79 146 q 276 301 210 301 q 318 276 318 301 q 149 181 318 219 q 117 67 117 121 q 168 10 117 10 q 300 63 228 10 q 404 164 360 106 q 411 168 406 168 q 415 164 415 168 m 267 268 q 254 285 267 283 q 253 286 253 285 l 250 286 q 215 269 235 286 q 154 190 181 239 q 265 261 253 210 q 267 265 265 263 l 267 268 z "},"":{"ha":285,"x_min":61,"x_max":442,"o":"m 442 560 q 438 553 442 557 q 215 393 356 490 q 208 390 210 390 q 206 393 206 390 q 210 399 206 394 l 424 571 q 431 574 429 574 q 442 560 442 574 m 415 164 q 413 158 415 161 q 285 42 360 92 q 126 -15 199 -15 q 61 43 61 -15 q 64 74 61 61 q 140 218 79 146 q 276 301 210 301 q 318 276 318 301 q 149 181 318 219 q 117 67 117 121 q 168 10 117 10 q 300 63 228 10 q 404 164 360 106 q 411 168 406 168 q 415 164 415 168 m 267 268 q 254 285 267 283 q 253 286 253 285 l 250 286 q 215 269 235 286 q 154 190 181 239 q 265 261 253 210 q 267 265 265 263 l 267 268 z "},"":{"ha":285,"x_min":61,"x_max":415,"o":"m 378 410 q 361 379 378 396 q 350 372 354 372 q 346 382 346 372 q 342 507 346 369 q 336 515 342 515 q 329 511 333 515 q 222 403 275 463 q 204 388 208 388 q 199 394 199 388 q 211 413 199 401 q 314 510 253 449 q 358 549 343 539 q 365 551 364 551 q 371 544 371 551 q 374 477 371 522 q 378 410 378 432 m 415 164 q 413 158 415 161 q 285 42 360 92 q 126 -15 199 -15 q 61 43 61 -15 q 64 74 61 61 q 140 218 79 146 q 276 301 210 301 q 318 276 318 301 q 149 181 318 219 q 117 67 117 121 q 168 10 117 10 q 300 63 228 10 q 404 164 360 106 q 411 168 406 168 q 415 164 415 168 m 267 268 q 254 285 267 283 q 253 286 253 285 l 250 286 q 215 269 235 286 q 154 190 181 239 q 265 261 253 210 q 267 265 265 263 l 267 268 z "},"":{"ha":285,"x_min":61,"x_max":415,"o":"m 408 485 q 376 436 408 450 q 361 433 368 433 q 346 443 347 433 l 346 446 q 344 449 344 447 q 376 500 344 481 q 390 504 383 504 q 408 485 408 504 m 310 492 q 308 483 310 486 q 272 443 299 451 q 263 442 269 442 q 246 453 249 442 l 246 456 q 244 458 244 457 q 258 493 244 476 q 290 510 272 510 q 310 492 310 510 m 415 164 q 413 158 415 161 q 285 42 360 92 q 126 -15 199 -15 q 61 43 61 -15 q 64 74 61 61 q 140 218 79 146 q 276 301 210 301 q 318 276 318 301 q 149 181 318 219 q 117 67 117 121 q 168 10 117 10 q 300 63 228 10 q 404 164 360 106 q 411 168 406 168 q 415 164 415 168 m 267 268 q 254 285 267 283 q 253 286 253 285 l 250 286 q 215 269 235 286 q 154 190 181 239 q 265 261 253 210 q 267 265 265 263 l 267 268 z "},"":{"ha":251,"x_min":64,"x_max":393,"o":"m 243 358 q 242 356 243 356 q 238 358 240 356 q 169 488 196 435 q 164 503 164 499 q 179 524 164 524 q 185 518 183 524 q 243 361 207 467 l 243 358 m 393 183 q 390 176 393 181 q 235 32 324 90 q 125 -6 178 -6 q 64 42 64 -6 q 79 97 64 63 q 178 271 118 185 q 215 296 192 292 q 218 297 217 296 l 219 297 q 229 289 229 297 q 225 276 229 283 q 125 69 150 158 q 121 46 121 54 q 154 14 121 14 q 217 33 182 14 q 385 183 315 88 q 390 188 389 188 q 393 183 393 186 z "},"":{"ha":251,"x_min":64,"x_max":436,"o":"m 436 546 q 432 539 436 543 q 210 379 350 476 q 203 376 204 376 q 200 379 200 376 q 204 385 200 381 l 418 557 q 425 560 424 560 q 436 546 436 560 m 393 183 q 390 176 393 181 q 235 32 324 90 q 125 -6 178 -6 q 64 42 64 -6 q 79 97 64 63 q 178 271 118 185 q 215 296 192 292 q 218 297 217 296 l 219 297 q 229 289 229 297 q 225 276 229 283 q 125 69 150 158 q 121 46 121 54 q 154 14 121 14 q 217 33 182 14 q 385 183 315 88 q 390 188 389 188 q 393 183 393 186 z "},"":{"ha":251,"x_min":64,"x_max":393,"o":"m 347 410 q 331 379 347 396 q 319 372 324 372 q 315 382 315 372 q 311 507 315 369 q 306 515 311 515 q 299 511 303 515 q 192 403 244 463 q 175 388 179 389 q 169 394 169 388 q 181 413 169 403 q 283 510 222 449 q 328 549 313 539 q 335 551 333 551 q 340 544 340 551 q 344 477 340 522 q 347 410 347 432 m 393 183 q 390 176 393 181 q 235 32 324 90 q 125 -6 178 -6 q 64 42 64 -6 q 79 97 64 63 q 178 271 118 185 q 215 296 192 292 q 218 297 217 296 l 219 297 q 229 289 229 297 q 225 276 229 283 q 125 69 150 158 q 121 46 121 54 q 154 14 121 14 q 217 33 182 14 q 385 183 315 88 q 390 188 389 188 q 393 183 393 186 z "},"":{"ha":251,"x_min":64,"x_max":393,"o":"m 357 492 q 342 458 357 475 q 310 442 326 442 q 293 458 293 442 q 307 493 293 476 q 339 510 321 510 q 357 492 357 510 m 256 492 q 240 458 256 475 q 208 442 225 442 q 192 458 192 442 q 205 493 192 476 q 236 510 218 510 q 256 492 256 510 m 393 183 q 390 176 393 181 q 235 32 324 90 q 125 -6 178 -6 q 64 42 64 -6 q 79 97 64 63 q 178 271 118 185 q 215 296 192 292 q 218 297 217 296 l 219 297 q 229 289 229 297 q 225 276 229 283 q 125 69 150 158 q 121 46 121 54 q 154 14 121 14 q 217 33 182 14 q 385 183 315 88 q 390 188 389 188 q 393 183 393 186 z "},"":{"ha":232,"x_min":61,"x_max":401,"o":"m 401 599 q 397 592 401 592 q 394 593 396 592 l 390 593 q 278 564 381 593 q 342 418 297 522 q 363 308 363 367 q 305 135 363 222 q 167 14 247 49 q 107 -1 132 -1 q 61 43 61 -1 q 146 213 61 113 q 235 281 181 253 q 301 306 274 300 q 311 319 311 307 q 293 428 311 375 q 240 553 279 468 q 150 521 189 536 q 139 518 143 518 q 119 532 129 518 q 118 538 118 533 q 146 544 122 539 q 233 568 194 557 q 140 744 185 671 q 115 764 131 761 q 111 769 111 764 q 117 772 113 772 q 139 771 122 771 q 153 772 143 771 q 167 774 163 774 q 179 764 174 774 q 271 581 231 669 q 389 614 371 614 q 401 603 400 614 l 401 599 m 310 288 l 310 289 q 304 293 310 293 q 206 229 261 293 q 129 106 161 178 q 111 38 111 65 q 132 15 111 15 q 194 46 158 15 q 243 100 225 71 q 310 288 310 204 z "},"":{"ha":368,"x_min":32,"x_max":511,"o":"m 490 499 l 490 497 q 489 496 489 497 q 472 451 483 467 q 406 410 442 410 q 361 428 383 410 q 313 472 349 440 q 281 486 297 486 q 247 472 265 486 q 219 442 243 469 q 190 415 196 415 q 186 419 186 415 q 192 431 186 424 q 264 500 219 467 q 300 514 282 514 q 347 488 317 514 q 389 447 368 467 q 424 435 407 435 q 462 453 447 435 q 476 496 476 472 q 485 506 476 506 q 490 499 490 506 m 511 186 q 508 179 511 183 q 322 6 426 67 q 226 -28 265 -28 q 182 13 182 -28 q 211 93 182 43 q 283 238 265 186 l 283 242 q 281 246 283 246 q 276 244 279 246 q 149 133 203 196 q 58 -12 121 83 q 50 -19 51 -19 q 38 -6 43 -19 q 32 15 32 7 q 39 38 32 25 q 111 149 64 74 q 186 294 140 210 q 197 301 190 301 q 219 282 219 301 q 167 171 219 292 q 340 304 258 253 q 350 307 346 307 q 365 292 365 307 q 358 275 365 285 q 244 63 278 156 q 239 36 239 47 q 274 1 239 1 q 313 13 290 1 q 501 188 424 69 q 507 190 503 190 q 511 186 511 190 z "},"":{"ha":356,"x_min":60,"x_max":525,"o":"m 300 358 q 297 356 300 356 q 293 358 296 356 q 225 488 251 435 q 221 503 221 496 q 228 519 221 511 q 235 524 232 524 q 240 518 239 524 q 299 361 263 467 q 300 360 299 360 l 300 358 m 525 235 q 524 231 525 233 q 389 146 461 146 q 306 193 333 146 q 143 -4 225 35 q 101 -15 119 -15 q 61 39 63 -15 q 143 215 60 115 q 290 296 201 286 q 318 339 294 335 q 344 346 329 340 q 349 347 346 347 q 356 340 356 347 q 338 286 347 319 q 335 249 335 267 q 407 160 335 154 q 517 235 465 164 q 522 239 518 239 q 525 235 525 238 m 294 221 q 289 269 289 239 l 289 282 q 283 283 282 283 l 282 283 q 154 165 224 283 q 108 26 107 86 q 128 6 108 6 q 226 93 168 6 q 294 221 272 161 z "},"":{"ha":356,"x_min":61,"x_max":525,"o":"m 478 560 q 474 553 478 557 q 251 393 392 490 q 244 390 246 390 q 242 393 242 390 q 246 399 242 394 l 460 571 q 467 574 465 574 q 478 560 478 574 m 525 235 q 524 231 525 233 q 389 146 461 146 q 306 193 333 146 q 101 -15 197 -15 q 61 35 61 -15 l 61 39 q 143 215 61 118 q 290 296 201 286 q 318 339 294 335 q 344 346 329 340 q 349 347 346 347 q 356 340 356 347 q 338 286 347 319 q 335 249 335 267 q 400 160 335 160 q 517 235 464 160 q 522 239 518 239 q 525 235 525 238 m 294 221 q 289 269 289 239 l 289 282 q 283 283 282 283 l 282 283 q 154 165 224 283 q 108 32 107 86 q 128 6 108 6 q 226 93 168 6 q 294 221 272 161 z "},"":{"ha":356,"x_min":60,"x_max":525,"o":"m 433 410 q 417 379 433 396 q 406 372 410 372 q 401 382 401 372 q 397 507 401 369 q 392 515 397 515 q 385 511 389 515 q 278 403 331 463 q 260 388 264 388 q 254 394 254 388 q 267 413 254 401 q 369 510 308 449 q 414 549 399 539 q 421 551 419 551 q 426 544 426 551 q 430 477 426 522 q 433 410 433 432 m 525 235 q 524 231 525 233 q 389 146 461 146 q 306 193 333 146 q 101 -15 197 -15 q 61 39 63 -15 q 143 215 60 115 q 290 296 201 286 q 318 339 294 335 q 344 346 329 340 q 349 347 346 347 q 356 340 356 347 q 338 286 347 319 q 335 249 335 267 q 400 160 335 160 q 517 235 464 160 q 522 239 518 239 q 525 235 525 238 m 294 221 q 289 269 289 239 l 289 282 q 283 283 282 283 l 282 283 q 154 165 224 283 q 108 26 107 86 q 128 6 108 6 q 226 93 168 6 q 294 221 272 161 z "},"":{"ha":356,"x_min":60,"x_max":525,"o":"m 499 499 l 499 497 q 497 496 497 497 q 481 451 492 467 q 414 410 450 410 q 369 428 392 410 q 321 472 357 440 q 289 486 306 486 q 256 472 274 486 q 228 442 251 469 q 199 415 204 415 q 194 419 194 415 q 272 500 194 442 q 308 514 290 514 q 356 488 325 514 q 397 447 376 467 q 432 435 415 435 q 469 454 454 435 q 485 496 485 474 q 492 506 485 506 q 499 499 499 506 m 525 235 q 524 231 525 233 q 389 146 461 146 q 306 193 333 146 q 101 -15 197 -15 q 61 39 63 -15 q 143 215 60 115 q 290 296 201 286 q 318 339 294 335 q 344 346 329 340 q 349 347 346 347 q 356 340 356 347 q 338 286 347 319 q 335 249 335 267 q 400 160 335 160 q 517 235 464 160 q 522 239 518 239 q 525 235 525 238 m 294 221 q 289 269 289 239 l 289 282 q 282 283 286 283 q 154 165 224 282 q 108 26 107 86 q 128 6 108 6 q 226 93 168 6 q 294 221 272 161 z "},"":{"ha":356,"x_min":60,"x_max":525,"o":"m 458 483 q 443 450 458 467 q 411 433 428 433 q 394 450 394 433 q 408 485 394 468 q 440 501 422 501 q 458 483 458 501 m 358 492 q 343 458 358 475 q 311 442 328 442 q 294 458 294 442 q 308 493 294 476 q 340 510 322 510 q 358 492 358 510 m 525 235 q 524 231 525 233 q 389 146 461 146 q 306 193 333 146 q 143 -4 225 35 q 101 -15 119 -15 q 61 39 63 -15 q 143 215 60 115 q 290 296 201 286 q 318 339 294 335 q 344 346 329 340 q 349 347 346 347 q 356 340 356 347 q 338 286 347 319 q 335 249 335 267 q 400 160 335 160 q 517 235 464 160 q 522 239 518 239 q 525 235 525 238 m 294 221 q 289 269 289 239 l 289 282 l 283 283 q 154 165 221 282 q 108 32 107 83 q 128 6 108 6 q 226 93 168 6 q 294 221 272 161 z "},"":{"ha":556,"x_min":186,"x_max":572,"o":"m 572 172 l 186 172 l 186 214 l 572 214 l 572 172 m 336 354 q 379 397 336 397 q 422 354 422 397 q 379 311 422 311 q 336 354 336 311 m 336 32 q 379 75 336 75 q 422 32 422 75 q 379 -11 422 -11 q 336 32 336 -11 z "},"":{"ha":356,"x_min":61,"x_max":439,"o":"m 439 324 q 388 271 439 319 l 388 265 q 381 235 388 250 q 292 81 343 150 q 157 -17 219 -17 q 119 10 131 -17 q 79 -33 93 -17 q 68 -39 74 -39 q 61 -32 61 -39 q 65 -22 61 -26 l 115 25 l 115 32 q 114 38 114 36 q 196 215 114 117 q 293 283 232 260 q 347 296 325 296 q 382 283 372 296 l 424 325 q 433 329 428 329 q 439 324 439 329 m 357 258 l 357 260 q 338 283 357 283 l 335 283 q 304 274 322 283 q 208 165 257 247 q 168 74 178 113 l 357 258 m 354 240 l 163 54 q 161 33 161 46 q 179 6 161 6 q 283 99 225 6 q 351 233 321 158 q 354 240 354 239 z "},"":{"ha":356,"x_min":76,"x_max":510,"o":"m 289 358 q 286 356 289 356 q 282 358 285 356 q 214 488 240 435 q 210 503 210 496 q 217 519 210 511 q 224 524 221 524 q 229 518 228 524 q 288 361 251 467 q 289 360 288 360 l 289 358 m 510 171 l 507 165 q 250 -39 360 -39 q 203 13 203 -39 q 217 75 203 39 q 113 1 160 1 q 76 42 76 1 q 85 82 76 60 q 190 288 121 179 q 211 300 199 300 q 235 282 235 300 q 171 165 235 276 q 115 40 115 69 q 132 19 115 19 q 171 42 149 19 q 264 178 218 89 q 315 269 290 229 q 326 279 321 279 q 338 272 332 279 q 350 240 350 256 q 324 188 350 222 q 285 138 310 171 q 239 6 239 74 q 264 -25 239 -25 q 410 65 317 -25 q 500 172 464 118 q 506 176 501 176 q 510 171 510 176 z "},"":{"ha":356,"x_min":76,"x_max":526,"o":"m 526 546 q 522 539 526 543 q 300 379 440 476 q 293 376 294 376 q 290 379 290 376 q 294 385 290 381 l 508 557 q 515 560 514 560 q 526 546 526 560 m 510 171 l 507 165 q 250 -39 360 -39 q 203 13 203 -39 q 217 75 203 39 q 113 1 160 1 q 76 42 76 1 q 85 82 76 60 q 190 288 121 179 q 211 300 199 300 q 235 282 235 300 q 171 165 235 276 q 115 40 115 69 q 132 19 115 19 q 171 42 149 19 q 264 178 218 89 q 315 269 290 229 q 326 279 321 279 q 338 272 332 279 q 350 240 350 256 q 324 188 350 222 q 285 138 310 171 q 239 6 239 74 q 264 -25 239 -25 q 410 65 317 -25 q 500 172 464 118 q 506 176 501 176 q 510 171 510 176 z "},"":{"ha":356,"x_min":76,"x_max":510,"o":"m 417 410 q 400 379 417 396 q 389 372 393 372 q 385 382 385 372 q 381 507 385 369 q 375 515 381 515 q 368 511 372 515 q 261 403 314 463 q 243 388 247 388 q 238 394 238 388 q 250 413 238 401 q 353 510 292 449 q 397 549 382 539 q 404 551 403 551 q 410 544 410 551 q 413 477 410 522 q 417 410 417 432 m 510 171 l 507 165 q 250 -39 360 -39 q 203 13 203 -39 q 217 75 203 39 q 113 1 160 1 q 76 42 76 1 q 85 82 76 60 q 190 288 121 179 q 211 300 199 300 q 235 282 235 300 q 171 165 235 276 q 115 40 115 69 q 132 19 115 19 q 171 42 149 19 q 264 178 218 89 q 315 269 290 229 q 326 279 321 279 q 338 272 332 279 q 350 240 350 256 q 324 188 350 222 q 285 138 310 171 q 239 6 239 74 q 264 -25 239 -25 q 410 65 317 -25 q 500 172 464 118 q 506 176 501 176 q 510 171 510 176 z "},"":{"ha":356,"x_min":76,"x_max":510,"o":"m 457 483 q 442 450 457 467 q 410 433 426 433 q 393 450 393 433 q 407 485 393 468 q 439 501 421 501 q 457 483 457 501 m 357 492 q 342 458 357 475 q 310 442 326 442 q 293 458 293 442 q 307 493 293 476 q 339 510 321 510 q 357 492 357 510 m 510 171 l 507 165 q 250 -39 360 -39 q 203 13 203 -39 q 217 75 203 39 q 113 1 160 1 q 76 42 76 1 q 85 82 76 60 q 190 288 121 179 q 211 300 199 300 q 235 282 235 300 q 171 165 235 276 q 115 40 115 69 q 132 19 115 19 q 171 42 149 19 q 264 178 218 89 q 315 269 290 229 q 326 279 321 279 q 338 272 332 279 q 350 240 350 256 q 324 188 350 222 q 285 138 310 171 q 239 6 239 74 q 264 -25 239 -25 q 410 65 317 -25 q 500 172 464 118 q 506 176 501 176 q 510 171 510 176 z "},"":{"ha":322,"x_min":-536,"x_max":521,"o":"m 521 546 q 517 539 521 543 q 294 379 435 476 q 288 376 289 376 q 285 379 285 376 q 289 385 285 381 l 503 557 q 510 560 508 560 q 521 546 521 560 m 365 286 q 361 271 365 278 q 269 140 322 203 q 178 7 235 99 q -282 -568 -121 -478 q -414 -606 -349 -606 q -497 -582 -464 -606 q -536 -507 -535 -556 q -532 -458 -536 -489 q -528 -453 -531 -453 q -525 -457 -525 -453 q -479 -532 -524 -504 q -390 -556 -440 -556 q -74 -342 -240 -556 q 74 -133 17 -226 l 190 56 q 192 58 192 57 l 190 58 q 186 57 189 58 q 103 21 142 21 q 64 53 64 21 q 71 82 64 65 q 135 193 86 118 q 171 249 136 196 q 188 263 179 261 q 205 267 196 265 q 217 269 214 269 q 222 265 222 269 q 219 258 222 263 q 153 149 192 215 q 114 54 114 83 q 128 39 114 39 q 189 69 154 39 q 219 111 204 83 q 294 247 240 151 q 350 319 335 319 q 353 313 353 318 q 363 296 354 308 q 365 286 365 290 z "},"":{"ha":338,"x_min":-211,"x_max":397,"o":"m 396 274 q 349 163 393 235 q 275 65 310 97 q 150 -7 222 15 q 117 -12 132 -12 q 100 -10 111 -12 q 92 -8 97 -8 q 81 -14 85 -8 q -136 -396 -31 -189 q -167 -474 -167 -456 q -161 -487 -167 -481 q -156 -496 -156 -494 q -160 -500 -156 -500 q -203 -462 -178 -500 q -211 -435 -211 -450 q -201 -401 -211 -418 q -78 -201 -154 -317 l 57 3 q 75 53 76 32 q 75 58 75 53 q 93 75 75 69 q 124 114 101 76 q 310 486 310 428 q 281 518 310 518 q 229 497 256 518 q 225 494 226 494 q 219 499 219 494 q 224 504 219 500 q 335 546 283 546 q 374 511 374 546 q 289 338 374 475 q 201 193 251 276 q 201 189 200 189 q 253 242 156 189 q 375 294 351 294 q 396 274 397 294 m 332 253 q 325 261 332 261 q 317 258 322 261 q 175 144 233 214 q 151 110 169 138 q 124 65 143 97 q 119 50 119 60 q 132 24 119 36 q 158 13 144 13 q 236 68 189 13 q 293 150 268 106 q 332 253 332 218 z "},"":{"ha":322,"x_min":-536,"x_max":417,"o":"m 417 483 q 401 450 417 467 q 369 433 386 433 q 353 450 353 433 q 367 485 353 468 q 399 501 381 501 q 417 483 417 501 m 317 492 q 301 458 317 475 q 269 442 286 442 q 253 458 253 442 q 267 493 253 476 q 299 510 281 510 q 317 492 317 510 m 365 286 q 361 271 365 278 q 269 140 322 203 q 178 7 235 99 q -282 -568 -121 -478 q -414 -606 -349 -606 q -497 -582 -464 -606 q -536 -507 -536 -556 l -536 -497 q -532 -458 -536 -492 q -528 -453 -531 -453 q -525 -457 -525 -453 q -479 -532 -524 -504 q -390 -556 -440 -556 q -74 -342 -240 -556 q 74 -133 17 -226 l 190 56 q 192 58 192 57 l 190 58 q 186 57 189 58 q 103 21 140 21 q 64 53 64 21 q 71 82 64 65 q 135 193 86 118 q 171 249 136 196 q 189 263 179 261 q 210 268 199 265 q 217 269 213 269 q 222 265 222 269 q 219 258 222 263 q 153 149 192 215 q 114 54 114 83 q 128 39 114 39 q 189 69 154 39 q 219 111 204 83 q 294 247 240 151 q 350 319 335 319 q 353 313 351 319 q 357 304 354 307 l 360 300 q 364 295 363 300 q 365 286 365 290 z "},"":{"ha":251,"x_min":64,"x_max":393,"o":"m 393 183 q 392 176 393 181 q 235 32 325 92 q 125 -6 178 -6 q 64 42 64 -6 q 79 97 64 63 q 178 271 118 185 q 215 296 192 292 q 218 297 217 296 l 219 297 q 229 289 229 297 q 225 276 229 283 q 125 69 150 158 q 121 46 121 54 q 154 14 121 14 q 217 33 182 14 q 385 183 315 88 q 390 188 389 188 q 393 183 393 186 z "},"":{"ha":615,"x_min":26,"x_max":610,"o":"m 610 11 q 592 -42 610 -42 q 588 -35 588 -42 q 576 -14 588 -18 q 385 8 515 8 q 53 -18 172 8 q 42 -19 49 -19 q 26 -8 26 -19 q 54 8 26 7 q 94 10 75 10 q 201 128 138 15 q 275 269 232 182 q 234 255 268 268 q 193 242 200 242 q 172 261 172 242 q 176 264 174 264 l 179 264 q 286 290 204 264 q 429 574 335 388 q 450 590 435 585 q 594 615 515 615 q 608 606 608 615 q 597 596 608 596 q 577 598 590 596 q 557 600 564 600 q 492 551 525 600 q 361 315 464 511 q 444 338 435 338 q 456 326 454 338 q 453 315 456 315 q 451 317 451 315 l 449 317 q 350 293 442 319 q 336 265 344 282 l 283 165 q 154 29 233 71 q 143 18 143 24 q 150 14 143 14 q 433 35 208 17 q 535 38 467 38 q 610 11 610 38 z "},"":{"ha":285,"x_min":49,"x_max":718,"o":"m 718 893 q 657 747 718 847 q 308 371 511 508 q 249 336 288 360 q 215 283 238 319 q 319 313 303 313 q 332 296 332 313 q 328 290 332 290 q 325 292 326 290 l 321 292 q 207 260 303 292 q 146 147 189 228 q 117 47 117 89 q 157 3 117 3 q 251 35 193 3 q 415 185 340 83 q 422 190 421 190 q 426 186 426 190 q 422 179 425 182 q 293 51 361 104 q 128 -18 201 -18 q 61 44 61 -18 q 89 133 61 89 l 156 242 q 81 219 133 235 q 69 217 71 217 q 56 223 64 217 q 49 235 49 229 q 76 243 53 238 q 168 268 122 253 q 424 694 286 478 q 536 826 474 774 q 674 914 608 888 q 693 918 683 918 q 718 893 718 918 m 654 857 q 638 879 654 879 q 607 863 624 879 q 436 629 546 801 q 279 386 392 561 q 260 354 269 368 q 306 383 283 368 q 610 726 504 526 q 653 844 640 785 q 654 857 654 849 z "},"":{"ha":1135,"x_min":143,"x_max":1244,"o":"m 1244 601 q 1226 564 1242 599 q 1219 560 1225 560 q 1213 567 1217 560 q 1201 575 1210 574 q 1008 588 1144 588 q 972 574 982 588 q 831 339 911 486 q 829 333 829 338 q 839 326 829 326 q 918 325 879 325 q 1031 328 997 325 q 1119 346 1075 332 l 1125 346 q 1129 343 1129 346 q 1124 332 1129 342 q 1118 317 1118 322 q 1104 306 1115 306 l 1103 306 q 1022 307 1075 306 q 940 308 968 308 q 824 307 875 308 q 808 299 813 307 q 719 122 753 200 q 706 67 706 90 q 803 1 706 1 q 1051 39 913 1 q 1181 93 1132 61 q 1188 96 1186 96 q 1192 92 1192 96 q 1158 51 1179 79 q 1118 26 1149 33 q 826 -12 969 -7 l 793 -14 q 672 -4 728 -14 q 631 39 631 3 q 649 96 631 64 l 654 106 q 368 -21 524 -21 q 288 -11 335 -21 q 182 49 221 3 q 143 164 143 96 q 204 353 143 246 q 329 514 257 444 q 590 617 435 617 q 814 490 788 617 q 818 439 818 471 q 817 411 818 421 q 904 578 857 492 q 949 601 917 601 q 1081 606 986 601 q 1211 608 1164 608 l 1235 608 q 1244 601 1244 608 m 767 432 q 588 606 767 606 q 338 446 454 606 q 213 142 213 274 q 347 -1 213 18 q 385 -4 367 -4 q 610 92 507 -4 q 744 301 703 176 q 767 432 767 367 z "},"":{"ha":440,"x_min":49,"x_max":576,"o":"m 576 164 q 574 158 576 161 q 458 50 525 97 q 315 -7 378 -7 q 246 44 256 -7 l 246 51 q 244 60 244 57 q 246 67 244 63 l 246 78 q 243 75 246 76 q 99 -6 163 -6 q 49 46 49 -6 q 53 72 49 57 q 143 224 75 150 q 293 304 219 304 l 300 304 q 340 257 339 301 q 344 250 340 250 q 350 254 346 250 q 405 292 369 274 q 464 311 440 311 q 490 288 490 311 q 403 183 490 236 q 324 147 369 164 q 292 57 292 136 q 335 8 292 8 q 463 64 388 8 q 564 164 526 111 q 571 168 568 168 q 576 164 576 168 m 446 279 l 446 285 q 433 292 443 292 l 431 292 q 322 169 369 282 l 322 168 q 321 165 321 167 q 328 161 321 161 q 336 163 332 161 q 429 238 393 183 q 446 279 446 263 m 317 264 q 288 293 317 293 q 199 240 244 293 q 104 81 129 161 q 97 43 97 58 q 121 13 97 13 q 169 35 140 13 q 313 240 269 111 q 317 264 317 253 z "},"":{"ha":465,"x_min":33,"x_max":710,"o":"m 710 829 q 699 813 710 824 q 619 739 676 792 q 544 674 549 674 q 538 682 538 674 q 528 818 532 743 q 535 836 528 831 q 558 851 556 851 q 564 843 564 851 q 567 718 564 776 q 571 710 567 710 q 579 714 575 711 q 685 822 638 763 q 703 838 697 838 q 710 829 710 838 m 621 578 q 615 556 621 569 q 606 535 607 538 q 589 500 596 500 q 583 506 583 500 q 585 515 583 508 q 588 526 588 522 q 551 583 588 564 q 481 600 521 600 q 386 566 422 600 q 350 474 350 532 q 376 382 350 432 q 454 271 410 338 q 479 193 479 233 q 429 78 479 135 q 326 1 386 29 q 179 -28 263 -28 q 51 -3 103 -28 q 33 25 33 6 q 36 42 33 32 q 58 122 40 71 q 64 125 60 125 q 68 118 68 125 l 68 115 q 64 94 64 107 q 108 13 64 40 q 201 -12 144 -12 q 304 8 260 -12 q 411 154 411 58 q 371 253 411 200 q 328 311 358 269 q 294 408 294 360 q 354 551 294 482 q 528 632 424 632 q 613 599 583 632 q 621 578 621 589 z "},"":{"ha":261,"x_min":-3,"x_max":488,"o":"m 488 536 q 478 519 488 528 q 374 422 435 483 q 324 382 333 382 q 317 389 317 382 q 306 526 310 464 q 317 547 306 535 q 338 560 329 560 q 343 550 343 560 q 346 425 343 483 q 350 417 346 417 q 358 421 354 418 q 464 529 417 469 q 481 546 478 546 q 488 536 488 546 m 360 321 q 356 310 360 317 q 339 297 350 297 q 326 300 335 297 q 311 303 317 303 q 271 249 279 303 q 267 171 269 239 q 211 10 263 56 q 94 -40 154 -40 q 33 -22 64 -40 q -3 28 -3 -1 q 28 68 -3 43 q 36 71 31 71 q 38 68 38 71 q 35 58 38 65 q 32 47 32 51 q 44 10 32 35 q 107 -26 63 -26 q 214 107 197 -26 q 221 222 214 115 q 265 295 222 254 q 339 336 308 336 q 360 321 360 336 z "},"":{"ha":635,"x_min":114,"x_max":1054,"o":"m 732 733 q 717 700 732 717 q 685 683 701 683 q 668 700 668 683 q 682 734 668 718 q 714 750 696 750 q 732 733 732 750 m 590 739 q 575 706 590 722 q 543 689 560 689 q 526 706 526 689 q 540 740 526 724 q 572 756 554 756 q 590 739 590 756 m 1054 675 q 1051 671 1054 671 q 1040 673 1049 671 q 1025 675 1031 675 q 901 626 982 675 q 515 288 714 514 q 471 218 492 261 q 411 76 436 147 q 399 32 404 54 q 378 -1 388 -4 q 357 1 367 1 q 292 -26 313 1 q 285 -29 290 -29 q 276 -21 276 -29 q 306 17 276 -26 q 433 365 433 206 q 265 569 433 569 q 163 529 204 569 q 124 481 146 507 q 118 479 121 479 q 114 483 114 479 q 117 492 114 488 q 318 610 194 610 q 447 559 403 610 q 492 424 492 508 q 482 308 492 354 q 488 299 481 299 q 494 301 492 299 l 554 357 l 654 451 q 817 601 781 571 q 996 711 946 711 q 1033 701 1013 711 q 1054 675 1054 690 z "},"":{"ha":642,"x_min":29,"x_max":954,"o":"m 760 821 q 749 804 760 814 q 644 707 704 767 q 594 665 603 665 q 588 674 588 665 q 578 810 582 735 q 601 840 576 824 q 610 844 606 844 q 614 835 614 844 q 617 710 614 768 q 622 701 617 701 q 629 706 625 701 q 735 814 688 754 q 753 831 749 831 q 760 821 760 831 m 954 83 q 886 -64 935 -8 q 742 -129 828 -129 q 403 -75 660 -129 q 217 -37 285 -50 q 39 -12 115 -18 q 29 -4 29 -11 q 39 1 29 1 q 103 25 75 1 q 411 294 208 113 q 678 558 590 454 q 689 578 689 571 q 661 589 689 589 q 379 575 504 589 q 263 536 293 565 q 253 531 257 531 q 250 539 250 531 q 272 579 257 564 q 296 590 276 585 q 533 600 368 596 l 819 606 q 832 599 832 606 q 813 584 832 597 q 792 569 793 571 q 494 301 700 490 q 206 17 339 158 q 199 3 199 7 q 211 -10 199 -6 q 622 -100 376 -61 q 696 -106 657 -106 q 943 86 901 -106 q 950 94 944 94 q 954 88 954 94 l 954 83 z "},"":{"ha":361,"x_min":-19,"x_max":786,"o":"m 485 536 q 475 519 485 528 q 371 422 432 483 q 321 382 331 382 q 314 389 314 382 q 303 526 307 443 q 311 543 303 536 q 335 560 332 560 q 340 550 340 560 q 343 425 340 483 q 347 417 343 417 q 356 421 351 418 q 461 529 414 469 q 478 546 475 546 q 485 536 485 546 m 786 -49 q 767 -94 786 -65 q 550 -203 696 -203 q 149 -47 383 -203 q 57 19 117 -26 q 47 24 53 24 q 38 19 44 24 l -10 -10 q -19 0 -19 -10 q -14 8 -19 7 q 297 215 132 78 q 300 219 300 218 q 296 224 299 224 q 213 206 228 206 q 156 249 153 206 q 173 290 157 265 q 204 317 189 314 q 211 310 211 317 q 208 294 211 306 q 204 276 204 283 q 260 226 204 226 q 392 299 313 226 q 400 301 394 301 q 407 294 407 301 q 400 282 407 288 q 107 56 306 206 q 100 47 100 51 q 107 40 100 44 q 469 -162 376 -124 q 579 -187 529 -187 q 776 -49 704 -187 q 782 -44 778 -44 q 786 -49 786 -46 z "},"":{"ha":288,"x_min":-246,"x_max":579,"o":"m 579 643 q 575 629 579 636 q 556 610 556 610 q 544 614 553 610 q 492 622 529 622 q 399 567 435 622 q 333 442 372 526 q 264 293 314 400 q 419 307 315 299 l 421 308 q 428 304 426 308 q 421 300 426 301 q 263 271 376 290 l 253 269 q -53 -189 69 -111 q -165 -228 -115 -228 q -217 -217 -193 -228 q -246 -178 -246 -203 l -246 -174 q -215 -140 -244 -161 q -206 -135 -210 -135 q -197 -153 -204 -135 q -187 -174 -190 -171 q -126 -200 -165 -200 l -119 -200 q 36 -71 -33 -197 q 150 156 78 7 q 201 264 161 178 l 111 253 q 99 260 99 253 q 108 273 99 263 q 120 288 118 283 q 131 292 122 292 q 142 290 133 292 q 158 288 151 288 l 176 288 q 195 289 183 288 q 214 290 207 290 q 292 436 267 396 q 500 657 414 633 q 540 664 525 664 q 579 643 579 664 z "},"":{"ha":319,"x_min":71,"x_max":250,"o":"m 250 410 q 233 379 250 396 q 222 372 226 372 q 218 382 218 372 q 214 507 218 369 q 208 515 214 515 q 201 511 206 515 q 94 403 147 463 q 76 388 81 388 q 71 394 71 388 q 83 413 71 401 q 186 510 125 449 q 231 549 215 539 q 238 551 236 551 q 243 544 243 551 q 247 477 243 522 q 250 410 250 432 z "},"":{"ha":319,"x_min":86,"x_max":268,"o":"m 268 536 q 257 519 268 529 q 153 422 213 482 q 108 383 133 403 q 103 382 107 382 q 96 389 96 382 q 91 456 96 411 q 86 522 86 500 l 86 526 q 110 556 86 535 q 118 560 114 560 q 122 550 122 560 q 125 425 122 483 q 131 417 125 417 q 138 421 133 417 q 243 529 196 469 q 261 546 257 546 q 268 536 268 546 z "},"":{"ha":319,"x_min":108,"x_max":235,"o":"m 235 465 l 231 444 l 108 442 l 115 463 l 235 465 z "},"":{"ha":319,"x_min":74,"x_max":257,"o":"m 257 479 q 246 461 257 475 q 142 403 201 403 q 74 472 74 403 q 90 490 74 485 q 99 492 93 492 q 104 483 104 492 l 104 481 q 158 422 104 422 q 235 471 204 422 q 250 488 244 488 q 257 479 257 488 z "},"":{"ha":319,"x_min":124,"x_max":189,"o":"m 189 464 q 188 456 189 458 q 156 424 178 429 q 146 422 153 422 q 124 440 128 422 l 124 447 q 163 486 124 486 q 189 464 189 486 z "},"":{"ha":383,"x_min":97,"x_max":233,"o":"m 233 490 q 209 433 233 457 q 151 408 185 408 q 97 460 97 408 q 123 516 97 492 q 181 540 149 540 q 233 490 233 540 m 213 486 q 176 522 213 522 q 119 475 131 522 q 118 463 118 471 q 156 428 118 428 q 211 475 200 428 q 213 486 213 479 z "},"":{"ha":319,"x_min":92,"x_max":239,"o":"m 239 14 q 233 10 239 11 q 171 -25 199 -3 q 136 -85 136 -54 q 183 -126 136 -126 q 197 -124 189 -126 l 200 -124 q 203 -126 203 -124 q 197 -132 201 -131 q 157 -139 176 -139 l 151 -139 q 92 -99 92 -139 q 119 -50 92 -76 q 232 17 165 -7 l 235 17 q 239 14 239 17 z "},"":{"ha":319,"x_min":10,"x_max":314,"o":"m 314 499 l 314 497 q 313 496 313 497 q 296 451 307 467 q 229 410 265 410 q 185 428 207 410 q 136 472 172 440 q 104 486 121 486 q 71 472 89 486 q 43 442 67 469 q 14 415 19 415 q 10 419 10 415 q 15 431 10 424 q 88 500 43 467 q 124 514 106 514 q 171 488 140 514 q 213 447 192 467 q 247 435 231 435 q 285 453 271 435 q 300 496 300 472 q 308 506 300 506 q 314 499 314 506 z "},"":{"ha":319,"x_min":63,"x_max":265,"o":"m 265 508 q 257 493 265 503 q 150 389 171 400 q 149 392 149 389 q 150 396 149 393 q 196 458 163 413 q 244 524 222 496 q 253 528 249 528 q 265 508 265 528 m 181 511 q 171 493 181 503 q 64 388 69 388 q 63 389 64 388 q 64 393 63 390 q 164 526 76 413 q 171 531 167 531 q 181 511 181 531 z "},"":{"ha":850,"x_min":8,"x_max":844,"o":"m 453 956 l 844 0 l 8 0 l 453 956 m 403 718 l 100 68 l 672 68 l 403 718 z "},"":{"ha":1067,"x_min":47,"x_max":1022,"o":"m 435 211 l 457 0 l 47 0 l 47 225 l 68 225 q 96 161 79 178 q 160 140 115 140 l 379 140 l 376 179 q 158 314 236 221 q 75 553 75 411 q 281 894 75 774 q 535 956 385 956 q 789 894 685 956 q 861 847 842 864 q 994 553 994 738 q 911 314 994 411 q 693 179 833 221 l 690 140 l 910 140 q 974 161 954 140 q 1001 225 990 178 l 1022 225 l 1022 0 l 613 0 l 635 211 q 713 251 692 236 q 832 558 832 342 q 763 808 832 717 q 535 911 686 911 q 307 808 383 911 q 238 558 238 717 q 357 251 238 342 q 435 211 378 236 z "},"":{"ha":800,"x_min":46,"x_max":788,"o":"m 85 694 l 204 694 l 204 232 q 276 85 204 117 q 336 71 308 71 q 390 83 363 71 q 492 178 465 118 l 492 694 l 611 694 l 611 161 q 628 86 611 119 q 686 43 649 43 q 749 96 735 43 q 760 140 753 111 l 788 140 q 763 65 776 90 q 619 -24 717 -24 q 507 51 535 -24 q 493 113 506 57 q 265 -24 399 -24 q 183 4 222 -24 q 135 43 174 11 l 135 11 q 151 -85 135 -32 q 176 -172 172 -150 q 179 -211 179 -193 q 164 -275 179 -247 q 113 -310 146 -310 q 61 -275 79 -310 q 46 -211 46 -247 q 72 -83 46 -179 q 85 11 85 -39 l 85 694 z "},"":{"ha":763,"x_min":14,"x_max":736,"o":"m 465 557 l 308 557 q 244 69 281 236 q 154 -26 224 -26 q 101 -4 124 -26 q 79 49 79 18 q 114 119 79 74 q 154 168 131 142 q 183 239 179 203 l 224 557 l 158 557 q 67 513 97 557 l 38 469 l 14 469 q 32 522 19 488 q 76 604 47 563 q 207 676 128 676 l 725 676 l 725 557 l 550 557 q 533 231 533 394 q 554 147 533 182 q 624 106 578 106 q 672 124 650 106 q 700 169 694 143 q 707 210 704 186 l 736 210 q 713 92 735 149 q 639 -3 685 24 q 569 -22 604 -22 q 519 -7 540 -22 q 442 333 414 69 l 465 557 z "},"":{"ha":694,"x_min":78,"x_max":772,"o":"m 772 176 l 78 176 l 78 197 l 772 197 l 772 176 z "},"":{"ha":1389,"x_min":258,"x_max":1286,"o":"m 1286 189 q 1268 178 1286 178 l 1267 178 q 1247 178 1263 178 q 1218 179 1231 179 q 1163 179 1218 179 q 750 178 1097 179 l 272 176 q 258 186 258 176 q 275 197 258 197 l 276 197 q 363 197 363 197 l 456 196 l 1271 199 q 1286 189 1286 194 z "},"":{"ha":292,"x_min":251,"x_max":411,"o":"m 411 632 q 408 626 411 628 q 290 424 290 521 q 313 361 290 376 q 317 351 317 358 q 315 344 317 347 q 279 310 290 310 q 272 314 276 310 q 251 379 251 342 q 397 635 251 483 q 404 638 400 638 q 411 632 411 638 z "},"":{"ha":292,"x_min":217,"x_max":376,"o":"m 376 568 q 231 313 376 464 q 224 310 228 310 q 217 315 217 310 q 219 321 217 319 q 336 524 336 424 q 315 586 336 572 q 310 596 310 590 q 313 603 310 599 q 347 638 338 638 q 356 633 351 638 q 376 568 376 607 z "},"":{"ha":265,"x_min":75,"x_max":235,"o":"m 235 125 q 89 -131 235 21 q 82 -133 86 -133 q 75 -128 75 -133 q 78 -122 75 -124 q 194 81 194 -19 q 174 143 194 129 q 168 153 168 147 q 171 160 168 156 q 206 194 196 194 q 214 190 210 194 q 235 125 235 164 z "},"":{"ha":358,"x_min":201,"x_max":476,"o":"m 476 618 q 474 613 476 614 q 354 407 354 506 q 356 388 354 393 q 378 347 360 360 q 382 338 382 344 q 381 331 382 333 q 344 296 356 296 q 338 300 342 296 q 317 365 317 328 q 463 621 317 469 q 469 624 465 624 q 476 618 476 624 m 361 618 q 358 613 361 614 q 260 489 296 557 q 240 407 240 453 q 242 388 240 393 q 263 347 246 358 q 267 338 267 344 q 265 331 267 333 q 229 296 240 296 q 222 300 226 296 q 201 365 201 328 q 347 621 201 469 q 354 624 350 624 q 361 618 361 624 z "},"":{"ha":358,"x_min":190,"x_max":465,"o":"m 465 568 q 319 313 465 464 q 313 310 317 310 q 306 315 306 310 q 308 321 306 319 q 426 525 426 426 q 404 586 426 571 q 399 596 399 590 q 401 603 399 599 q 436 638 426 638 q 444 633 440 638 q 465 568 465 607 m 350 568 q 204 313 350 464 q 197 310 201 310 q 190 315 190 310 q 193 321 190 319 q 311 526 311 436 q 310 546 311 540 q 295 578 307 561 q 283 596 283 596 q 286 603 283 599 q 321 638 311 638 q 329 633 325 638 q 350 568 350 607 z "},"":{"ha":358,"x_min":51,"x_max":325,"o":"m 325 125 q 181 -131 325 19 q 174 -133 178 -133 q 167 -128 167 -133 q 169 -122 167 -124 q 267 1 229 -68 q 288 83 288 40 q 286 103 288 97 q 272 135 283 118 q 260 153 260 153 q 263 160 260 156 q 297 194 288 194 q 306 190 301 194 q 325 125 325 165 m 210 125 q 65 -131 210 19 q 58 -133 63 -133 q 51 -128 51 -133 q 54 -122 51 -124 q 172 83 172 -17 q 171 103 172 97 q 156 135 168 118 q 144 153 144 153 q 147 160 144 156 q 182 194 172 194 q 190 190 186 194 q 210 125 210 165 z "},"":{"ha":368,"x_min":81,"x_max":488,"o":"m 488 357 q 483 340 488 349 q 465 319 469 319 q 457 321 460 319 q 332 347 397 340 q 158 -10 225 156 q 133 -44 147 -39 q 101 -57 106 -57 q 90 -47 96 -57 q 81 -17 81 -19 q 92 11 81 -4 q 313 349 171 122 l 296 349 q 194 332 242 349 q 169 328 183 328 q 144 346 144 328 q 157 372 144 360 q 183 385 169 385 q 247 372 171 385 q 308 365 283 365 l 322 365 q 386 493 340 401 q 442 613 401 526 q 461 625 447 625 q 485 599 485 625 q 479 578 485 589 q 343 365 438 518 q 442 372 358 367 l 461 374 q 488 357 488 374 z "},"":{"ha":368,"x_min":78,"x_max":489,"o":"m 489 357 q 485 340 489 349 q 465 319 471 319 q 457 321 460 319 q 333 347 397 340 q 267 236 311 311 q 386 246 311 240 l 406 247 q 433 228 433 247 q 431 214 433 219 l 425 203 q 407 190 419 190 q 394 193 403 190 q 257 218 324 218 q 160 -10 232 174 q 108 -56 146 -46 q 103 -57 106 -57 q 92 -47 96 -57 q 82 -19 83 -29 l 82 -17 q 93 11 82 -4 q 225 199 131 60 l 238 218 q 135 204 196 218 q 110 200 124 200 q 78 214 78 200 q 97 246 78 219 q 118 251 103 251 l 126 251 q 133 250 132 250 q 249 236 194 240 q 314 349 271 274 l 297 349 q 196 332 243 349 q 171 328 185 328 q 144 346 144 328 q 165 379 144 358 q 183 385 171 385 q 215 379 196 385 q 247 371 240 372 q 308 365 281 365 l 324 365 q 385 491 347 407 q 443 613 422 575 q 461 625 450 625 q 486 599 486 625 q 481 578 486 589 q 344 365 439 515 q 443 372 360 367 l 463 374 q 489 357 489 374 z "},"":{"ha":694,"x_min":333,"x_max":814,"o":"m 333 481 q 403 651 333 581 q 574 721 474 721 q 744 651 674 721 q 814 481 814 581 q 744 310 814 381 q 574 240 674 240 q 403 310 474 240 q 333 481 333 381 z "},"":{"ha":804,"x_min":124,"x_max":701,"o":"m 701 61 q 700 50 701 54 q 650 -6 686 10 q 640 -7 647 -7 q 615 14 615 -7 l 615 18 q 634 63 615 42 q 676 85 653 85 q 685 83 682 85 q 701 61 701 79 m 453 61 q 451 50 453 54 q 401 -6 438 10 q 392 -7 399 -7 q 367 14 367 -7 l 367 18 q 385 63 367 42 q 428 85 404 85 q 436 83 433 85 q 453 61 453 79 m 211 61 q 208 50 211 58 q 158 -6 194 10 q 149 -7 156 -7 q 124 14 124 -7 l 124 18 q 142 63 124 42 q 185 85 161 85 q 193 83 190 85 q 211 61 211 78 z "},"":{"ha":1151,"x_min":81,"x_max":1158,"o":"m 1158 301 q 1115 292 1158 294 q 1107 286 1107 292 q 1108 285 1107 285 l 1108 283 q 1118 251 1118 269 l 1118 244 q 1093 153 1118 204 q 983 14 1053 69 q 904 -15 947 -15 q 849 38 849 -15 l 849 49 q 874 146 849 100 q 988 274 925 240 q 992 279 992 275 q 986 282 990 282 l 985 282 q 906 278 958 282 q 826 274 853 274 q 814 261 814 274 q 815 247 814 257 q 817 233 817 238 q 801 161 817 204 q 732 47 778 97 q 617 -12 676 -12 q 554 54 554 -12 q 650 236 554 140 q 99 -153 325 32 q 86 -158 93 -158 l 85 -158 q 81 -153 81 -158 q 83 -147 81 -151 q 85 -139 85 -143 q 83 -131 85 -133 l 83 -128 q 93 -108 83 -118 q 651 475 501 271 q 722 611 722 571 q 642 667 722 667 q 599 663 625 667 q 465 633 556 651 q 453 632 461 632 q 428 640 436 632 q 365 582 396 625 q 301 429 310 504 l 301 418 q 335 374 301 374 q 371 386 350 374 q 451 473 419 415 q 482 589 482 531 l 482 592 q 476 614 482 603 q 469 626 469 625 q 474 631 469 631 l 476 631 q 513 618 494 624 q 526 579 526 611 q 458 432 526 507 q 318 357 389 357 q 250 415 250 357 l 250 426 q 332 589 261 510 q 422 646 365 626 q 418 664 418 653 q 431 700 418 700 q 436 693 436 700 q 465 679 438 679 q 547 687 493 679 q 628 694 600 694 q 701 676 672 694 q 738 614 738 654 q 663 468 738 571 q 207 -42 544 307 l 207 -43 l 453 126 q 689 271 576 211 q 714 285 714 285 q 718 279 718 285 l 718 279 q 693 253 718 276 q 665 225 665 225 q 621 146 640 197 q 601 58 601 94 q 639 7 601 7 q 697 40 664 7 q 769 218 769 114 l 769 231 q 749 275 769 257 q 729 292 729 293 q 765 315 729 289 q 771 317 767 317 q 782 313 776 317 q 894 290 808 290 q 1018 296 949 290 q 1047 299 1040 297 q 1072 301 1054 301 l 1078 301 q 1115 303 1090 301 q 1153 306 1140 306 l 1154 306 q 1158 301 1158 306 m 1071 249 q 1040 285 1071 285 q 1031 283 1035 285 q 933 185 982 272 q 890 43 890 107 q 926 3 890 3 q 1020 79 969 3 q 1071 249 1071 156 z "},"":{"ha":382,"x_min":171,"x_max":414,"o":"m 414 317 q 392 297 407 311 q 224 168 342 261 q 211 149 211 158 q 214 135 211 146 q 268 -22 232 82 q 258 -26 268 -26 q 226 -35 217 -35 q 217 -24 219 -35 q 171 133 194 61 l 171 136 q 181 149 171 142 q 233 190 182 150 q 408 326 406 326 q 414 319 414 326 l 414 317 z "},"":{"ha":382,"x_min":133,"x_max":371,"o":"m 371 158 q 365 146 371 150 q 167 -31 261 68 q 144 -42 156 -42 q 133 -35 133 -42 q 142 -24 133 -31 q 318 125 222 39 q 328 140 328 133 q 322 153 328 143 q 235 296 279 224 q 232 304 232 301 q 260 315 232 307 q 268 317 263 317 q 325 236 278 317 q 368 167 339 213 q 371 158 371 161 z "},"":{"ha":751,"x_min":35,"x_max":960,"o":"m 960 758 q 950 739 960 749 q 65 -217 433 204 q 46 -229 54 -229 q 36 -224 40 -229 q 35 -217 35 -222 q 49 -187 35 -203 q 921 751 376 163 q 949 769 938 769 l 951 769 q 960 758 960 767 z "},"":{"ha":599,"x_min":185,"x_max":758,"o":"m 758 579 l 753 560 l 742 522 q 708 378 728 474 q 699 325 707 369 q 669 317 685 324 l 674 336 l 696 431 q 725 546 711 493 l 693 514 q 603 415 640 461 q 536 331 569 375 q 511 317 535 329 q 519 386 513 333 l 526 447 l 535 543 q 494 499 529 538 l 449 447 q 346 319 382 372 q 319 311 336 318 l 342 338 l 393 397 l 486 501 q 542 569 504 524 q 563 578 550 572 l 558 536 q 547 450 556 511 q 542 389 547 447 l 539 360 q 632 464 578 407 l 685 519 q 724 561 697 532 q 732 569 725 564 q 758 579 744 574 m 446 579 l 433 564 q 414 567 426 567 q 350 563 379 567 q 308 489 347 558 q 265 408 300 475 q 225 328 238 356 l 219 315 q 185 310 208 314 q 200 333 186 313 l 201 336 q 313 547 254 419 l 319 563 q 206 543 272 558 l 218 561 q 240 565 226 563 q 331 572 263 567 l 389 576 l 446 579 z "},"":{"ha":686,"x_min":26,"x_max":642,"o":"m 144 926 l 90 996 q 272 1036 182 1036 q 575 842 465 1036 q 642 546 642 724 q 626 388 642 482 q 514 81 594 192 q 299 -29 433 -29 q 154 15 218 -29 q 38 217 49 89 q 104 449 26 342 q 311 558 186 563 q 422 532 376 557 q 519 464 451 517 q 535 625 532 535 q 490 846 538 732 q 429 929 469 894 q 335 969 385 967 q 292 971 314 971 q 215 957 251 971 q 144 926 211 957 m 508 415 q 454 472 461 467 q 358 504 413 506 q 225 429 279 503 q 156 206 156 335 q 219 32 156 74 q 281 13 250 13 q 335 25 306 13 q 508 415 468 83 z "},"":{"ha":1143,"x_min":35,"x_max":1115,"o":"m 981 874 l 981 4 q 1017 -87 981 -64 q 1115 -108 1044 -108 l 1115 -140 l 690 -140 l 690 -108 q 789 -87 760 -108 q 824 4 824 -62 l 824 967 l 326 967 l 326 4 q 363 -87 326 -64 q 461 -108 390 -108 l 461 -140 l 35 -140 l 35 -108 q 133 -87 106 -108 q 169 4 169 -64 l 169 874 q 38 1011 169 1011 l 38 1043 l 1111 1043 l 1111 1011 q 981 874 981 1011 z "},"":{"ha":990,"x_min":19,"x_max":965,"o":"m 857 1035 l 865 814 l 838 814 q 788 926 810 904 q 625 972 743 972 l 260 972 l 639 475 l 231 4 l 746 4 q 869 43 829 4 q 933 161 899 72 l 965 161 q 929 6 939 50 q 906 -150 918 -50 q 799 -135 807 -135 l 100 -135 q 60 -137 86 -135 q 19 -139 33 -139 l 504 414 l 22 1044 q 167 1035 188 1035 l 857 1035 z "},"":{"ha":322,"x_min":140,"x_max":385,"o":"m 385 189 q 367 178 385 178 l 301 178 q 242 178 242 178 q 154 176 167 176 q 140 185 140 176 q 157 197 140 197 l 158 197 q 193 197 193 197 q 211 196 200 197 q 221 196 219 196 q 295 197 246 196 q 369 199 344 199 q 385 189 385 199 z "},"":{"ha":306,"x_min":193,"x_max":279,"o":"m 279 285 q 228 218 279 242 q 218 217 225 217 q 193 238 193 217 l 193 242 q 212 287 193 265 q 254 308 231 308 q 263 307 260 308 q 279 285 279 303 z "},"":{"ha":763,"x_min":14,"x_max":715,"o":"m 36 579 l 14 625 l 217 725 l 490 165 l 667 1274 l 715 1267 l 507 -53 l 169 644 l 36 579 z "},"":{"ha":990,"x_min":28,"x_max":964,"o":"m 496 413 q 675 543 608 514 q 760 561 715 561 q 892 511 835 561 q 956 388 949 461 q 901 233 964 300 q 751 174 839 165 q 582 242 661 182 q 496 321 539 281 q 410 242 453 281 q 240 174 331 182 q 90 233 153 165 q 36 388 28 300 q 100 511 43 461 q 232 561 157 561 q 317 543 276 561 q 496 413 383 514 m 450 367 q 285 479 339 460 q 231 489 257 489 q 142 450 179 489 q 106 360 104 411 q 146 274 107 308 q 236 239 185 239 q 294 251 257 239 q 357 282 331 263 q 450 367 378 297 m 542 367 q 635 282 614 297 q 756 239 693 239 q 846 274 807 239 q 886 360 885 308 q 850 450 888 411 q 761 489 813 489 q 707 479 735 489 q 542 367 653 460 z "},"":{"ha":381,"x_min":3,"x_max":404,"o":"m 264 678 l 263 378 q 215 -29 261 133 q 175 -114 200 -85 q 135 -137 164 -126 q 86 -149 106 -149 q 28 -124 53 -149 q 3 -65 3 -99 q 40 -11 3 -31 q 64 -4 53 -4 q 119 -39 88 -4 q 139 -50 129 -50 q 175 103 179 -50 q 167 539 167 392 l 167 739 q 169 956 167 904 q 203 1169 176 1079 q 310 1272 233 1272 q 376 1251 347 1272 q 404 1194 404 1231 q 383 1151 404 1168 q 333 1133 361 1133 q 292 1150 313 1133 q 263 1167 271 1167 q 238 1136 239 1167 q 264 678 265 871 z "},"":{"ha":763,"x_min":19,"x_max":732,"o":"m 681 547 l 732 514 q 536 404 667 404 q 485 411 508 404 l 276 471 q 215 481 243 481 q 121 446 160 481 q 79 397 117 442 l 19 435 q 219 544 103 544 q 290 535 256 544 l 500 476 q 610 489 549 463 q 681 547 654 508 m 681 338 l 732 304 q 536 194 667 194 q 485 201 508 194 l 276 261 q 215 271 243 271 q 121 236 160 271 q 79 188 117 232 l 19 225 q 219 335 103 335 q 290 325 256 335 l 500 267 q 610 279 549 253 q 681 338 654 299 z "},"":{"ha":763,"x_min":21,"x_max":750,"o":"m 558 763 l 626 724 l 521 535 l 750 535 l 750 458 l 479 458 l 371 265 l 750 265 l 750 189 l 329 189 l 204 -35 l 136 4 l 239 189 l 21 189 l 21 265 l 282 265 l 389 458 l 21 458 l 21 535 l 432 535 l 558 763 z "},"":{"ha":763,"x_min":40,"x_max":731,"o":"m 40 0 l 40 76 l 731 76 l 731 0 l 40 0 m 40 482 l 40 568 l 731 888 l 731 801 l 129 525 l 731 249 l 731 163 l 40 482 z "},"":{"ha":763,"x_min":40,"x_max":731,"o":"m 731 76 l 731 0 l 40 0 l 40 76 l 731 76 m 731 568 l 731 482 l 40 163 l 40 249 l 642 525 l 40 801 l 40 888 l 731 568 z "},"":{"ha":686,"x_min":25,"x_max":647,"o":"m 378 0 l 294 0 l 25 524 l 294 1035 l 378 1035 l 647 524 l 378 0 m 564 524 l 336 960 l 108 524 l 336 75 l 564 524 z "},"":{"ha":515,"x_min":-506,"x_max":676,"o":"m 607 483 q 592 450 607 467 q 560 433 576 433 q 543 450 543 433 q 557 485 543 468 q 589 501 571 501 q 607 483 607 501 m 676 672 q 658 628 676 660 q 631 596 640 596 q 626 601 626 596 q 628 606 626 603 q 640 632 640 621 q 635 644 640 636 q 574 669 614 669 q 346 471 469 669 q 239 286 288 376 l 246 286 q 475 294 424 286 q 500 296 483 296 l 501 296 q 507 292 507 296 q 504 285 507 289 q 438 186 485 258 q 360 18 360 65 q 388 -14 360 -14 q 407 -11 399 -14 q 657 183 546 38 q 663 188 658 188 q 667 183 667 188 q 664 176 667 181 q 424 -18 563 47 q 340 -43 371 -43 q 301 -8 301 -43 q 329 74 301 22 q 447 267 372 138 q 449 268 447 268 l 449 269 q 440 275 449 275 q 232 274 304 275 q 35 -85 179 174 q -176 -379 -58 -247 q -361 -485 -271 -485 q -479 -399 -439 -485 q -506 -275 -506 -342 l -506 -262 q -477 -201 -506 -246 q -433 -149 -449 -156 q -429 -153 -429 -150 q -440 -165 -431 -156 q -462 -228 -462 -189 l -462 -247 q -432 -382 -462 -317 q -333 -462 -394 -462 q -118 -261 -240 -462 q 31 4 -58 -162 q 176 272 136 201 l 79 271 q 44 285 44 271 q 51 288 47 286 l 51 288 l 185 286 q 265 418 207 324 q 521 678 381 593 q 618 710 574 710 q 676 672 676 710 z "},"":{"ha":551,"x_min":-799,"x_max":1013,"o":"m 1013 897 q 951 751 1013 854 q 603 375 808 513 q 532 333 561 347 q 435 151 478 236 q 401 46 401 85 q 440 3 401 3 q 679 183 535 3 q 686 189 685 189 q 689 185 689 188 q 686 178 689 182 q 404 -22 531 -22 q 343 38 343 -22 q 374 133 343 76 q 481 311 388 158 q 240 274 399 282 l 214 225 q 35 -100 164 132 q -169 -397 -71 -283 q -456 -608 -301 -549 q -583 -633 -521 -633 q -710 -601 -656 -633 q -799 -428 -799 -549 q -793 -370 -799 -412 q -779 -328 -787 -328 l -778 -328 q -776 -332 -776 -328 q -778 -339 -778 -340 q -785 -396 -785 -369 q -606 -571 -785 -537 q -542 -576 -576 -576 q -168 -372 -332 -576 q 15 -51 -107 -297 q 185 272 92 101 q 86 271 147 271 q 46 281 65 271 q 40 285 40 282 q 47 288 42 288 l 194 288 l 210 317 q 596 753 388 657 q 657 768 629 768 q 704 735 703 768 q 710 703 706 707 l 714 699 q 968 918 822 858 q 988 922 978 922 q 1013 897 1013 922 m 946 861 q 931 883 946 883 q 808 764 910 883 q 724 635 782 725 q 567 390 676 564 l 543 351 q 900 731 772 482 q 929 790 924 775 q 944 849 942 819 q 946 861 946 854 m 706 685 l 700 690 q 624 724 676 724 q 486 664 557 724 q 386 547 429 617 q 247 289 363 510 q 490 326 408 294 q 524 382 500 342 q 706 685 592 500 z "},"":{"ha":0,"x_min":0,"x_max":0,"o":""},"":{"ha":279,"x_min":0,"x_max":0,"o":""},"":{"ha":279,"x_min":0,"x_max":0,"o":""},"":{"ha":682,"x_min":0,"x_max":0,"o":""},"":{"ha":640,"x_min":133,"x_max":825,"o":"m 825 482 l 776 422 l 771 424 q 636 572 768 572 q 322 358 469 572 l 503 358 q 597 354 565 358 q 581 332 592 343 q 314 346 508 346 q 278 285 308 338 l 476 285 q 571 282 539 285 q 554 258 565 269 q 475 269 525 265 q 271 272 442 272 q 222 101 222 165 q 363 -11 222 -11 q 613 83 500 -11 l 613 65 q 349 -24 513 -24 q 161 128 161 -24 q 200 272 161 189 l 133 272 l 139 289 q 206 285 171 285 q 242 346 217 304 l 160 346 l 165 363 q 250 358 203 358 q 638 583 407 579 q 751 564 703 585 q 825 482 813 538 z "},"":{"ha":0,"x_min":0,"x_max":0,"o":""},"":{"ha":0,"x_min":0,"x_max":0,"o":""}}}
